<svg xmlns="http://www.w3.org/2000/svg" xmlns:xlink="http://www.w3.org/1999/xlink" width="32" height="32" viewBox="0 0 32 32">
  <defs>
    <radialGradient id="radial-gradient" cx="0.266" cy="1.077" r="0.991" gradientTransform="translate(-2.918 5.666) rotate(-90) scale(1 0.93)" gradientUnits="objectBoundingBox">
      <stop offset="0" stop-color="#fd5"/>
      <stop offset="0.1" stop-color="#fd5"/>
      <stop offset="0.5" stop-color="#ff543e"/>
      <stop offset="1" stop-color="#c837ab"/>
    </radialGradient>
  </defs>
  <g id="logo-instagram" transform="translate(-1.001 -1)">
    <path id="Path_6" data-name="Path 6" d="M16,0C9.322,0,7.368.007,6.989.038A7.936,7.936,0,0,0,3.835.831,6.387,6.387,0,0,0,2,2.177,6.869,6.869,0,0,0,.144,6.07,28.891,28.891,0,0,0,0,10.793c0,1.274,0,2.951,0,5.2C0,22.67.005,24.622.037,25A8.04,8.04,0,0,0,.8,28.093a6.741,6.741,0,0,0,4.368,3.57,11.349,11.349,0,0,0,2.323.308c.4.017,4.435.03,8.476.03s8.082,0,8.469-.025a10.929,10.929,0,0,0,2.407-.315,6.7,6.7,0,0,0,4.368-3.577,7.908,7.908,0,0,0,.754-3.032c.022-.276.031-4.672.031-9.062s-.01-8.779-.032-9.054a7.82,7.82,0,0,0-.77-3.062A6.343,6.343,0,0,0,29.826,2,6.907,6.907,0,0,0,25.93.147,28.827,28.827,0,0,0,21.209,0Z" transform="translate(1.004 1)" fill="url(#radial-gradient)"/>
    <path id="Path_7" data-name="Path 7" d="M16,0C9.322,0,7.368.007,6.989.038A7.936,7.936,0,0,0,3.835.831,6.387,6.387,0,0,0,2,2.177,6.869,6.869,0,0,0,.144,6.07,28.891,28.891,0,0,0,0,10.793c0,1.274,0,2.951,0,5.2C0,22.67.005,24.622.037,25A8.04,8.04,0,0,0,.8,28.093a6.741,6.741,0,0,0,4.368,3.57,11.349,11.349,0,0,0,2.323.308c.4.017,4.435.03,8.476.03s8.082,0,8.469-.025a10.929,10.929,0,0,0,2.407-.315,6.7,6.7,0,0,0,4.368-3.577,7.908,7.908,0,0,0,.754-3.032c.022-.276.031-4.672.031-9.062s-.01-8.779-.032-9.054a7.82,7.82,0,0,0-.77-3.062A6.343,6.343,0,0,0,29.826,2,6.907,6.907,0,0,0,25.93.147,28.827,28.827,0,0,0,21.209,0Z" transform="translate(1.004 1)"/>
    <path id="Path_8" data-name="Path 8" d="M28.373,18c-2.817,0-3.17.012-4.277.063a7.608,7.608,0,0,0-2.517.482,5.307,5.307,0,0,0-3.035,3.035,7.585,7.585,0,0,0-.482,2.519C18.013,25.206,18,25.56,18,28.378s.013,3.171.063,4.278a7.631,7.631,0,0,0,.482,2.519,5.309,5.309,0,0,0,3.033,3.036,7.614,7.614,0,0,0,2.518.482c1.106.05,1.46.063,4.276.063s3.17-.012,4.276-.063a7.619,7.619,0,0,0,2.519-.482A5.316,5.316,0,0,0,38.2,35.176a7.7,7.7,0,0,0,.482-2.519c.05-1.107.063-1.46.063-4.278s-.013-3.172-.063-4.279A7.693,7.693,0,0,0,38.2,21.58a5.308,5.308,0,0,0-3.034-3.035,7.632,7.632,0,0,0-2.52-.482C31.54,18.012,31.188,18,28.37,18Zm-.93,1.87h.93c2.769,0,3.1.01,4.191.06a5.74,5.74,0,0,1,1.926.357,3.438,3.438,0,0,1,1.968,1.97,5.737,5.737,0,0,1,.357,1.926c.05,1.094.061,1.423.061,4.192s-.011,3.1-.061,4.192a5.743,5.743,0,0,1-.357,1.926,3.441,3.441,0,0,1-1.968,1.968,5.719,5.719,0,0,1-1.926.358c-1.093.05-1.422.061-4.191.061s-3.1-.011-4.191-.061a5.751,5.751,0,0,1-1.926-.358,3.437,3.437,0,0,1-1.969-1.969,5.737,5.737,0,0,1-.357-1.926c-.05-1.094-.06-1.423-.06-4.194s.01-3.1.06-4.192a5.749,5.749,0,0,1,.357-1.927,3.438,3.438,0,0,1,1.969-1.97,5.727,5.727,0,0,1,1.926-.358c.957-.043,1.328-.056,3.261-.058Zm6.467,1.723a1.245,1.245,0,1,0,1.245,1.245,1.245,1.245,0,0,0-1.245-1.245Zm-5.537,1.455a5.329,5.329,0,1,0,5.326,5.33,5.328,5.328,0,0,0-5.326-5.33Zm0,1.87a3.459,3.459,0,1,1-3.457,3.459A3.458,3.458,0,0,1,28.373,24.919Z" transform="translate(-11.376 -11.376)" fill="#fff"/>
  </g>
</svg>
