<?xml version="1.0" encoding="UTF-8" standalone="no"?>
<!-- Created with Inkscape (http://www.inkscape.org/) -->

<svg
   xmlns:dc="http://purl.org/dc/elements/1.1/"
   xmlns:cc="http://creativecommons.org/ns#"
   xmlns:rdf="http://www.w3.org/1999/02/22-rdf-syntax-ns#"
   xmlns:svg="http://www.w3.org/2000/svg"
   xmlns="http://www.w3.org/2000/svg"
   xmlns:sodipodi="http://sodipodi.sourceforge.net/DTD/sodipodi-0.dtd"
   xmlns:inkscape="http://www.inkscape.org/namespaces/inkscape"
   width="26.45825mm"
   height="25.158964mm"
   viewBox="0 0 26.45825 25.158964"
   version="1.1"
   id="svg1838"
   inkscape:version="0.92.3 (2405546, 2018-03-11)"
   sodipodi:docname="Anarcho-Egoism_Star.svg">
  <defs
     id="defs1832">
    <clipPath
       id="clipPath3441">
      <path
         d="m 543.4,93.1 10.5,32.6 h 34.3 l -27.8,20 10.7,32.6 -27.7,-20.2 -27.7,20.2 10.7,-32.6 -27.8,-20 h 34.3 z"
         transform="translate(0,3.42857)"
         style="opacity:1;fill:none;fill-rule:evenodd;stroke:#755fda;stroke-width:1;stroke-linejoin:round"
         id="path14"
         inkscape:connector-curvature="0" />
    </clipPath>
    <clipPath
       id="clipPath3437">
      <path
         d="m 543.4,93.1 10.5,32.6 h 34.3 l -27.8,20 10.7,32.6 -27.7,-20.2 -27.7,20.2 10.7,-32.6 -27.8,-20 h 34.3 z"
         transform="translate(-540,407.21931)"
         style="opacity:1;fill:none;fill-rule:evenodd;stroke:#755fda;stroke-width:1;stroke-linejoin:round"
         id="path11"
         inkscape:connector-curvature="0" />
    </clipPath>
    <clipPath
       clipPathUnits="userSpaceOnUse"
       id="clipPath2413">
      <rect
         width="48.214287"
         height="91.785713"
         x="3.3928833"
         y="497.54074"
         style="opacity:1;fill:#000000;fill-opacity:1;fill-rule:evenodd;stroke:none;stroke-width:1;stroke-linejoin:round"
         clip-path="url(#clipPath3437)"
         id="rect2415"
         transform="translate(540.00001,-403.79075)" />
    </clipPath>
    <clipPath
       id="clipPath3437-9">
      <path
         d="m 543.4,93.1 10.5,32.6 h 34.3 l -27.8,20 10.7,32.6 -27.7,-20.2 -27.7,20.2 10.7,-32.6 -27.8,-20 h 34.3 z"
         transform="translate(-540,407.21931)"
         style="opacity:1;fill:none;fill-rule:evenodd;stroke:#755fda;stroke-width:1;stroke-linejoin:round"
         id="path11-0"
         inkscape:connector-curvature="0" />
    </clipPath>
    <clipPath
       id="clipPath3437-7">
      <path
         d="m 543.4,93.1 10.5,32.6 h 34.3 l -27.8,20 10.7,32.6 -27.7,-20.2 -27.7,20.2 10.7,-32.6 -27.8,-20 h 34.3 z"
         transform="translate(-540,407.21931)"
         style="opacity:1;fill:none;fill-rule:evenodd;stroke:#755fda;stroke-width:1;stroke-linejoin:round"
         id="path11-74"
         inkscape:connector-curvature="0" />
    </clipPath>
    <clipPath
       id="clipPath3437-64">
      <path
         d="m 543.4,93.1 10.5,32.6 h 34.3 l -27.8,20 10.7,32.6 -27.7,-20.2 -27.7,20.2 10.7,-32.6 -27.8,-20 h 34.3 z"
         transform="translate(-540,407.21931)"
         style="opacity:1;fill:none;fill-rule:evenodd;stroke:#755fda;stroke-width:1;stroke-linejoin:round"
         id="path11-6"
         inkscape:connector-curvature="0" />
    </clipPath>
    <clipPath
       id="clipPath3437-64-4">
      <path
         d="m 543.4,93.1 10.5,32.6 h 34.3 l -27.8,20 10.7,32.6 -27.7,-20.2 -27.7,20.2 10.7,-32.6 -27.8,-20 h 34.3 z"
         transform="translate(-540,407.21931)"
         style="opacity:1;fill:none;fill-rule:evenodd;stroke:#755fda;stroke-width:1;stroke-linejoin:round"
         id="path11-6-9"
         inkscape:connector-curvature="0" />
    </clipPath>
    <clipPath
       id="clipPath3437-64-4-2">
      <path
         d="m 543.4,93.1 10.5,32.6 h 34.3 l -27.8,20 10.7,32.6 -27.7,-20.2 -27.7,20.2 10.7,-32.6 -27.8,-20 h 34.3 z"
         transform="translate(-540,407.21931)"
         style="opacity:1;fill:none;fill-rule:evenodd;stroke:#755fda;stroke-width:1;stroke-linejoin:round"
         id="path11-6-9-4"
         inkscape:connector-curvature="0" />
    </clipPath>
  </defs>
  <sodipodi:namedview
     id="base"
     pagecolor="#ffffff"
     bordercolor="#666666"
     borderopacity="1.0"
     inkscape:pageopacity="0.0"
     inkscape:pageshadow="2"
     inkscape:zoom="2.8284271"
     inkscape:cx="47.399286"
     inkscape:cy="46.535051"
     inkscape:document-units="mm"
     inkscape:current-layer="layer1"
     showgrid="false"
     inkscape:pagecheckerboard="true"
     fit-margin-top="0"
     fit-margin-left="0"
     fit-margin-right="0"
     fit-margin-bottom="0"
     inkscape:window-width="798"
     inkscape:window-height="424"
     inkscape:window-x="292"
     inkscape:window-y="50"
     inkscape:window-maximized="0" />
  <metadata
     id="metadata1835">
    <rdf:RDF>
      <cc:Work
         rdf:about="">
        <dc:format>image/svg+xml</dc:format>
        <dc:type
           rdf:resource="http://purl.org/dc/dcmitype/StillImage" />
        <dc:title></dc:title>
      </cc:Work>
    </rdf:RDF>
  </metadata>
  <g
     inkscape:label="Emblem"
     inkscape:groupmode="layer"
     id="layer1"
     transform="translate(-255.88171,-134.74195)"
     style="display:inline"
     sodipodi:insensitive="true">
    <rect
       width="48.214287"
       height="91.785713"
       x="3.3928833"
       y="497.54074"
       style="opacity:1;fill:#036a66;fill-opacity:1;fill-rule:evenodd;stroke:none;stroke-width:1;stroke-linejoin:round"
       clip-path="url(#clipPath3437)"
       id="rect3431"
       transform="matrix(0.29529301,0,0,0.29529301,268.10684,-12.998848)" />
    <rect
       width="48.214287"
       height="91.785713"
       x="3.3928833"
       y="497.54074"
       style="opacity:1;fill:#000000;fill-opacity:1;fill-rule:evenodd;stroke:none;stroke-width:1;stroke-linejoin:round"
       clip-path="url(#clipPath3437-9)"
       id="rect3431-2"
       transform="matrix(-0.29529301,0,0,0.29529301,270.11484,-12.998848)" />
  </g>
</svg>
