<svg xmlns="http://www.w3.org/2000/svg" width="56.001" height="64" viewBox="0 0 56.001 64">
  <path id="icon-frost" d="M59,45.268l-.246-.143a1.993,1.993,0,0,0-1.872-3.517L54.61,42.732l-2.236-1.291,4.6-1.617a2,2,0,0,0-1.33-3.774l-7.829,2.757-.555-.32,1.756-2a1.892,1.892,0,0,0,.23-.321,2,2,0,0,0-3.234-2.318l-2.283,2.6L41,34.878V29.122l2.725-1.57,2.283,2.6a2,2,0,0,0,3.234-2.318,1.949,1.949,0,0,0-.23-.321l-1.756-2,.555-.32,7.829,2.757a2,2,0,0,0,1.33-3.774l-4.6-1.618,2.236-1.291,2.272,1.124a1.992,1.992,0,0,0,1.872-3.517L59,18.732a2,2,0,0,0-2-3.464l-.24.139a2,2,0,0,0-3.987-.133L52.61,17.8l-2.236,1.291.9-4.788a2,2,0,1,0-3.932-.736l-1.527,8.158-.555.321L44.4,19.53a2,2,0,0,0-3.789,1.283l1.108,3.276-2.759,1.589L34,22.839v-3.2l3.393-.678a2,2,0,0,0-.786-3.922L34,15.561V14.92l6.3-5.4a2,2,0,0,0-2.6-3.037L34,9.651V7.07l2.109-1.406A2,2,0,0,0,34,2.278V2a2,2,0,0,0-4,0v.278a2,2,0,0,0-2.109,3.386L30,7.07V9.651l-3.7-3.17a2,2,0,0,0-2.6,3.037l6.3,5.4v.641l-2.608-.521a2,2,0,1,0-.784,3.922L30,19.639v3.2l-4.965,2.837-2.758-1.589,1.108-3.276A2,2,0,1,0,19.6,19.528l-.853,2.52-.555-.321-1.527-8.158a2,2,0,1,0-3.932.736l.9,4.788L11.391,17.8l-.164-2.53a2,2,0,0,0-3.987.133L7,15.268a2,2,0,0,0-2,3.464l.247.143a1.993,1.993,0,0,0,1.871,3.517l2.273-1.124,2.235,1.291L7.031,24.177A2,2,0,0,0,8.36,27.951l7.829-2.757.555.32-1.756,2a1.956,1.956,0,0,0-.231.321,2,2,0,0,0,3.235,2.318l2.284-2.6L23,29.122v5.756l-2.724,1.569-2.284-2.6a2,2,0,0,0-3.235,2.318,1.915,1.915,0,0,0,.231.321l1.756,2-.555.32L8.36,36.051a2,2,0,0,0-1.329,3.774l4.595,1.617L9.391,42.733,7.118,41.609A2,2,0,0,0,4.5,44.4a1.977,1.977,0,0,0,.746.722L5,45.268a2,2,0,1,0,2,3.464l.241-.14a2,2,0,0,0,3.987.134l.164-2.53,2.235-1.29-.9,4.787a2,2,0,0,0,3.932.736l1.527-8.158.555-.32.853,2.52a2,2,0,1,0,3.788-1.282l-1.108-3.276,2.758-1.589L30,41.16v3.2l-3.392.678a2,2,0,1,0,.784,3.922L30,48.439v.641l-6.3,5.4a2,2,0,0,0,2.6,3.037L30,54.349V56.93l-2.109,1.406A2,2,0,0,0,30,61.722V62a2,2,0,0,0,4,0v-.285a1.992,1.992,0,0,0,2.109-3.379L34,56.93V54.349l3.7,3.17a2,2,0,1,0,2.6-3.037L34,49.08v-.641l2.607.521A1.912,1.912,0,0,0,37,49a2,2,0,0,0,.391-3.961L34,44.361v-3.2l4.965-2.837,2.759,1.589-1.108,3.276A2,2,0,1,0,44.4,44.47l.852-2.52.555.32,1.527,8.158a2,2,0,0,0,3.932-.736l-.9-4.787,2.236,1.29.163,2.53a2,2,0,0,0,3.987-.134l.24.14a2,2,0,1,0,2-3.463ZM27,34.84V29.161L32,26.3l5,2.857V34.84L32,37.7Z" transform="translate(-4)" fill="#fff"/>
</svg>
