<svg xmlns="http://www.w3.org/2000/svg" width="32" height="32" viewBox="0 0 32 32">
  <g id="icon-avatar" transform="translate(-1514.001 -45)">
    <path id="Path_1" data-name="Path 1" d="M26,10A16,16,0,1,0,42,26,16,16,0,0,0,26,10Zm9.642,26.959a9.861,9.861,0,0,0-7.232-9.2,6.219,6.219,0,0,0,3.944-5.916,6.358,6.358,0,1,0-12.715,0,6.551,6.551,0,0,0,3.945,5.916,9.608,9.608,0,0,0-7.232,9.206,14.449,14.449,0,0,1-5.035-10.958,14.684,14.684,0,1,1,29.368,0,14.429,14.429,0,0,1-5.042,10.954Z" transform="translate(1504 35)" fill="#fff"/>
  </g>
</svg>
