<?xml version="1.0" encoding="UTF-8"?>
<!DOCTYPE svg PUBLIC "-//W3C//DTD SVG 1.1//EN" "http://www.w3.org/Graphics/SVG/1.1/DTD/svg11.dtd">
<svg version="1.1" xmlns="http://www.w3.org/2000/svg" xmlns:xlink="http://www.w3.org/1999/xlink" x="0" y="0" width="533" height="461" viewBox="0, 0, 533, 461">
  <defs>
    <clipPath id="Clip_1">
      <path d="M-0,0.188 L532.072,0.188 L532.072,460.94 L-0,460.94 z"/>
    </clipPath>
  </defs>
  <g id="Layer_1">
    <g clip-path="url(#Clip_1)">
      <path d="M-0,302.115 L-0,461 L201.137,438.393 C201.018,437.316 200.777,436.269 200.777,435.171 C200.777,415.835 218.988,400.15 241.424,400.15 C261.588,400.15 278.182,412.814 281.412,429.369 L531.014,401.316 L532.072,249.929 L-0,302.115" fill="#F4B655"/>
    </g>
    <path d="M304.787,0.188 L146.271,157.229 C159.533,162.993 168.729,174.71 168.729,188.372 C168.729,207.698 150.52,223.364 128.061,223.364 C114.219,223.364 102.053,217.391 94.695,208.306 L-0,302.115 L532.072,249.929 C513.723,15.605 304.787,0.188 304.787,0.188" fill="#FBCF59"/>
    <path d="M395.215,73.952 C395.215,96.389 372.438,114.578 344.336,114.578 C316.215,114.578 293.459,96.389 293.459,73.952 C293.459,51.525 316.215,33.336 344.336,33.336 C372.438,33.336 395.215,51.525 395.215,73.952" fill="#EE9E45"/>
    <path d="M283.268,163.002 C283.268,178.709 267.313,191.443 247.648,191.443 C227.982,191.443 212.047,178.709 212.047,163.002 C212.047,147.296 227.982,134.572 247.648,134.572 C267.313,134.572 283.268,147.296 283.268,163.002" fill="#EE9E45"/>
    <path d="M463.922,198.543 C463.922,216.493 445.674,231.042 423.197,231.042 C400.719,231.042 382.51,216.493 382.51,198.543 C382.51,180.594 400.719,166.044 423.197,166.044 C445.674,166.044 463.922,180.594 463.922,198.543" fill="#EE9E45"/>
    <path d="M224.73,338.98 C224.73,354.677 209.934,367.431 191.664,367.431 C173.395,367.431 158.596,354.677 158.596,338.98 C158.596,323.235 173.395,310.501 191.664,310.501 C209.934,310.501 224.73,323.235 224.73,338.98" fill="#C08751"/>
    <path d="M345.594,358.835 C345.594,372.148 335.92,382.917 323.975,382.917 C312.047,382.917 302.373,372.148 302.373,358.835 C302.373,345.533 312.047,334.743 323.975,334.743 C335.92,334.743 345.594,345.533 345.594,358.835" fill="#C08751"/>
    <path d="M117.83,394.457 C117.83,413.792 99.621,429.459 77.164,429.459 C54.707,429.459 36.518,413.792 36.518,394.457 C36.518,375.121 54.707,359.454 77.164,359.454 C99.621,359.454 117.83,375.121 117.83,394.457" fill="#C08751"/>
    <path d="M484.205,310.501 C484.205,329.816 466.016,345.503 443.58,345.503 C421.102,345.503 402.893,329.816 402.893,310.501 C402.893,291.165 421.102,275.499 443.58,275.499 C466.016,275.499 484.205,291.165 484.205,310.501" fill="#C08751"/>
  </g>
</svg>
