<svg xmlns="http://www.w3.org/2000/svg" width="50" height="50" viewBox="0 0 50 50">
  <g id="image" transform="translate(0.369)">
    <path id="Path_1" data-name="Path 1" d="M396.063,34.852c5.421-4.911,13.5-5.367,13.5-5.367s-23.679-.811-18.164,17.029C391.468,40.423,393.28,37.371,396.063,34.852Z" transform="translate(-369.649 -18.107)" fill="#5ec738" stroke="#5ec738" stroke-width="1"/>
    <path id="Path_2" data-name="Path 2" d="M349.686,30.623s-8.046.8-13.25,5.94c-2.658,2.625-4.334,5.736-4.164,11.771-.369,4.714-4.164,12.812-4.164,12.812.832,2.189,2.847.649,2.847.649-.712-2.261,2.727-12.476,3.057-13.444C339.223,47.99,354.1,45.643,349.686,30.623Z" transform="translate(-309.901 -18.194)" fill="#5ec738"/>
    <path id="Path_3" data-name="Path 3" d="M60.217,229.958c-3.64-3.3-9.06-3.6-9.06-3.6s15.9-.547,12.193,11.432C63.3,233.7,62.084,231.65,60.217,229.958Z" transform="translate(-45.889 -206.246)" fill="none" stroke="#5ec738" stroke-width="1"/>
    <path id="Path_4" data-name="Path 4" d="M40.67,227.119s5.4.54,8.9,3.991c1.784,1.762,2.909,3.85,2.8,7.9.248,3.165,2.8,8.6,2.8,8.6-.559,1.467-1.911.435-1.911.435.478-1.518-1.831-8.376-2.053-9.026C47.694,238.778,37.7,237.2,40.67,227.119Z" transform="translate(-35.333 -206.688)" fill="#5ec738" stroke="#5ec738" stroke-width="1"/>
    <g id="Ellipse" transform="translate(-0.369)" fill="none" stroke="#5ec738" stroke-width="3">
      <circle cx="25" cy="25" r="25" stroke="none"/>
      <circle cx="25" cy="25" r="23.5" fill="none"/>
    </g>
  </g>
</svg>
