<svg xmlns="http://www.w3.org/2000/svg" width="152.003" height="139" viewBox="0 0 152.003 139">
  <g id="logo" transform="translate(-95.127 39.52)">
    <path id="background" d="M0,0H152V134a5,5,0,0,1-5,5H5a5,5,0,0,1-5-5Z" transform="translate(95.13 -39.52)" fill="#5ec738"/>
    <path id="Rectangle_19" data-name="Rectangle 19" d="M0,0H152V19a5,5,0,0,1-5,5H5a5,5,0,0,1-5-5Z" transform="translate(95.127 75.479)" fill="#60984b"/>
    <text id="VEGAN_STORE" data-name="VEGAN STORE" transform="translate(127.127 92.479)" fill="rgba(255,255,255,0.8)" font-size="12" font-family="SegoeUI, Segoe UI" letter-spacing="0.1em"><tspan x="0" y="0">VEGAN STORE</tspan></text>
    <text id="NATURE" transform="translate(123.127 64.479)" fill="#fff" font-size="23" font-family="SegoeUI-Bold, Segoe UI" font-weight="700" letter-spacing="0.05em"><tspan x="0" y="0">NATURE</tspan></text>
    <g id="image" transform="translate(140.496 -27.521)">
      <path id="Path_1" data-name="Path 1" d="M397.6,36.353c6.935-6.283,17.266-6.867,17.266-6.867s-30.294-1.038-23.239,21.786C391.721,43.48,394.04,39.576,397.6,36.353Z" transform="translate(-365.055 -15.609)" fill="#fff"/>
      <path id="Path_2" data-name="Path 2" d="M355.714,30.623s-10.294,1.027-16.952,7.6c-3.4,3.358-5.545,7.338-5.327,15.059-.472,6.031-5.327,16.391-5.327,16.391,1.065,2.8,3.642.83,3.642.83-.911-2.893,3.489-15.961,3.911-17.2C342.328,52.842,361.366,49.839,355.714,30.623Z" transform="translate(-306.036 -16.69)" fill="#fff"/>
      <path id="Path_3" data-name="Path 3" d="M62.748,230.966c-4.657-4.218-11.591-4.61-11.591-4.61s20.337-.7,15.6,14.626C66.693,235.751,65.137,233.13,62.748,230.966Z" transform="translate(-44.314 -201.656)" fill="#fff"/>
      <path id="Path_4" data-name="Path 4" d="M40.822,227.119s6.911.691,11.382,5.106c2.283,2.254,3.722,4.926,3.576,10.11.317,4.049,3.576,11,3.576,11-.715,1.877-2.445.557-2.445.557.612-1.942-2.342-10.716-2.626-11.548C49.808,242.035,37.027,240.019,40.822,227.119Z" transform="translate(-33.891 -202.381)" fill="#fff"/>
      <g id="Ellipse" transform="translate(-0.369)" fill="rgba(148,81,81,0)" stroke="#fff" stroke-width="3">
        <circle cx="31" cy="31" r="31" stroke="none"/>
        <circle cx="31" cy="31" r="29.5" fill="none"/>
      </g>
    </g>
  </g>
</svg>
