<svg xmlns="http://www.w3.org/2000/svg" width="32" height="32" viewBox="0 0 32 32">
  <g id="logo-twitter" transform="translate(-126.444 -2.281)">
    <circle id="Ellipse_4" data-name="Ellipse 4" cx="16" cy="16" r="16" transform="translate(126.444 2.281)"/>
    <path id="Path_9" data-name="Path 9" d="M248.747,144.7a7.683,7.683,0,0,1-1.96.463,3.072,3.072,0,0,0,1.5-1.626,7.515,7.515,0,0,1-2.167.713,3.682,3.682,0,0,0-2.49-.928,3.2,3.2,0,0,0-3.411,2.939,2.581,2.581,0,0,0,.088.67,10.279,10.279,0,0,1-7.032-3.071,2.622,2.622,0,0,0-.462,1.478,2.856,2.856,0,0,0,1.518,2.446,3.823,3.823,0,0,1-1.546-.367v.037a3.09,3.09,0,0,0,2.737,2.882,3.909,3.909,0,0,1-.9.1,4,4,0,0,1-.642-.052,3.393,3.393,0,0,0,3.187,2.041,7.571,7.571,0,0,1-4.237,1.259,7.893,7.893,0,0,1-.814-.042,10.812,10.812,0,0,0,5.23,1.321c6.275,0,9.707-4.478,9.707-8.362,0-.128,0-.254-.01-.38a6.5,6.5,0,0,0,1.7-1.523Z" transform="translate(-98.219 -131.096)" fill="#fff"/>
  </g>
</svg>
