<svg xmlns="http://www.w3.org/2000/svg" xmlns:xlink="http://www.w3.org/1999/xlink" width="252" height="94.881" viewBox="0 0 252 94.881">
  <defs>
    <filter id="Path_3" x="30.016" y="0" width="72.294" height="94.881" filterUnits="userSpaceOnUse">
      <feOffset dy="3" input="SourceAlpha"/>
      <feGaussianBlur stdDeviation="3" result="blur"/>
      <feFlood flood-opacity="0.69"/>
      <feComposite operator="in" in2="blur"/>
      <feComposite in="SourceGraphic"/>
    </filter>
    <filter id="Path_5" x="0" y="20.481" width="54.449" height="69.612" filterUnits="userSpaceOnUse">
      <feOffset dy="3" input="SourceAlpha"/>
      <feGaussianBlur stdDeviation="3" result="blur-2"/>
      <feFlood flood-opacity="0.788"/>
      <feComposite operator="in" in2="blur-2"/>
      <feComposite in="SourceGraphic"/>
    </filter>
  </defs>
  <g id="logo" transform="translate(-276 -6.119)">
    <text id="VEGAN_STORE" data-name="VEGAN STORE" transform="translate(381 74)" fill="#fff" font-size="16" font-family="Roboto-Regular, Roboto" letter-spacing="0.2em" opacity="0.8"><tspan x="0" y="0">VEGAN STORE</tspan></text>
    <g id="logo-2" data-name="logo" transform="translate(244.873 -17.479)">
      <g id="Group_1" data-name="Group 1" transform="translate(70.143 29.479)">
        <path id="Path_2" data-name="Path 2" d="M403.9,42.51c13.15-11.91,32.73-13.018,32.73-13.018s-57.425-1.967-44.052,41.3C392.759,56.019,397.156,48.619,403.9,42.51Z" transform="translate(-384.05 -29.479)" fill="#dcc52b"/>
        <g transform="matrix(1, 0, 0, 1, -39.02, -5.88)" filter="url(#Path_3)">
          <path id="Path_3-2" data-name="Path 3" d="M380.439,30.623S360.925,32.574,348.3,45.04c-6.446,6.366-10.511,13.911-10.1,28.546-.9,11.432-10.1,31.071-10.1,31.071,2.019,5.3,6.9,1.574,6.9,1.574-1.727-5.484,6.614-30.257,7.414-32.608C355.063,72.741,391.151,67.049,380.439,30.623Z" transform="translate(-289.09 -24.62)" fill="#dcc52b"/>
        </g>
      </g>
      <g id="Group_2" data-name="Group 2" transform="translate(40.127 49.999)">
        <path id="Path_4" data-name="Path 4" d="M73.129,235.1c-8.827-8-21.972-8.739-21.972-8.739s38.551-1.32,29.574,27.725C80.61,244.169,77.658,239.2,73.129,235.1Z" transform="translate(-50.007 -226.352)" fill="#91ff00"/>
        <g transform="matrix(1, 0, 0, 1, -9, -26.4)" filter="url(#Path_5)">
          <path id="Path_5-2" data-name="Path 5" d="M41.443,227.119s13.1,1.309,21.575,9.678c4.327,4.273,7.056,9.339,6.778,19.164.6,7.675,6.779,20.859,6.779,20.859-1.355,3.559-4.634,1.057-4.634,1.057,1.16-3.682-4.44-20.313-4.977-21.891C58.478,255.394,34.252,251.572,41.443,227.119Z" transform="translate(-31.13 -200.64)" fill="#91ff00"/>
        </g>
      </g>
    </g>
    <text id="EVERGREEN" transform="translate(381 50)" fill="#fff" font-size="30" font-family="SimSun" letter-spacing="0.05em"><tspan x="0" y="0">EVERGREEN</tspan></text>
  </g>
</svg>
