<svg width="27" height="27" viewBox="0 0 27 27" fill="none" xmlns="http://www.w3.org/2000/svg">
<path d="M13.5 0C10.83 0 8.21987 0.791761 5.99981 2.27516C3.77974 3.75856 2.04941 5.86697 1.02763 8.33377C0.00584938 10.8006 -0.261496 13.515 0.259405 16.1337C0.780305 18.7525 2.06605 21.1579 3.95406 23.0459C5.84207 24.9339 8.24754 26.2197 10.8663 26.7406C13.485 27.2615 16.1994 26.9941 18.6662 25.9724C21.133 24.9506 23.2414 23.2202 24.7248 21.0002C26.2082 18.7801 27 16.17 27 13.5C27 11.7271 26.6508 9.97166 25.9724 8.33377C25.2939 6.69587 24.2995 5.20765 23.0459 3.95406C21.7923 2.70047 20.3041 1.70606 18.6662 1.02763C17.0283 0.349188 15.2728 0 13.5 0V0ZM13.5 25.3314C11.1504 25.3314 8.85348 24.6346 6.89983 23.3292C4.94617 22.0239 3.42348 20.1685 2.52432 17.9977C1.62515 15.8269 1.38988 13.4382 1.84828 11.1337C2.30667 8.82923 3.43813 6.71242 5.09958 5.05097C6.76102 3.38952 8.87783 2.25806 11.1823 1.79967C13.4868 1.34128 15.8755 1.57654 18.0463 2.47571C20.2171 3.37488 22.0725 4.89757 23.3779 6.85122C24.6832 8.80488 25.38 11.1018 25.38 13.4514C25.3786 16.6012 24.1263 19.6216 21.8985 21.8483C19.6707 24.0751 16.6498 25.326 13.5 25.326V25.3314Z" fill="black"/>
<path d="M13.5 1.97095C11.2251 1.97095 9.00131 2.64553 7.10982 3.90938C5.21833 5.17324 3.74409 6.9696 2.87353 9.07132C2.00297 11.173 1.77519 13.4857 2.219 15.7169C2.66281 17.948 3.75826 19.9975 5.36685 21.6061C6.97543 23.2147 9.02489 24.3101 11.2561 24.7539C13.4872 25.1977 15.7999 24.97 17.9016 24.0994C20.0033 23.2288 21.7997 21.7546 23.0635 19.8631C24.3274 17.9716 25.002 15.7478 25.002 13.4729C24.9977 10.4237 23.7845 7.50065 21.6284 5.34454C19.4723 3.18842 16.5492 1.97523 13.5 1.97095V1.97095Z" fill="black"/>
<path d="M15.0229 21.1241C14.9912 21.1241 14.9435 21.1082 14.9435 21.0606C14.9435 21.0288 14.9276 20.9971 14.9118 20.9971C14.8959 20.9971 14.8641 20.9653 14.8483 20.9177C14.8324 20.8701 14.8324 20.8542 14.8165 20.8542L14.7848 20.8701L14.7371 20.8859C14.7054 20.8859 14.6577 20.8701 14.5625 20.8224C14.4037 20.743 14.372 20.7113 14.2291 20.489C14.102 20.2667 14.0703 20.1397 14.0703 19.9016V19.711C14.0703 19.584 14.0703 19.4411 14.0862 19.3935C14.0862 19.3617 14.102 19.1077 14.1338 18.8378L14.1973 18.171C14.1973 17.9487 14.2767 17.393 14.3084 17.3612H14.3243L14.3402 17.393C14.3402 17.4247 14.3402 17.4406 14.3561 17.4406C14.372 17.4406 14.4037 17.393 14.4196 17.3295L14.4355 17.2501L14.4196 17.2342L14.3878 17.266C14.3561 17.2977 14.3243 17.3136 14.3084 17.3136V17.2819L14.3402 16.9802L14.4355 16.361C14.4672 16.1863 14.499 16.0434 14.5148 16.0434L14.5307 16.0117L14.5148 15.9641C14.499 15.9323 14.499 15.9006 14.499 15.8688C14.499 15.8053 14.5307 15.7418 14.5784 15.7418C14.6101 15.7418 14.626 15.7259 14.626 15.7259V15.71C14.6101 15.6941 14.5784 15.6941 14.5625 15.6941H14.5466L14.5307 15.6624C14.5307 15.6465 14.5307 15.6306 14.5148 15.6306L14.4513 15.71C14.4196 15.7577 14.3878 15.7894 14.3561 15.7894L14.3243 15.7577L14.3402 15.7418C14.3402 15.7418 14.3402 15.71 14.3084 15.6783C14.2926 15.6465 14.2608 15.6148 14.2449 15.6148C14.2291 15.6148 14.2291 15.6148 14.2291 15.6306V15.6783C14.2291 15.7418 14.1497 15.8688 14.102 15.8688L14.0703 15.8847V15.9006C14.0703 15.9164 14.0544 15.9323 14.0227 15.9323C13.975 15.9323 13.9591 15.9482 13.9591 15.9641C13.9591 15.9799 13.975 15.9958 14.0068 16.0117L14.0385 16.0276L14.0068 16.0593L13.9909 16.107L14.0068 16.1705C14.0068 16.1863 14.0068 16.1863 13.9909 16.1863L13.8956 16.1705L13.8798 16.1863C13.8956 16.2181 13.9274 16.234 14.0068 16.234H14.0227C14.0385 16.234 14.0544 16.234 14.0544 16.2657L14.0227 16.3134L13.9909 16.3292C13.975 16.3292 13.9591 16.3292 13.9433 16.2975L13.8956 16.2657C13.848 16.2657 13.7845 16.3292 13.721 16.4245C13.6416 16.5674 13.4352 16.8055 13.4035 16.8055L13.3876 16.8214L13.4193 16.8532L13.467 16.9326C13.467 16.9484 13.4352 16.9643 13.3876 16.9643C13.3399 16.9643 13.2923 17.0119 13.2923 17.0437C13.2923 17.0437 13.2923 17.0596 13.3082 17.0596L13.3399 17.0913L13.3241 17.1548C13.3082 17.1866 13.2923 17.2025 13.2764 17.2025L13.1971 17.1707C13.1812 17.1707 13.1653 17.1866 13.1335 17.2183C13.1177 17.2501 13.0859 17.2819 13.0542 17.2819C13.0224 17.2819 13.0065 17.3136 13.0065 17.3612C13.0065 17.4089 13.0224 17.4406 13.0542 17.4565L13.0859 17.4724L13.1335 17.4406L13.1494 17.4565C13.1494 17.4724 12.9907 17.5676 12.9589 17.5676L12.943 17.5518L12.9589 17.5359V17.5041L12.943 17.52C12.9271 17.5359 12.9113 17.5676 12.9113 17.5994C12.9113 17.647 12.9113 17.6629 12.8795 17.6629C12.8478 17.6629 12.7684 17.7423 12.7684 17.7899C12.7684 17.8058 12.7684 17.8217 12.7525 17.8217C12.7366 17.8217 12.7207 17.8693 12.689 17.9169C12.6731 17.9646 12.6572 17.9963 12.6255 17.9963H12.5937C12.5461 17.9963 12.4191 18.1392 12.4191 18.2345V18.2503C12.4191 18.2821 12.4191 18.3139 12.4032 18.3297C12.3873 18.3297 12.3873 18.3297 12.3873 18.3139C12.3873 18.2503 12.3714 18.2345 12.3556 18.2345C12.3397 18.2345 12.3238 18.2345 12.3079 18.2662C12.2762 18.3139 12.2603 18.3297 12.2286 18.3297H12.1968C12.165 18.3139 12.1333 18.298 12.1333 18.2821C12.1333 18.2662 12.1809 18.2503 12.2444 18.2345C12.2762 18.2345 12.3238 18.2027 12.3397 18.171L12.3556 18.1392C12.3556 18.1233 12.3397 18.1233 12.3238 18.1233C12.2762 18.1233 12.2127 18.1551 12.1492 18.2345C12.0857 18.2821 12.038 18.3297 12.0222 18.3297L11.9904 18.3139L11.911 18.3456C11.911 18.3615 11.9428 18.3774 11.9745 18.3932C12.0063 18.4091 12.038 18.4091 12.0539 18.4091C12.0698 18.4091 12.1015 18.4091 12.1174 18.3932L12.1809 18.3615C12.1968 18.3615 12.1968 18.3615 12.1968 18.3774C12.1968 18.4091 12.165 18.4409 12.1174 18.4567L12.0539 18.4726L12.0222 18.4567L11.9428 18.4885C11.8951 18.5203 11.8475 18.5679 11.8475 18.5838H11.911C11.9586 18.5838 12.0539 18.679 12.0539 18.7267C12.038 18.7425 12.0063 18.7425 11.9586 18.7425H11.9428C11.8951 18.7425 11.8316 18.7743 11.7364 18.8854C11.657 18.9807 11.5776 19.0442 11.5617 19.0442C11.53 19.0442 11.4347 19.1553 11.4347 19.1871L11.4506 19.203L11.3236 19.2188C11.2601 19.2506 11.2601 19.2665 11.2601 19.33C11.2601 19.3776 10.9743 19.5205 10.8949 19.5205C10.8631 19.5205 10.8473 19.5364 10.8314 19.5681C10.8314 19.584 10.7044 19.5999 10.5615 19.5999H10.4821C10.1963 19.5999 9.87876 19.5205 9.5771 19.3617C9.16429 19.1553 8.48158 18.5361 8.22755 18.1392C8.14817 18.0281 8.08466 17.9169 8.0529 17.8852C7.9894 17.8217 7.76712 17.4247 7.71949 17.2819C7.68773 17.2025 7.65598 17.0596 7.6401 16.9802L7.49721 16.2498L7.46545 16.0434C7.46545 16.0117 7.48133 15.9958 7.51309 15.9641C7.54484 15.9482 7.56072 15.9164 7.56072 15.8688V15.8212C7.56072 15.7418 7.56072 15.6465 7.57659 15.5989C7.57659 15.5354 7.57659 15.4877 7.56072 15.4719L7.54484 15.4242L7.60835 15.1702C7.62422 14.9003 7.62422 14.8209 7.65598 14.7257L7.68773 14.6145L7.67186 14.5351C7.67186 14.5034 7.68773 14.4716 7.70361 14.4557C7.71949 14.4399 7.73536 14.4081 7.73536 14.3446V14.2811C7.73536 14.2017 7.71949 14.1382 7.70361 14.1382C7.68773 14.1382 7.67186 14.1223 7.67186 14.1064V14.0906H7.70361C7.75124 14.0906 7.79887 14.0271 7.79887 13.9636V13.9477C7.78299 13.9159 7.75124 13.9 7.75124 13.9H7.73536L7.70361 13.8842C7.70361 13.8524 7.71949 13.8207 7.75124 13.7889L7.78299 13.7572H7.79887L7.78299 13.8365L7.81475 13.8207C7.83063 13.8048 7.86238 13.7095 7.87826 13.6143C7.89413 13.5349 7.91001 13.4237 7.92589 13.392L7.94176 13.3444L7.92589 13.3126C7.89413 13.3126 7.87826 13.2808 7.87826 13.2808C7.87826 13.265 7.87826 13.2491 7.91001 13.2491L7.94176 13.265H8.00527L7.97352 13.1856C7.97352 13.1697 7.9894 13.138 8.02115 13.1221C8.0529 13.1062 8.06878 13.0586 8.06878 13.0427C8.06878 13.0109 8.10053 12.9157 8.14817 12.8045C8.17992 12.6934 8.21167 12.5823 8.21167 12.5187L8.1958 12.4552L8.14817 12.4711L8.13229 12.4552C8.13229 12.4076 8.22755 12.3123 8.27518 12.3123C8.30694 12.3123 8.33869 12.2806 8.35457 12.233L8.38632 12.1218C8.43395 12.0742 8.54509 11.7408 8.54509 11.6773C8.51334 11.6773 8.49746 11.6455 8.49746 11.6296C8.49746 11.6138 8.51334 11.6138 8.52921 11.6138H8.54509C8.56097 11.6138 8.57684 11.582 8.59272 11.5503L8.6086 11.5026C8.6086 11.4709 8.6086 11.4709 8.59272 11.455L8.57684 11.4232L8.59272 11.3915L8.62448 11.3597L8.64035 11.3756C8.64035 11.3915 8.65623 11.3915 8.67211 11.3915H8.68798C8.71974 11.3915 8.73561 11.3756 8.73561 11.3597C8.73561 11.3438 8.70386 11.328 8.67211 11.3121L8.62448 11.2962H8.67211C8.70386 11.2803 8.71974 11.2645 8.71974 11.2327L8.70386 11.1692C8.70386 11.1533 8.71974 11.1374 8.73561 11.1374H8.76737C8.79912 11.1374 8.83088 11.1216 8.83088 11.0898L8.79912 11.0581C8.78325 11.0581 8.76737 11.0422 8.76737 11.0104C8.76737 10.9787 8.79912 10.8993 8.87851 10.7723C8.92614 10.677 8.97377 10.6135 8.98965 10.6135L8.97377 10.677L8.95789 10.7088L8.97377 10.7246H9.00552C9.03728 10.7088 9.06903 10.677 9.06903 10.6294C9.06903 10.6135 9.05315 10.5818 9.0214 10.5818C9.00552 10.5818 9.00552 10.5659 9.00552 10.55V10.5341H9.05315C9.10079 10.5341 9.11666 10.4706 9.11666 10.3754V10.3277L9.13254 10.3595L9.16429 10.3754C9.18017 10.3754 9.18017 10.3754 9.18017 10.3436L9.19605 10.296L9.18017 10.2483L9.24368 10.2166C9.30719 10.2007 9.35482 10.169 9.38657 10.0896C9.40245 10.0419 9.45008 9.96255 9.49771 9.9308L9.52946 9.88316C9.52946 9.86729 9.52946 9.85141 9.49771 9.83553L9.46596 9.81966H9.49771C9.52946 9.81966 9.56122 9.81966 9.56122 9.80378C9.56122 9.7879 9.5771 9.75615 9.60885 9.72439C9.6406 9.69264 9.70411 9.5815 9.75174 9.50212L9.89464 9.29572L9.87876 9.24808C9.87876 9.23221 9.87876 9.23221 9.89464 9.23221L9.92639 9.21633V9.18458L9.95814 9.12107C9.9899 9.10519 9.9899 9.08931 9.9899 9.07344L9.97402 9.04168C9.95814 9.02581 9.94227 9.00993 9.94227 8.99405C9.94227 8.93054 10.0217 8.85116 10.0852 8.85116C10.1169 8.85116 10.1963 8.81941 10.2439 8.77177C10.2916 8.72414 10.3074 8.70827 10.3074 8.69239L10.2439 8.67651C10.2122 8.67651 10.1804 8.66064 10.1804 8.64476L10.2598 8.56537C10.3233 8.50186 10.3551 8.48599 10.3709 8.48599H10.3868L10.3074 8.62888C10.3392 8.62888 10.4662 8.48599 10.6409 8.26371L10.7679 8.13669C10.7996 8.10494 10.8155 8.08906 10.8155 8.07319L10.7679 8.04143C10.7361 8.02555 10.7044 7.9938 10.7044 7.96205C10.7044 7.93029 10.7202 7.91442 10.752 7.89854C10.7679 7.89854 10.8314 7.81915 10.8949 7.72389C10.9584 7.66038 11.006 7.59688 11.0378 7.59688C11.0537 7.59688 11.0537 7.59688 11.0537 7.581V7.56512C11.0537 7.53337 11.0695 7.50161 11.1013 7.46986L11.1489 7.40635C11.1648 7.40635 11.1648 7.43811 11.1648 7.48574V7.53337C11.1648 7.54924 11.1648 7.56512 11.1807 7.56512L11.2759 7.51749L11.2442 7.50161C11.2124 7.50161 11.2124 7.48574 11.2124 7.46986C11.2124 7.39047 11.2918 7.26346 11.4188 7.12057C11.9904 6.50136 12.4985 6.13619 13.0383 5.89804C13.0859 5.88216 13.1177 5.86628 13.1177 5.8504L13.0542 5.80277L13.1335 5.81865L13.1812 5.80277C13.1971 5.75514 13.4828 5.72339 13.6892 5.72339L13.848 5.73927C14.3878 5.88216 14.8165 5.96154 15.0864 6.48549L15.2928 6.89829C15.3722 7.0253 15.404 7.46986 15.404 7.75565C15.404 7.91442 15.3881 8.02555 15.3722 8.02555C15.3563 8.02555 15.3404 8.10494 15.3246 8.21608C15.3087 8.31134 15.2928 8.42248 15.2611 8.45423C15.2452 8.48599 15.2293 8.53362 15.2293 8.56537C15.2293 8.59713 15.2293 8.66063 15.2134 8.67651L15.1658 8.83528L15.0547 9.00993C15.007 9.05756 14.9594 9.1687 14.9435 9.24808C14.9276 9.39098 14.9276 9.39098 14.7689 9.39098C14.626 9.39098 14.6101 9.39098 14.5625 9.31159C14.5307 9.26396 14.4513 9.1687 14.372 9.10519C14.2291 8.97818 14.2291 8.97818 14.2132 8.74002C14.1973 8.5495 14.1973 8.4066 14.1973 8.29546C14.1973 8.16845 14.1973 8.07319 14.2132 7.9938L14.372 7.42223C14.4037 7.34284 14.4037 7.26346 14.4037 7.19995C14.4037 7.13644 14.4037 7.08881 14.3878 7.04118C14.3561 6.99355 14.3402 6.9618 14.2608 6.9618L14.102 6.97767C13.975 6.99355 13.8163 7.00943 13.7686 7.04118L13.5463 7.13644C13.3399 7.2317 13.0224 7.42223 12.9113 7.53337C12.8636 7.59688 12.7684 7.67626 12.7049 7.72389C12.562 7.80328 12.2921 8.10494 12.2921 8.15257V8.16845C12.2921 8.18432 12.2603 8.2002 12.2286 8.21608C12.1968 8.23196 12.165 8.26371 12.165 8.27959V8.29546C12.165 8.32722 12.1492 8.32722 12.1333 8.32722H12.1174C12.1015 8.32722 12.0857 8.3431 12.0857 8.35897C12.0698 8.43836 11.8951 8.66064 11.8316 8.66064C11.7999 8.66064 11.6094 8.88291 11.6094 8.93054C11.5935 8.97818 11.4982 9.13695 11.403 9.24808C11.3394 9.29572 11.2601 9.39098 11.2283 9.42273C11.1807 9.47036 11.1172 9.50212 11.0854 9.51799H11.006C10.9901 9.51799 10.9743 9.54975 10.9584 9.59738C10.9584 9.62913 10.9266 9.66089 10.9108 9.66089C10.8631 9.66089 10.752 9.77203 10.752 9.81966C10.752 9.83553 10.7679 9.83553 10.7837 9.83553C10.8314 9.83553 10.879 9.81966 10.8949 9.7879C10.9108 9.72439 10.9584 9.69264 11.006 9.69264H11.0219L10.9901 9.70852C10.9743 9.72439 10.9743 9.74027 10.9743 9.77203V9.81966C10.9743 9.85141 10.9425 9.89904 10.8949 9.89904L10.8473 9.88316L10.879 9.97843C10.879 9.9943 10.8631 10.0102 10.8473 10.0261C10.8314 10.0419 10.7996 10.0737 10.7996 10.1054C10.7837 10.1372 10.7679 10.1531 10.752 10.1531H10.7361C10.7202 10.1531 10.7202 10.1531 10.7202 10.169V10.1848C10.7202 10.2642 10.6091 10.423 10.5456 10.423C10.5138 10.423 10.4821 10.4389 10.4821 10.4547V10.5341C10.4821 10.55 10.4662 10.5659 10.4186 10.5818H10.3868L10.4027 10.5659C10.4186 10.55 10.4345 10.5182 10.4345 10.4865C10.4345 10.4389 10.498 10.3436 10.5615 10.3277C10.5773 10.3118 10.5773 10.296 10.5773 10.2801L10.625 10.1531L10.6567 10.0896L10.5932 10.1054H10.5615C10.5456 10.1054 10.5297 10.1054 10.5297 10.1213L10.5456 10.169C10.5456 10.2007 10.5297 10.2483 10.5138 10.2642L10.3868 10.4389C10.3551 10.5024 10.3074 10.55 10.2598 10.55C10.2439 10.55 10.2281 10.5659 10.2281 10.5818V10.6294L10.2122 10.6611C10.1963 10.677 10.1804 10.677 10.1804 10.6929L10.1963 10.7564C10.1963 10.804 10.1487 10.8675 10.1169 10.8675C10.101 10.8675 10.101 10.8517 10.101 10.8358V10.7882L10.0693 10.804C10.0534 10.8199 10.0375 10.8358 10.0375 10.8517L10.0534 10.8675C10.0852 10.8675 10.0852 10.8834 10.0852 10.9152C10.0852 10.931 10.0693 10.9787 10.0217 11.0581L9.95814 11.1851L9.92639 11.2645C9.89464 11.2803 9.87876 11.328 9.87876 11.3438L9.89464 11.3756C9.91051 11.3756 9.92639 11.3438 9.95814 11.3121L10.0217 11.2327V11.2803C10.0217 11.3121 10.0058 11.3597 9.9899 11.3756C9.97402 11.3756 9.95814 11.3915 9.95814 11.4074L9.97402 11.5026L9.95814 11.582L9.91051 11.5979C9.89464 11.5979 9.847 11.6296 9.81525 11.6773L9.75174 11.7567L9.7835 11.6614C9.81525 11.5979 9.83113 11.5344 9.83113 11.5185C9.81525 11.5185 9.79937 11.5344 9.7835 11.5661C9.7835 11.5979 9.75174 11.6614 9.71999 11.709C9.70411 11.7408 9.68823 11.7725 9.68823 11.8043C9.68823 11.836 9.70411 11.8519 9.75174 11.8519C9.76762 11.8519 9.7835 11.8519 9.7835 11.8837L9.76762 11.9472C9.73587 12.0266 9.67236 12.1059 9.62473 12.1059C9.60885 12.1059 9.59297 12.1377 9.59297 12.1695C9.59297 12.2012 9.56122 12.2647 9.52946 12.3282C9.49771 12.3759 9.48183 12.4076 9.48183 12.4394L9.49771 12.487C9.49771 12.5664 9.38657 12.8204 9.33894 12.8204C9.32306 12.8204 9.32306 12.8204 9.32306 12.8363V12.8839C9.32306 12.9157 9.30719 12.9474 9.29131 12.9792C9.25956 13.0268 9.2278 13.1221 9.21192 13.2015C9.19605 13.3126 9.16429 13.3444 9.10079 13.3444H9.03728C9.03728 13.3602 9.05315 13.3761 9.08491 13.392C9.10079 13.4237 9.11666 13.4396 9.11666 13.4714C9.11666 13.5031 9.10079 13.5508 9.05315 13.6619C8.95789 13.9318 8.89438 14.1064 8.84675 14.3446C8.815 14.4399 8.78325 14.5193 8.76737 14.5193C8.75149 14.5193 8.75149 14.5669 8.75149 14.5986C8.75149 14.6463 8.75149 14.6939 8.73561 14.6939C8.71974 14.7098 8.71974 14.7574 8.71974 14.805C8.71974 14.8527 8.70386 14.9162 8.68798 14.9321C8.67211 14.9479 8.67211 14.9638 8.67211 14.9956V15.0432C8.67211 15.0908 8.65623 15.1385 8.64035 15.1543C8.62448 15.1702 8.62448 15.202 8.62448 15.2496L8.59272 15.5195L8.54509 15.7577L8.56097 15.7894C8.57684 15.7894 8.59272 15.7894 8.6086 15.7577L8.64035 15.71V15.7894L8.6086 15.9799C8.6086 16.0276 8.59272 16.0593 8.57684 16.0593C8.56097 16.0593 8.56097 16.0434 8.56097 16.0276L8.57684 15.9323H8.56097L8.52921 15.9799C8.49746 16.0117 8.48158 16.0434 8.48158 16.0752C8.48158 16.107 8.51334 16.1228 8.54509 16.1228C8.57684 16.1228 8.59272 16.1546 8.59272 16.2181C8.57684 16.2657 8.57684 16.361 8.57684 16.4404L8.54509 16.6626V16.6785C8.54509 16.6944 8.52921 16.6944 8.51334 16.7103C8.49746 16.7103 8.49746 16.7262 8.49746 16.742C8.49746 16.7579 8.49746 16.7897 8.52921 16.8214L8.56097 16.8849L8.51334 16.9167L8.52921 16.9326C8.54509 16.9484 8.57684 17.0754 8.59272 17.2183C8.6086 17.3771 8.67211 17.5518 8.75149 17.7582C8.92614 18.1233 8.97377 18.2027 9.08491 18.3139C9.18017 18.3774 9.21192 18.3932 9.54534 18.4091C9.89464 18.4091 9.89464 18.4091 10.101 18.298C10.2122 18.2345 10.3392 18.1868 10.3551 18.1868C10.3868 18.1868 10.4186 18.1551 10.4345 18.1392C10.4503 18.1233 10.4662 18.1075 10.4821 18.1075H10.498C10.5138 18.1075 10.5297 18.1075 10.5297 18.0916C10.5297 18.0757 10.5456 18.0598 10.5615 18.0598C10.5932 18.0598 10.625 18.0281 10.625 18.0122C10.625 17.9804 10.6567 17.9646 10.6885 17.9646C10.7044 17.9646 10.7202 17.9487 10.7202 17.9328L10.7044 17.9011H10.8631C10.8631 17.8852 10.9108 17.8058 10.9743 17.7423C11.0378 17.6629 11.0695 17.5835 11.0695 17.5676L11.0854 17.5041C11.1172 17.4883 11.133 17.4406 11.133 17.4247V17.393H11.1648C11.1807 17.393 11.2124 17.3771 11.2442 17.3454L11.3394 17.2977H11.3553V17.2819C11.3553 17.2501 11.3712 17.2342 11.3871 17.2342H11.403C11.403 17.2342 11.4188 17.2183 11.4188 17.1866C11.4188 17.1548 11.4188 17.139 11.403 17.139L11.2759 17.2501L11.3236 17.1866C11.3712 17.1231 11.4188 17.0913 11.4506 17.0913C11.4665 17.0913 11.4823 17.1072 11.4823 17.139C11.4823 17.1707 11.4823 17.1707 11.4982 17.1707L11.5617 17.139L11.5935 17.1548C11.6094 17.1548 11.6094 17.1548 11.6094 17.139V17.1231C11.6094 17.0754 11.6729 16.9643 11.7681 16.8532L11.7999 16.7738L11.784 16.742C11.784 16.6944 11.8951 16.5515 11.9428 16.5515H11.9586C11.9745 16.5515 11.9745 16.5356 11.9745 16.5198V16.5039C11.9745 16.488 11.9745 16.488 11.9904 16.488C12.0222 16.488 12.3397 16.1546 12.3397 16.1228C12.3397 16.0911 12.4826 15.9323 12.5143 15.9323C12.5302 15.9323 12.562 15.8847 12.5937 15.8212C12.6255 15.7577 12.7049 15.6465 12.7684 15.5671C12.8319 15.4719 12.8636 15.3766 12.8636 15.329C12.8636 15.3131 12.8478 15.2972 12.8319 15.2972C12.816 15.2972 12.816 15.2972 12.816 15.2813L12.8319 15.2496L12.8636 15.2178C12.8795 15.2178 12.8795 15.2178 12.8954 15.2496C12.8954 15.2655 12.9113 15.2813 12.9271 15.2813L12.9907 15.2337C13.0383 15.1861 13.0859 15.1385 13.1018 15.0908L13.1177 15.0432L13.07 15.0908L13.0065 15.1226H12.9907L13.0224 15.0591C13.0542 15.0273 13.0859 14.9797 13.0859 14.9479C13.0859 14.9321 13.1018 14.9162 13.1335 14.9162C13.1494 14.9162 13.1653 14.9321 13.1653 14.9479V14.9638L13.1812 14.9797C13.1971 14.9797 13.2288 14.9479 13.2447 14.9162C13.2447 14.8844 13.2764 14.8368 13.3082 14.805C13.3241 14.7733 13.3399 14.7574 13.3558 14.7574L13.3876 14.7892L13.4193 14.805L13.4035 14.7415C13.4035 14.6621 13.4987 14.5034 13.5463 14.5034H13.5622C13.5781 14.5034 13.6099 14.4716 13.6416 14.424L13.6892 14.3128L13.6734 14.2811C13.6734 14.2493 13.6892 14.2335 13.721 14.1858L13.7845 14.1064V14.2335L13.8004 14.2176C13.8163 14.2176 13.8163 14.1858 13.8163 14.17V14.0747C13.8163 14.0429 13.8321 14.0271 13.8798 13.9953C13.9274 13.9636 13.9591 13.9477 13.9591 13.9318C13.9591 13.8524 14.1338 13.5666 14.1655 13.5666H14.2608C14.2926 13.5666 14.3084 13.5349 14.3084 13.4872V13.4079C14.3084 13.3761 14.3243 13.3444 14.3402 13.3285C14.3561 13.3126 14.372 13.2967 14.372 13.2808V13.265L14.499 13.0268C14.5466 12.9316 14.5942 12.8363 14.5942 12.8045V12.7887L14.5625 12.8204C14.5466 12.8998 14.3561 13.1856 14.3084 13.2015H14.2926L14.2767 13.1856C14.2767 13.138 14.4037 12.9633 14.6101 12.6934C14.6736 12.614 14.753 12.4711 14.7689 12.4076L14.8165 12.2647V12.2488L14.7848 12.2647C14.753 12.2806 14.6895 12.2965 14.626 12.2965C14.5148 12.3123 14.0544 12.4076 13.7845 12.487C13.6892 12.5187 13.594 12.5505 13.5622 12.5505C13.5146 12.5664 13.4193 12.5823 13.3399 12.614C13.2288 12.6458 13.1177 12.6616 13.0065 12.6616C12.8636 12.6616 12.7207 12.6299 12.6255 12.5823C12.5461 12.5346 12.4667 12.4711 12.4508 12.4394C12.435 12.4076 12.4032 12.3759 12.3714 12.3759C12.3556 12.3759 12.3238 12.36 12.3238 12.3282C12.3238 12.2965 12.3079 12.2806 12.2921 12.2806C12.2762 12.2806 12.2286 12.2171 12.1968 12.1218C12.1492 12.0424 12.1015 11.9472 12.0698 11.9313C12.038 11.8995 12.0222 11.8678 12.0222 11.836C12.0063 11.8043 12.0063 11.7725 11.9904 11.7567C11.9745 11.7249 11.9586 11.6455 11.9586 11.5661C11.9586 11.4867 11.9745 11.4074 11.9904 11.3915C12.0222 11.3756 12.1174 11.3438 12.2286 11.3438L13.6416 11.0581L14.0227 10.9946H14.0544C14.0703 10.9946 14.0703 10.9946 14.0703 10.9787C14.0703 10.9628 14.1179 10.9469 14.1973 10.9469H14.2608C14.3878 10.9469 14.5625 10.9152 14.5784 10.8675C14.5942 10.8517 14.6577 10.8358 14.7371 10.8358C14.8165 10.8358 14.8959 10.804 14.9276 10.7882C14.9435 10.7723 14.9912 10.7564 15.0388 10.7564H15.0864C15.1499 10.7564 15.2134 10.7564 15.2293 10.7405C15.2611 10.7088 15.3722 10.6929 15.4516 10.6929C15.4833 10.6929 15.4992 10.6929 15.4992 10.7088C15.4992 10.7246 15.4992 10.7405 15.531 10.7405C15.5468 10.7405 15.5468 10.7246 15.5468 10.7088V10.6929C15.5468 10.6611 15.5786 10.6453 15.6739 10.6453H15.8009C15.8961 10.6453 15.9279 10.6453 15.9279 10.5976C15.9279 10.5659 15.9438 10.55 15.9914 10.55C16.0232 10.55 16.0549 10.5659 16.0549 10.5818C16.0549 10.5976 16.0708 10.5976 16.1025 10.5976C16.1343 10.5818 16.1343 10.5818 16.1343 10.5659L16.1025 10.55V10.5341L16.2772 10.55C16.2931 10.55 16.3089 10.5341 16.3089 10.5182V10.4865L16.3248 10.5182C16.3407 10.5341 16.3566 10.5341 16.3883 10.5341C16.4201 10.5341 16.436 10.5182 16.436 10.5024V10.4547C16.436 10.4389 16.4836 10.423 16.5789 10.4071L16.8329 10.3754C16.8805 10.3595 16.9599 10.3595 17.0075 10.3595C17.071 10.3595 17.1187 10.3436 17.1187 10.3277C17.1187 10.3118 17.1504 10.296 17.1822 10.2801L17.2457 10.2483V10.2801C17.2457 10.3118 17.2616 10.3277 17.2774 10.3277C17.2933 10.3277 17.3092 10.3118 17.3092 10.2801C17.3092 10.2483 17.5315 10.169 17.6585 10.169H17.7061L17.6744 10.2007L17.6585 10.2325L17.6902 10.2166C17.7379 10.2007 17.8649 10.1848 18.0078 10.1848H18.1348C18.2301 10.1848 18.2777 10.2007 18.3094 10.2166L18.3571 10.2483C18.373 10.2483 18.373 10.2325 18.373 10.2007C18.3888 10.1531 18.4047 10.1531 18.4682 10.1531C18.5158 10.169 18.5317 10.169 18.5317 10.1848L18.4523 10.2166C18.4523 10.2325 18.4682 10.2325 18.5158 10.2325C18.5476 10.2325 18.5794 10.2166 18.5794 10.2007V10.1848C18.5794 10.1531 18.627 10.1213 18.6905 10.1213C18.754 10.1213 18.8334 10.1531 18.8651 10.2007C18.8969 10.2325 19.0239 10.2483 19.1668 10.2642C19.2144 10.2642 19.2621 10.2801 19.2621 10.296L19.405 10.4547C19.4843 10.5182 19.5479 10.5976 19.5479 10.6135C19.5479 10.6294 19.5796 10.7405 19.6431 10.804V10.8358C19.6431 10.8517 19.6272 10.8675 19.5796 10.8834C19.5161 10.8993 19.4843 10.9152 19.4843 10.9469L19.5161 10.9946L19.6114 10.9787V11.0104C19.6114 11.0104 19.6114 11.0263 19.6272 11.0263L19.659 11.0422L19.6431 11.0581C19.6272 11.0739 19.5161 11.0898 19.405 11.1057C19.2779 11.1216 19.1668 11.1374 19.1509 11.1533C19.1351 11.1692 19.0398 11.201 18.9604 11.201C18.881 11.2168 18.7699 11.2486 18.7064 11.2803L18.5952 11.2962C18.5794 11.2962 18.5635 11.2962 18.5476 11.2803L18.5317 11.2486L18.5 11.2803C18.5 11.2962 18.3571 11.328 18.1983 11.3597C18.0395 11.3756 17.9125 11.3915 17.8966 11.4074H17.8173C17.7855 11.4074 17.7855 11.4232 17.7855 11.4232C17.7855 11.4391 17.849 11.4709 17.9125 11.4709H17.976V11.4867C17.9443 11.5185 17.7538 11.5661 17.5474 11.582L16.7376 11.7725C16.4836 11.8202 16.2613 11.8837 16.2137 11.9313C16.1819 11.9472 16.1502 11.9631 16.1184 11.9631H16.0867C16.0708 11.9631 16.0549 11.9631 16.0549 11.9789V11.9948C16.0549 12.0107 16.0549 12.0266 16.0708 12.0266C16.0867 12.0266 16.1184 12.0583 16.1184 12.1059C16.1184 12.1536 16.1502 12.2012 16.1661 12.2012C16.2772 12.2647 16.3883 12.5346 16.3883 12.6934C16.3883 12.741 16.3725 12.7887 16.3566 12.8045C16.3407 12.8204 16.3407 12.8839 16.3407 12.9315L16.3248 13.0586L16.2454 13.3285C16.2296 13.4555 16.1978 13.5666 16.1819 13.5666C16.1661 13.5666 16.1661 13.5825 16.1661 13.6301V13.6778C16.1661 13.7413 16.1502 13.8207 16.1343 13.8365V13.8842L16.1184 14.1223L16.1025 14.3605C16.1025 14.3922 16.0867 14.4716 16.0549 14.5351C16.039 14.5828 16.0232 14.6304 16.0232 14.678L16.039 14.7733L16.0073 14.8209C15.9914 14.8527 15.9597 14.8844 15.9597 14.9162C15.9438 14.9479 15.912 14.9797 15.8961 14.9797C15.8644 14.9797 15.8485 14.9956 15.8485 15.0114C15.8485 15.0273 15.8644 15.0273 15.8803 15.0273C15.8961 15.0273 15.912 15.0749 15.912 15.1385V15.1861C15.912 15.2337 15.912 15.2655 15.8961 15.2813C15.8803 15.2972 15.8803 15.329 15.8803 15.3607C15.8803 15.3925 15.8961 15.4084 15.912 15.4084L15.9438 15.3925V15.4242C15.9279 15.456 15.912 15.5036 15.912 15.5354C15.912 15.5513 15.8803 15.583 15.8644 15.583H15.8485L15.8644 15.6148C15.8961 15.6306 15.912 15.6465 15.912 15.6624L15.8961 15.71C15.8803 15.7418 15.8644 15.8053 15.8644 15.8529V15.9006C15.8644 15.9164 15.8644 15.9482 15.8485 15.9482L15.8326 15.9799L15.8803 16.0593L15.8485 16.1228L15.8168 16.2181L15.8009 16.3134C15.785 16.3451 15.7691 16.4404 15.7691 16.5198C15.7533 16.5991 15.7374 16.6785 15.7215 16.6785C15.7056 16.6785 15.7056 16.6944 15.7056 16.7103C15.7056 16.7262 15.6897 16.7738 15.658 16.7897L15.6262 16.8214V16.8373L15.6897 16.8214C15.7056 16.8214 15.7056 16.8373 15.7056 16.9008C15.7056 16.9643 15.6897 17.0754 15.658 17.139L15.6262 17.3612L15.6104 17.5359L15.5786 17.6629C15.5627 17.6947 15.5627 17.774 15.5627 17.8375V17.8852C15.5627 17.9328 15.5627 17.9646 15.5468 17.9646C15.531 17.9804 15.5151 18.0757 15.5151 18.2027C15.4992 18.3139 15.4833 18.4091 15.4675 18.4091C15.4516 18.4091 15.4357 18.3774 15.4357 18.3297L15.4675 17.9328L15.4833 17.8852H15.4675L15.4198 17.9328L15.3881 18.0122V18.0281C15.404 18.0439 15.404 18.0757 15.404 18.1233C15.404 18.1868 15.3881 18.2662 15.3722 18.2662C15.3246 18.2662 15.2928 18.298 15.2928 18.3456V18.3774C15.3087 18.4091 15.3246 18.4409 15.3404 18.4409C15.3563 18.4409 15.3722 18.4567 15.3722 18.4726V18.4885H15.3563C15.3404 18.4885 15.3404 18.4885 15.3404 18.5203V18.552C15.3404 18.5996 15.3563 18.6155 15.3722 18.6155C15.3881 18.6155 15.404 18.5996 15.404 18.552C15.404 18.5044 15.4357 18.4726 15.4516 18.4726C15.4675 18.4726 15.4675 18.4885 15.4675 18.5203C15.4516 18.552 15.4516 18.679 15.4357 18.806C15.4198 18.9648 15.404 19.076 15.3881 19.076L15.3722 19.0124C15.3563 18.9648 15.3404 18.9172 15.3246 18.9172C15.3087 18.9172 15.3087 18.9331 15.3087 18.9648V18.9966C15.3087 19.0442 15.2928 19.076 15.2769 19.076L15.2611 19.0918L15.3404 19.1553L15.4198 19.1077L15.4357 19.1395L15.4198 19.1871C15.3881 19.2188 15.3881 19.2665 15.3722 19.2824V19.33C15.3563 19.3617 15.3563 19.5523 15.3563 19.6158V19.6475C15.3563 19.6634 15.3563 19.6952 15.3404 19.6952C15.3087 19.6952 15.3087 19.6475 15.3087 19.5681L15.3246 19.2188L15.2293 19.4094L15.1976 19.4411L15.2452 19.4729L15.2293 19.5205L15.2134 19.5999C15.2134 19.6316 15.2134 19.6475 15.2452 19.6634C15.2611 19.6634 15.2611 19.6793 15.2611 19.6952L15.2293 19.7904C15.1976 19.8539 15.1817 19.9333 15.1817 19.9651C15.1817 19.9968 15.1817 20.0127 15.1976 20.0127L15.2452 19.9492V19.9651L15.2769 19.9492L15.2928 19.9174C15.3087 19.9174 15.3087 19.9492 15.3087 20.0127V20.0762L15.2611 20.0127C15.2452 20.0127 15.2293 20.0445 15.2293 20.0921V20.1238C15.2293 20.1556 15.2293 20.1873 15.2134 20.1873H15.1976C15.1658 20.1873 15.1658 20.2191 15.1658 20.3461C15.1817 20.4573 15.1976 20.5049 15.2293 20.5049H15.2452C15.2611 20.5049 15.2769 20.5366 15.2769 20.5684L15.2452 20.6319H15.2293L15.1817 20.616C15.1658 20.616 15.1658 20.6795 15.1658 20.8224V20.9494C15.1658 21.0288 15.1658 21.0765 15.1499 21.0765L15.0864 21.1082C15.0705 21.1241 15.0547 21.1241 15.0229 21.1241V21.1241ZM12.4826 6.10444C12.5143 6.05681 12.7207 5.94567 12.7843 5.94567H12.8001L12.6255 6.05681C12.562 6.08856 12.4985 6.10444 12.4826 6.10444ZM11.9269 6.51724H11.911L11.9428 6.46961C11.9904 6.42198 12.0539 6.39022 12.0698 6.39022C12.0698 6.4061 12.0063 6.46961 11.9269 6.51724V6.51724ZM11.5935 6.83478V6.8189L11.6411 6.75539L11.6729 6.73952L11.657 6.77127C11.6252 6.8189 11.6094 6.83478 11.5935 6.83478V6.83478ZM11.4347 7.32697L11.4665 7.29521L11.4982 7.19995H11.4823L11.4506 7.21583C11.4347 7.2317 11.4188 7.27934 11.4188 7.31109C11.4188 7.32697 11.4188 7.32697 11.4347 7.32697V7.32697ZM12.5778 7.72389C12.5937 7.72389 12.6414 7.69214 12.689 7.64451C12.7207 7.61275 12.7366 7.581 12.7366 7.56512C12.7207 7.56512 12.6731 7.59688 12.6255 7.64451C12.5937 7.67626 12.562 7.70801 12.562 7.72389H12.5778ZM10.9584 7.7874C10.9901 7.7874 11.0219 7.77152 11.0378 7.73977L11.0695 7.69214C11.0695 7.67626 11.0537 7.66038 11.0219 7.66038C11.006 7.66038 10.9743 7.67626 10.9584 7.70801L10.9108 7.77152C10.9108 7.7874 10.9266 7.7874 10.9584 7.7874V7.7874ZM12.3556 7.91442L12.3873 7.89854C12.435 7.88266 12.4667 7.83503 12.4985 7.80328L12.5143 7.75565C12.4985 7.75565 12.4508 7.7874 12.4032 7.85091L12.3556 7.91442ZM11.5141 7.88266C11.53 7.88266 11.5458 7.86678 11.5458 7.85091L11.5617 7.83503L11.5458 7.81915L11.5141 7.85091V7.88266V7.88266ZM10.8155 8.00968C10.8314 8.00968 10.8473 8.00968 10.8473 7.97792L10.8155 7.94617C10.7837 7.94617 10.7837 7.96205 10.7837 7.97792C10.7837 8.00968 10.7996 8.00968 10.8155 8.00968ZM12.1174 8.15257C12.1492 8.15257 12.2921 8.04143 12.3079 7.9938V7.96205C12.2921 7.96205 12.2921 7.96205 12.2603 7.9938C12.1333 8.10494 12.1174 8.13669 12.1174 8.15257V8.15257ZM10.5615 8.21608L10.5773 8.15257C10.5773 8.12082 10.625 8.07319 10.6409 8.04143H10.6567L10.6409 8.10494L10.5615 8.21608ZM11.3236 8.12082L11.3553 8.08906V8.04143C11.3394 8.04143 11.3236 8.05731 11.3236 8.08906L11.3077 8.10494L11.3236 8.12082ZM11.403 8.59713C11.4188 8.59713 11.4506 8.56537 11.5141 8.50186C11.5935 8.42248 11.6411 8.34309 11.6411 8.32722C11.6411 8.29546 11.6887 8.26371 11.7364 8.23196C11.784 8.2002 11.8158 8.15257 11.8158 8.13669C11.8158 8.12082 11.8158 8.12082 11.7999 8.12082C11.7681 8.12082 11.4823 8.45423 11.4347 8.5495L11.403 8.59713ZM11.2759 8.18432C11.3077 8.18432 11.3077 8.16845 11.3077 8.15257H11.2601V8.16845L11.2759 8.18432ZM12.0857 8.23196C12.0857 8.21608 12.0857 8.2002 12.0698 8.18432C12.0539 8.18432 12.0539 8.18432 12.0539 8.21608L12.0698 8.23196H12.0857ZM10.3551 8.43836L10.3392 8.42248L10.4186 8.34309V8.37485C10.4027 8.4066 10.3868 8.43836 10.3551 8.43836ZM10.7044 8.86704C10.752 8.86704 10.9425 8.66064 10.9425 8.59713C10.9425 8.58125 10.9584 8.56537 10.9743 8.56537C11.0219 8.56537 11.0854 8.48599 11.1013 8.4066V8.34309L11.0854 8.37485C11.0695 8.4066 11.0219 8.43836 11.006 8.43836C10.9743 8.43836 10.9425 8.47011 10.9266 8.51774C10.9108 8.5495 10.8949 8.58125 10.879 8.58125H10.8631C10.8473 8.58125 10.8314 8.58125 10.8314 8.59713V8.613L10.8473 8.62888H10.8631C10.8631 8.64476 10.8314 8.67651 10.7837 8.70827C10.7044 8.7559 10.6726 8.78765 10.6726 8.81941L10.7044 8.86704ZM11.911 8.53362C11.9269 8.53362 11.9586 8.51774 11.9745 8.48599C12.0063 8.45423 12.0063 8.43836 12.0063 8.42248C12.0063 8.4066 12.0063 8.4066 11.9745 8.4066C11.9586 8.4066 11.9586 8.4066 11.9586 8.42248V8.45423C11.9586 8.47011 11.9428 8.50186 11.911 8.50186L11.8951 8.51774L11.911 8.53362ZM11.2442 8.83528L11.2918 8.77177C11.3394 8.70827 11.3553 8.67651 11.3553 8.66064L11.2601 8.69239C11.2283 8.70827 11.2124 8.72414 11.2124 8.7559V8.78765C11.2124 8.81941 11.2283 8.83528 11.2442 8.83528ZM11.4982 8.93054L11.5935 8.83528C11.6411 8.77177 11.6887 8.70827 11.6887 8.69239C11.6887 8.67651 11.6729 8.67651 11.6729 8.67651H11.6252C11.5935 8.69239 11.5776 8.70827 11.5776 8.72414V8.74002C11.5776 8.77177 11.5617 8.80353 11.5458 8.81941C11.5141 8.85116 11.4823 8.89879 11.4823 8.91467L11.4982 8.93054ZM10.1328 8.78765L10.101 8.77177L10.1169 8.74002C10.1328 8.72414 10.1487 8.70827 10.1804 8.70827L10.1963 8.74002C10.1963 8.77177 10.1804 8.78765 10.1328 8.78765ZM11.0378 9.07344L11.0695 9.05756C11.1013 9.04168 11.133 9.00993 11.1489 8.97818L11.1648 8.93054L11.1489 8.91467C11.133 8.91467 11.0854 8.94642 11.0537 9.00993L11.0378 9.07344ZM10.3709 9.3751C10.3868 9.3751 10.4027 9.35922 10.4027 9.34335V9.32747C10.4027 9.29572 10.4503 9.24808 10.5138 9.20045L10.625 9.10519V9.08931C10.625 9.07344 10.6409 9.07344 10.6567 9.05756C10.6885 9.04168 10.6885 9.00993 10.6885 8.99405C10.6885 8.9623 10.6885 8.94642 10.6726 8.94642C10.6409 8.94642 10.3709 9.26396 10.3709 9.29572C10.3709 9.31159 10.3551 9.32747 10.3392 9.32747L10.3233 9.34335L10.3392 9.35922C10.3392 9.3751 10.3551 9.3751 10.3709 9.3751V9.3751ZM11.3236 9.1687C11.3394 9.1687 11.3553 9.15282 11.3871 9.12107C11.4188 9.08931 11.4347 9.04168 11.4347 9.00993C11.4347 8.99405 11.4188 8.97818 11.403 8.97818C11.3871 8.97818 11.3553 9.02581 11.3394 9.07344L11.3077 9.15282L11.3236 9.1687ZM10.4027 9.10519L10.4186 9.07344L10.4027 9.05756C10.4027 9.05756 10.4027 9.04168 10.3868 9.04168V9.07344L10.4027 9.10519ZM10.9266 9.24808L10.9584 9.21633L10.9901 9.15282L10.9584 9.13695C10.9425 9.15282 10.9108 9.18458 10.9108 9.21633C10.9108 9.23221 10.9108 9.24808 10.9266 9.24808V9.24808ZM10.3392 10.1054C10.3551 10.1054 10.4027 10.0578 10.4503 10.0102C10.4821 9.94667 10.5297 9.85141 10.5773 9.7879L10.7202 9.56562C10.7679 9.51799 10.7996 9.45449 10.7996 9.42273L10.7837 9.3751L10.7202 9.42273C10.7044 9.45449 10.6726 9.47036 10.6567 9.47036H10.6409C10.625 9.47036 10.6091 9.48624 10.5773 9.51799L10.5615 9.56562L10.625 9.54975C10.625 9.54975 10.6409 9.54975 10.6409 9.56562C10.6409 9.59738 10.6091 9.66089 10.5456 9.72439C10.498 9.77203 10.4821 9.7879 10.4662 9.7879L10.4503 9.72439L10.4186 9.77203C10.4186 9.80378 10.4186 9.83553 10.4345 9.85141L10.4503 9.88316L10.4186 9.9308C10.3392 10.0102 10.3074 10.0578 10.3074 10.0896L10.3392 10.1054ZM11.006 9.64501L11.0219 9.59738C11.0378 9.5815 11.0537 9.56562 11.0695 9.56562C11.0854 9.56562 11.1013 9.56562 11.1172 9.5815V9.59738L11.0695 9.62913L11.006 9.64501ZM9.70411 9.74027L9.73587 9.70852C9.73587 9.69264 9.73587 9.67676 9.70411 9.67676L9.67236 9.70852C9.68823 9.74027 9.68823 9.74027 9.70411 9.74027ZM10.0852 9.9308C10.101 9.91492 10.101 9.86729 10.101 9.83553C10.101 9.7879 10.101 9.77203 10.0852 9.77203H10.0693L10.0375 9.7879C9.9899 9.81966 9.95814 9.86729 9.95814 9.89904H10.0217C10.0375 9.89904 10.0534 9.89904 10.0534 9.91492C10.0534 9.9308 10.0693 9.9308 10.0852 9.9308V9.9308ZM10.2122 9.88316C10.2281 9.88316 10.2439 9.85141 10.2439 9.83553L10.2122 9.7879C10.1963 9.7879 10.1804 9.80378 10.1804 9.83553L10.2122 9.88316ZM10.7361 9.96255C10.752 9.96255 10.7837 9.9308 10.7837 9.91492C10.7837 9.89904 10.7837 9.88316 10.7679 9.88316H10.752C10.7361 9.88316 10.7044 9.91492 10.7044 9.9308C10.7044 9.94667 10.7044 9.96255 10.7202 9.96255H10.7361ZM9.37069 9.96255L9.35482 9.94667V9.91492L9.38657 9.9308L9.37069 9.96255ZM18.3094 10.1213H18.2936C18.2936 10.1213 18.2777 10.1213 18.2777 10.1054C18.2777 10.0896 18.2777 10.0737 18.2936 10.0737C18.3094 10.0896 18.3094 10.1054 18.3094 10.1213ZM18.9604 10.1848H18.9445C18.9445 10.1848 18.9287 10.1848 18.9287 10.169C18.9287 10.1531 18.9287 10.1372 18.9445 10.1372C18.9604 10.1531 18.9604 10.169 18.9604 10.1848ZM9.83113 10.2642C9.847 10.2642 9.86288 10.2325 9.87876 10.2166V10.1372C9.87876 10.1372 9.86288 10.1372 9.847 10.169C9.81525 10.2007 9.79937 10.2166 9.79937 10.2325C9.79937 10.2483 9.81525 10.2642 9.83113 10.2642ZM9.68823 11.2168C9.71999 11.2168 9.73587 11.201 9.75174 11.1692L9.83113 11.0422C9.86288 11.0104 9.86288 10.9628 9.86288 10.9469L9.847 10.9152H9.87876C9.89464 10.9152 9.91051 10.8834 9.94227 10.8517L10.0058 10.7088C10.0375 10.677 10.0693 10.5976 10.0852 10.55L10.2122 10.3118C10.2598 10.2483 10.2916 10.1848 10.2916 10.1531C10.2757 10.1531 10.2439 10.2007 10.1963 10.2642C10.1645 10.3277 10.1169 10.3912 10.0852 10.4071C10.0693 10.4071 10.0534 10.423 10.0534 10.4547V10.4706C10.0534 10.55 9.91051 10.7723 9.86288 10.7723L9.847 10.7564C9.81525 10.7564 9.76762 10.8199 9.76762 10.8675V10.9152C9.76762 10.9787 9.73587 11.0898 9.70411 11.0898V11.0422C9.70411 11.0263 9.70411 10.9946 9.68823 10.9946C9.67236 10.9946 9.65648 11.0263 9.65648 11.0422C9.65648 11.0739 9.6406 11.1057 9.62473 11.1216L9.59297 11.1533C9.59297 11.1692 9.60885 11.1851 9.62473 11.201L9.68823 11.2168ZM17.3886 10.3277C17.4045 10.3277 17.4045 10.3118 17.4203 10.296V10.2801C17.4203 10.2642 17.4203 10.2642 17.4045 10.2642C17.3886 10.2642 17.3727 10.2801 17.3727 10.296L17.3886 10.3277ZM17.2933 10.423L17.341 10.4071L17.2933 10.3912C17.2774 10.3912 17.2616 10.3912 17.2457 10.4071C17.2457 10.4071 17.2616 10.423 17.2933 10.423ZM17.0393 10.4547L17.1663 10.423L17.1822 10.3912H17.1345L17.0393 10.4389V10.4547V10.4547ZM16.4518 10.6294C16.4836 10.6135 16.4995 10.5976 16.4995 10.5818C16.4995 10.5659 16.4995 10.5659 16.4836 10.5659C16.4677 10.5659 16.4518 10.5659 16.436 10.5818L16.3883 10.6135V10.6294H16.4518ZM16.1343 10.677L16.1502 10.6611V10.6453C16.1502 10.6294 16.1502 10.6135 16.1343 10.6135L16.1025 10.6453C16.1025 10.6611 16.1025 10.677 16.1343 10.677V10.677ZM16.2772 10.677V10.6611L16.2454 10.6453L16.1978 10.6611C16.1978 10.677 16.2137 10.677 16.2454 10.677H16.2772ZM9.65648 10.7088C9.67236 10.7088 9.68823 10.7088 9.68823 10.6929L9.65648 10.6611H9.62473V10.677C9.62473 10.6929 9.6406 10.7088 9.65648 10.7088V10.7088ZM10.3074 10.7405L10.3233 10.7088C10.3392 10.6929 10.3551 10.677 10.3709 10.677V10.6929C10.3709 10.7088 10.3551 10.7088 10.3392 10.7246L10.3074 10.7405ZM9.54534 10.7723L9.56122 10.7405L9.54534 10.7088C9.54534 10.6929 9.54534 10.6929 9.52946 10.6929V10.7246C9.52946 10.7564 9.54534 10.7723 9.54534 10.7723V10.7723ZM9.46596 10.804C9.49771 10.804 9.49771 10.7882 9.49771 10.7723C9.49771 10.7564 9.49771 10.7405 9.48183 10.7405L9.45008 10.7723C9.45008 10.7882 9.45008 10.804 9.46596 10.804V10.804ZM9.4342 10.8993L9.45008 10.8675L9.41833 10.8517V10.8675C9.41833 10.8993 9.4342 10.8993 9.4342 10.8993V10.8993ZM19.3415 10.9628L19.3732 10.9469L19.3891 10.8834H19.3732C19.3573 10.8834 19.3573 10.8993 19.3415 10.931V10.9628V10.9628ZM10.1328 11.0263L10.1487 10.9469L10.2122 10.8834V10.8993C10.2122 10.931 10.1645 11.0263 10.1328 11.0263ZM9.38657 10.9946L9.40245 10.9628L9.37069 10.9469C9.37069 10.9469 9.35482 10.9469 9.35482 10.9628C9.37069 10.9946 9.37069 10.9946 9.38657 10.9946ZM18.6746 11.0581C18.6905 11.0581 18.7064 11.0581 18.7064 11.0422L18.6587 11.0104L18.627 11.0263C18.6429 11.0422 18.6587 11.0581 18.6746 11.0581ZM9.95814 11.0581C9.9899 11.0581 10.0058 11.0581 10.0058 11.0422H9.94227L9.92639 11.0581H9.95814V11.0581ZM18.7699 11.1692C18.8016 11.1692 18.8334 11.1533 18.8334 11.1374V11.1216C18.8334 11.1057 18.8334 11.1057 18.8175 11.1057L18.7222 11.1216V11.1533C18.7381 11.1692 18.754 11.1692 18.7699 11.1692ZM18.103 11.2486V11.2327H18.0554V11.2486H18.103ZM9.52946 11.5026L9.59297 11.455C9.62473 11.4232 9.6406 11.3597 9.6406 11.328V11.3121C9.6406 11.2803 9.6406 11.2803 9.62473 11.2803C9.60885 11.2803 9.59297 11.2962 9.5771 11.328C9.52946 11.3756 9.51359 11.4391 9.51359 11.4709C9.51359 11.4867 9.51359 11.5026 9.52946 11.5026V11.5026ZM9.18017 11.3597C9.19605 11.3597 9.21192 11.328 9.21192 11.3121C9.21192 11.2962 9.19605 11.2803 9.16429 11.2803C9.14842 11.2803 9.14842 11.3121 9.14842 11.3438L9.16429 11.3597H9.18017V11.3597ZM17.5315 11.3438V11.328H17.4838C17.4838 11.3438 17.4838 11.3438 17.5156 11.3438H17.5315ZM8.815 11.4074L8.83088 11.3756L8.815 11.3597C8.79912 11.3597 8.79912 11.3597 8.79912 11.3756L8.815 11.4074ZM17.6585 11.4867C17.6902 11.4867 17.722 11.4709 17.722 11.455H17.6585C17.6109 11.455 17.595 11.455 17.595 11.4709C17.595 11.4867 17.6109 11.4867 17.6267 11.4867H17.6585V11.4867ZM17.2933 11.5661C17.341 11.5661 17.3886 11.5661 17.4362 11.5503C17.468 11.5503 17.4997 11.5185 17.5156 11.5026C17.5156 11.4709 17.5156 11.4709 17.4997 11.4709L17.4203 11.4867L17.2616 11.5661H17.2933ZM17.0869 11.6138L17.1504 11.5979C17.1504 11.582 17.1187 11.582 17.0869 11.5661H17.0393L17.0234 11.582C17.0234 11.5979 17.0552 11.6138 17.0869 11.6138ZM16.9599 11.6455C16.9917 11.6455 16.9917 11.6296 16.9917 11.6138C16.9917 11.5979 16.9917 11.582 16.9758 11.582L16.944 11.6138C16.944 11.6296 16.944 11.6455 16.9599 11.6455ZM9.21192 12.2171C9.2278 12.2171 9.27543 12.1377 9.32306 12.0266C9.40245 11.8678 9.4342 11.8043 9.4342 11.7567L9.40245 11.7408C9.40245 11.7249 9.41833 11.709 9.4342 11.6931C9.49771 11.6614 9.51359 11.6455 9.51359 11.6138C9.51359 11.5979 9.49771 11.582 9.45008 11.582C9.38657 11.5979 9.35482 11.6138 9.35482 11.6614L9.37069 11.7725C9.37069 11.7884 9.35482 11.8043 9.32306 11.8202C9.29131 11.836 9.27543 11.8519 9.27543 11.8678V11.9154L9.24368 12.0424L9.19605 12.1853L9.21192 12.2171ZM9.14842 11.6931C9.16429 11.6931 9.18017 11.6773 9.18017 11.6455C9.18017 11.6138 9.14842 11.6138 9.10079 11.6138C9.06903 11.6138 9.05315 11.6138 9.05315 11.6296L9.08491 11.6614L9.14842 11.6931ZM16.7376 11.709L16.7853 11.6931C16.7853 11.6773 16.7694 11.6614 16.7376 11.6614H16.7217C16.7217 11.6614 16.7059 11.6614 16.7059 11.6773V11.6931L16.7376 11.709ZM16.6106 11.709L16.6424 11.6931V11.6773H16.5789L16.563 11.6931L16.6106 11.709ZM16.1184 11.8519C16.1343 11.836 16.1819 11.836 16.2137 11.836C16.2613 11.836 16.2772 11.8202 16.2772 11.8043L16.2454 11.7884H16.1661C16.1025 11.8043 16.0549 11.8202 16.0549 11.836C16.0549 11.8519 16.0708 11.8519 16.0867 11.8519H16.1184V11.8519ZM9.5771 11.9313V11.8202H9.54534L9.52946 11.8519L9.54534 11.8995L9.5771 11.9313ZM9.37069 12.2965C9.40245 12.2965 9.48183 12.2488 9.52946 12.2012L9.54534 12.1695L9.52946 12.1536C9.49771 12.1536 9.37069 12.2647 9.37069 12.2965V12.2965ZM9.18017 12.3123C9.19605 12.3123 9.21192 12.2965 9.21192 12.2806L9.19605 12.2488C9.18017 12.2488 9.18017 12.2647 9.16429 12.2806V12.2965L9.18017 12.3123ZM13.4352 12.6934L13.4511 12.6616C13.4511 12.6458 13.4828 12.6299 13.4828 12.6299C13.4987 12.6299 13.4987 12.6299 13.4987 12.6458C13.4987 12.6616 13.4828 12.6616 13.467 12.6775L13.4352 12.6934ZM8.95789 12.7728L8.98965 12.7569C9.0214 12.741 9.03728 12.7093 9.03728 12.6934L9.0214 12.6775C9.00552 12.6775 8.98965 12.6775 8.98965 12.6934C8.95789 12.6934 8.94202 12.7251 8.94202 12.7569C8.94202 12.7728 8.94202 12.7728 8.95789 12.7728ZM13.1018 12.7569C13.0859 12.7569 13.0859 12.7569 13.0859 12.741C13.1018 12.7251 13.1812 12.6934 13.2447 12.6934C13.2764 12.6775 13.3082 12.6775 13.3241 12.6775L13.3399 12.6934C13.3399 12.7093 13.2764 12.7251 13.1653 12.741L13.1018 12.7569ZM14.6577 12.7569C14.6736 12.7569 14.6895 12.741 14.6895 12.7251V12.7093C14.6895 12.6934 14.6895 12.6934 14.6736 12.6934C14.6577 12.6934 14.6419 12.7093 14.6419 12.7251L14.6577 12.7569ZM9.24368 12.7887C9.25956 12.7887 9.27543 12.7728 9.27543 12.7569V12.741C9.27543 12.7251 9.27543 12.7251 9.25956 12.7251C9.24368 12.7251 9.2278 12.741 9.2278 12.7569L9.24368 12.7887ZM8.87851 12.9792L8.91026 12.9474C8.94202 12.9316 8.95789 12.8998 8.95789 12.8839C8.95789 12.868 8.94202 12.868 8.94202 12.868L8.91026 12.8839C8.87851 12.9157 8.86263 12.9474 8.86263 12.9633L8.87851 12.9792ZM7.9894 13.0744C7.97352 13.0744 7.94176 13.0744 7.94176 13.0586C7.94176 13.0427 7.95764 13.0109 7.9894 12.9951C7.9894 12.9792 8.00527 12.9792 8.00527 12.9792C8.02115 12.9792 8.02115 12.9951 8.02115 13.0268V13.0427C8.02115 13.0586 8.00527 13.0744 7.9894 13.0744V13.0744ZM8.71974 13.5349C8.73561 13.5349 8.76737 13.4555 8.79912 13.3761L8.86263 13.0744L8.83088 13.0903C8.815 13.1062 8.79912 13.1221 8.79912 13.138V13.1697L8.76737 13.2967C8.71974 13.3761 8.70386 13.4555 8.70386 13.5031C8.70386 13.519 8.70386 13.5349 8.71974 13.5349V13.5349ZM14.2449 13.3444C14.2291 13.3444 14.2291 13.3126 14.2291 13.2967V13.2808C14.2291 13.265 14.2449 13.2491 14.2767 13.2491C14.2926 13.2491 14.3084 13.2491 14.3084 13.265L14.2449 13.3444ZM14.4196 13.3761C14.4355 13.3761 14.4513 13.3602 14.4513 13.3444C14.4513 13.3285 14.4355 13.3126 14.4196 13.3126C14.4037 13.3126 14.3878 13.3285 14.3878 13.3444L14.4196 13.3761ZM8.6086 13.8683C8.62448 13.8683 8.65623 13.7889 8.67211 13.6936L8.68798 13.5666C8.68798 13.5825 8.67211 13.5984 8.64035 13.6301C8.62448 13.6619 8.59272 13.7095 8.59272 13.7413V13.8365L8.57684 13.8683H8.6086V13.8683ZM14.1973 13.6778C14.1973 13.6619 14.1973 13.646 14.1814 13.646V13.6301C14.1655 13.6301 14.1655 13.646 14.1655 13.6619C14.1655 13.6778 14.1814 13.6778 14.1814 13.6778H14.1973ZM13.9274 13.7413L13.9115 13.7254C13.9115 13.6936 13.9433 13.6619 13.975 13.6619H13.9909V13.6778C13.9909 13.6936 13.975 13.7095 13.9591 13.7254L13.9274 13.7413ZM13.6099 14.1858C13.6099 14.1541 13.6257 14.1382 13.6416 14.1223C13.6575 14.1064 13.7051 14.0429 13.7369 13.9794C13.7686 13.9159 13.8163 13.8524 13.8321 13.8524L13.848 13.8683C13.848 13.9 13.7845 13.9794 13.6892 14.1223C13.6575 14.1541 13.6257 14.1858 13.6099 14.1858V14.1858ZM14.1338 15.0273L14.1655 14.9956C14.1973 14.9797 14.2449 14.9321 14.2767 14.9003C14.2926 14.8685 14.3243 14.8368 14.3243 14.8209L14.4037 14.7257C14.4513 14.678 14.4831 14.6463 14.4831 14.6145V14.5986C14.4831 14.5828 14.499 14.551 14.5307 14.551C14.5625 14.5351 14.5784 14.5034 14.5784 14.4875C14.5784 14.4557 14.5942 14.3922 14.6419 14.3446C14.6895 14.297 14.7054 14.2652 14.7054 14.2493L14.6895 14.2176H14.6577C14.626 14.2335 14.6101 14.2493 14.6101 14.2652L14.5784 14.3446C14.5148 14.4081 14.4513 14.551 14.4513 14.5986C14.4513 14.6304 14.4196 14.6621 14.372 14.678C14.3243 14.6939 14.2767 14.7257 14.2767 14.7574V14.7733C14.2767 14.805 14.2608 14.8209 14.2449 14.8209C14.2132 14.8368 14.1814 14.8844 14.1655 14.9479L14.1338 15.0273ZM13.4511 14.4557L13.467 14.424C13.467 14.3922 13.4828 14.3764 13.4828 14.3764H13.4987L13.4828 14.4399L13.4511 14.4557ZM14.1179 14.551L14.1497 14.5193C14.1497 14.5034 14.1497 14.4875 14.1338 14.4875C14.102 14.4875 14.102 14.5034 14.102 14.5193C14.102 14.5351 14.102 14.551 14.1179 14.551ZM13.4987 14.678C13.5146 14.678 13.5305 14.6621 13.5305 14.6304L13.5146 14.5986H13.4987L13.467 14.6621L13.4987 14.678ZM13.2129 15.1385C13.2447 15.1385 13.2606 15.1226 13.2606 15.1067C13.2606 15.0908 13.2288 15.0749 13.2129 15.0749C13.1812 15.0749 13.1653 15.0908 13.1653 15.1067C13.1653 15.1226 13.1812 15.1385 13.2129 15.1385ZM14.0862 15.1702C14.1179 15.1702 14.1338 15.1385 14.1338 15.1226C14.1179 15.0908 14.102 15.0749 14.0862 15.0749C14.0703 15.0749 14.0544 15.0908 14.0544 15.1226V15.1385C14.0544 15.1543 14.0703 15.1702 14.0862 15.1702ZM14.2449 15.2337C14.2608 15.2337 14.2608 15.202 14.2608 15.1702L14.2449 15.1067C14.2291 15.1067 14.2291 15.1385 14.2132 15.1702C14.2132 15.202 14.2291 15.2337 14.2449 15.2337ZM14.3084 15.2972C14.3243 15.2972 14.3402 15.2655 14.3561 15.2178L14.372 15.1702L14.3561 15.1543H14.3402C14.3084 15.1702 14.2926 15.2178 14.2926 15.2655C14.2926 15.2813 14.2926 15.2972 14.3084 15.2972ZM14.372 15.71C14.3878 15.71 14.4355 15.6624 14.4831 15.5989C14.5466 15.5036 14.5784 15.3925 14.5784 15.2972L14.5625 15.2178C14.5466 15.1861 14.5307 15.1861 14.5307 15.1702C14.5148 15.1702 14.5148 15.1861 14.499 15.202C14.499 15.2178 14.499 15.2496 14.5307 15.2655L14.5466 15.2813C14.5466 15.329 14.4513 15.3925 14.3561 15.3925C14.2926 15.3925 14.2449 15.4242 14.2449 15.4401C14.2449 15.456 14.2608 15.456 14.2926 15.456C14.3084 15.456 14.3243 15.4719 14.3243 15.5036V15.5195C14.3243 15.5354 14.3402 15.5513 14.3561 15.5513C14.3878 15.5513 14.3878 15.5513 14.3878 15.5671L14.372 15.583C14.3561 15.5989 14.3561 15.6306 14.3561 15.6624C14.3561 15.6941 14.3561 15.71 14.372 15.71V15.71ZM14.0385 15.2337L14.0703 15.2178L14.0544 15.202H14.0227V15.2178L14.0385 15.2337ZM14.2132 15.2972C14.2291 15.2972 14.2291 15.2813 14.2291 15.2813V15.2655H14.1814C14.1814 15.2813 14.1814 15.2972 14.2132 15.2972V15.2972ZM13.8798 15.4719C13.9274 15.4719 14.0227 15.329 14.0227 15.2813C14.0227 15.2655 13.9909 15.2655 13.9591 15.2655C13.9274 15.2813 13.9115 15.2972 13.9115 15.329C13.9115 15.3607 13.8956 15.3925 13.8798 15.4084L13.848 15.4242L13.8798 15.4719ZM12.7684 15.456V15.3925C12.7684 15.3607 12.7843 15.3449 12.8001 15.3449H12.816L12.8319 15.3766L12.816 15.4084L12.7684 15.456ZM14.6577 15.4242C14.6736 15.4242 14.6736 15.4084 14.6736 15.3925C14.6736 15.3766 14.6577 15.3607 14.626 15.3607L14.6101 15.3766L14.626 15.3925C14.626 15.4084 14.6577 15.4242 14.6577 15.4242V15.4242ZM14.6419 15.4877C14.6736 15.4877 14.6736 15.4719 14.6736 15.4719L14.6419 15.456C14.6419 15.456 14.626 15.456 14.626 15.4719L14.6419 15.4877ZM14.1497 15.5671C14.1655 15.5513 14.1655 15.5354 14.1655 15.5195V15.5036H14.1338C14.1179 15.5195 14.102 15.5354 14.102 15.5513L14.1338 15.5671H14.1497V15.5671ZM13.3082 16.2975C13.3241 16.2975 13.3717 16.2498 13.4193 16.1863C13.4828 16.107 13.5622 16.0276 13.5781 16.0276L13.6099 16.0117L13.594 15.9641L13.6575 15.837C13.7051 15.7894 13.7369 15.7259 13.7369 15.71C13.7369 15.6941 13.7527 15.6783 13.7686 15.6783C13.7845 15.6783 13.8004 15.6624 13.8004 15.6465C13.8004 15.6148 13.8163 15.583 13.848 15.5671L13.8798 15.5354L13.8639 15.5195C13.8163 15.5195 13.6416 15.6941 13.6416 15.7418C13.6416 15.7577 13.6099 15.8212 13.5463 15.8688C13.4987 15.9323 13.4511 15.9958 13.4511 16.0117C13.4511 16.0276 13.4193 16.0752 13.3717 16.1387C13.3241 16.1863 13.2923 16.2657 13.2923 16.2816L13.3082 16.2975ZM7.48133 15.6465C7.46545 15.6465 7.46545 15.6306 7.46545 15.6306V15.6148C7.46545 15.5989 7.48133 15.583 7.49721 15.583L7.51309 15.6148C7.51309 15.6306 7.49721 15.6465 7.48133 15.6465V15.6465ZM15.785 15.7418L15.8168 15.6941L15.785 15.6783C15.7691 15.6783 15.7532 15.6941 15.7532 15.71C15.7691 15.7259 15.7691 15.7418 15.785 15.7418V15.7418ZM13.6575 15.9958L13.6892 15.9641C13.6892 15.9482 13.6892 15.9323 13.6734 15.9323C13.6575 15.9323 13.6416 15.9482 13.6416 15.9641C13.6416 15.9799 13.6416 15.9958 13.6575 15.9958ZM13.8004 15.9958C13.8163 15.9958 13.8321 15.9799 13.8321 15.9641L13.8163 15.9323C13.8004 15.9323 13.8004 15.9482 13.7845 15.9641V15.9799L13.8004 15.9958ZM14.0862 16.1863L14.1179 16.0911C14.1497 16.0434 14.1814 15.9958 14.2132 15.9799L14.1814 16.0752C14.1338 16.1546 14.102 16.1863 14.0862 16.1863ZM13.8163 16.1863C13.8321 16.1863 13.848 16.1705 13.8639 16.1228C13.8639 16.0911 13.848 16.0593 13.8163 16.0434H13.7845C13.7686 16.0593 13.7527 16.0752 13.7527 16.0911L13.7686 16.1387C13.7845 16.1705 13.8004 16.1863 13.8163 16.1863V16.1863ZM13.3876 16.6626L13.4511 16.6309C13.4987 16.615 13.5781 16.5198 13.6257 16.4245C13.6734 16.361 13.7051 16.3134 13.7051 16.2816L13.6734 16.2181L13.7051 16.1228V16.107H13.6734C13.6416 16.107 13.594 16.1705 13.5622 16.2498C13.5622 16.2816 13.5463 16.2975 13.5305 16.2975H13.5146C13.4987 16.2975 13.467 16.3134 13.4511 16.3451L13.4352 16.4245C13.4352 16.4404 13.4352 16.4404 13.4511 16.4404H13.5463L13.4352 16.615L13.3876 16.6626ZM13.5146 16.1863C13.5305 16.1863 13.5463 16.1705 13.5463 16.1546L13.5622 16.1387L13.5463 16.1228L13.4987 16.1705L13.5146 16.1863ZM8.51334 16.2498C8.51334 16.2498 8.54509 16.234 8.54509 16.2022V16.1863C8.54509 16.1705 8.54509 16.1546 8.52921 16.1546C8.51334 16.1546 8.49746 16.1863 8.49746 16.2022V16.2181C8.49746 16.234 8.49746 16.2498 8.51334 16.2498ZM14.499 16.4404C14.5466 16.4404 14.5784 16.3769 14.5784 16.3134C14.5784 16.2816 14.5466 16.2498 14.5307 16.2498C14.5148 16.2498 14.5148 16.2657 14.5148 16.2816V16.2975L14.499 16.3451L14.4672 16.3927L14.499 16.4404ZM13.6416 16.3451H13.6257L13.6099 16.3134C13.6099 16.2975 13.6099 16.2975 13.6257 16.2975C13.6416 16.3134 13.6416 16.3292 13.6416 16.3451ZM15.2134 16.3451C15.2452 16.3451 15.2452 16.3451 15.2452 16.3292H15.1976V16.3451H15.2134ZM8.51334 16.488V16.361C8.51334 16.3451 8.49746 16.3451 8.49746 16.3451V16.4245L8.51334 16.488ZM13.1971 16.4721V16.4562L13.1812 16.4086L13.1494 16.3927L13.1653 16.4245L13.1971 16.4721ZM13.6734 16.7738H13.6575C13.6257 16.7579 13.6257 16.742 13.6257 16.7262H13.6734C13.7369 16.7103 13.8639 16.5198 13.8639 16.4562V16.4404C13.848 16.4404 13.848 16.4245 13.848 16.4245H13.8798C13.8956 16.4404 13.9115 16.4562 13.9115 16.4721C13.9115 16.5039 13.8798 16.5515 13.8163 16.6468C13.7527 16.742 13.7051 16.7738 13.6734 16.7738V16.7738ZM13.3717 16.615L13.4193 16.5515L13.4352 16.5039C13.4352 16.488 13.4193 16.488 13.3876 16.488C13.3558 16.488 13.3399 16.5039 13.3399 16.5515C13.3558 16.5833 13.3558 16.615 13.3717 16.615ZM14.499 16.5674C14.499 16.5515 14.499 16.5356 14.4831 16.5198C14.4672 16.5198 14.4672 16.5198 14.4672 16.5515C14.4672 16.5674 14.4831 16.5674 14.4831 16.5674H14.499ZM11.911 16.6468C11.9269 16.6468 11.9428 16.6309 11.9428 16.615L11.9269 16.5833C11.911 16.5833 11.911 16.5991 11.8951 16.615V16.6309L11.911 16.6468ZM13.7051 16.6309H13.6892L13.6734 16.615C13.6734 16.5991 13.6734 16.5833 13.6892 16.5833C13.7051 16.5991 13.7051 16.615 13.7051 16.6309ZM15.658 16.6626L15.6739 16.6309L15.6421 16.615L15.6262 16.6468L15.658 16.6626ZM11.7205 16.742L11.7046 16.7262L11.7205 16.7103C11.7205 16.6944 11.7364 16.6785 11.7522 16.6785V16.7103L11.7205 16.742ZM13.5781 16.742L13.5622 16.7262L13.5781 16.7103C13.5781 16.6944 13.594 16.6785 13.6099 16.6785V16.7103L13.5781 16.742ZM11.8475 16.742L11.8793 16.7103C11.8793 16.6944 11.8793 16.6785 11.8634 16.6785L11.8316 16.6944V16.7103C11.8316 16.7262 11.8316 16.742 11.8475 16.742V16.742ZM12.8636 16.869C12.8795 16.869 12.8954 16.8532 12.9113 16.8214L12.943 16.742V16.7262C12.943 16.7103 12.943 16.7103 12.9271 16.7103C12.8954 16.7103 12.8636 16.7579 12.8636 16.8055V16.869V16.869ZM14.4672 16.8532C14.4672 16.8373 14.4672 16.8214 14.4513 16.8055C14.4355 16.8055 14.4355 16.8214 14.4355 16.8373C14.4355 16.8532 14.4513 16.8532 14.4513 16.8532H14.4672ZM13.3399 16.8849L13.3558 16.8532L13.3241 16.8373V16.8849H13.3399V16.8849ZM13.2606 16.9008L13.2923 16.8849C13.2923 16.869 13.2764 16.8532 13.2447 16.8532V16.8373L13.2288 16.8532C13.2288 16.8532 13.2129 16.8532 13.2129 16.869C13.2288 16.8849 13.2447 16.9008 13.2606 16.9008V16.9008ZM15.5627 17.139C15.5786 17.139 15.5786 17.1231 15.5945 17.1072L15.6104 16.9961L15.5945 16.9802L15.5786 17.0119C15.5627 17.0437 15.5627 17.0913 15.5627 17.1231V17.139V17.139ZM13.0224 17.1231C13.0383 17.1231 13.0542 17.1072 13.07 17.0754V16.9961L13.0224 17.0278L12.9907 17.0913C12.9907 17.1072 13.0065 17.1231 13.0224 17.1231ZM12.7207 17.0913V17.0596C12.7207 17.0437 12.7049 17.0278 12.689 17.0278C12.6731 17.0278 12.6731 17.0437 12.6731 17.0596C12.689 17.0754 12.7049 17.0913 12.7207 17.0913ZM11.6729 17.0913L11.7046 17.0754H11.6887C11.6887 17.0596 11.6729 17.0596 11.6729 17.0596C11.657 17.0596 11.657 17.0596 11.657 17.0754L11.6729 17.0913ZM12.5778 17.3771L12.5937 17.3612L12.5778 17.3295C12.5778 17.2977 12.5778 17.2819 12.6096 17.2819C12.6572 17.2819 12.689 17.2183 12.689 17.1866C12.689 17.1707 12.689 17.1548 12.6731 17.139H12.6572L12.5937 17.1707C12.562 17.2183 12.5302 17.2819 12.5302 17.3136C12.5302 17.3454 12.5461 17.3771 12.5778 17.3771V17.3771ZM12.8478 17.4247L12.9271 17.4089L12.943 17.393L12.9271 17.3612L12.943 17.3454C12.9748 17.3454 12.9907 17.3136 12.9907 17.2819C12.9907 17.2501 12.9748 17.2183 12.9589 17.2025L12.9271 17.1866H12.9113C12.8954 17.1866 12.8636 17.2183 12.8319 17.266C12.8001 17.3136 12.7843 17.3612 12.7843 17.393C12.7843 17.4089 12.8001 17.4247 12.816 17.4247H12.8478V17.4247ZM15.5468 17.2501L15.5627 17.2342C15.5627 17.2342 15.5627 17.2025 15.5468 17.2025V17.1866C15.531 17.1866 15.531 17.2025 15.531 17.2183L15.5468 17.2501ZM12.816 17.4089C12.816 17.4089 12.8001 17.4089 12.8001 17.393C12.8001 17.3771 12.9113 17.2501 12.9271 17.2501C12.9271 17.2818 12.8478 17.4089 12.816 17.4089ZM13.1335 17.4089C13.1335 17.4089 13.1177 17.393 13.1177 17.3612V17.3295C13.1177 17.3295 13.1335 17.3295 13.1335 17.3454L13.1494 17.3771L13.1335 17.4089ZM12.4667 17.52L12.4985 17.4883C12.5302 17.4724 12.5302 17.4247 12.5302 17.4089C12.4985 17.3771 12.4667 17.3771 12.4508 17.3771C12.435 17.3771 12.4191 17.393 12.4191 17.4247L12.4508 17.5041C12.4508 17.52 12.4508 17.52 12.4667 17.52V17.52ZM15.4992 17.4406L15.5151 17.4247V17.4089C15.5151 17.393 15.5151 17.3771 15.4992 17.3771L15.4675 17.4089C15.4675 17.4247 15.4675 17.4406 15.4992 17.4406V17.4406ZM15.0547 17.4406L15.0705 17.4247L15.0547 17.3771C15.0388 17.3771 15.0388 17.393 15.0388 17.4089L15.0547 17.4406ZM12.3238 17.5676L12.3714 17.4565L12.3556 17.4406C12.3397 17.4406 12.3238 17.4724 12.3238 17.5041L12.3079 17.5518L12.3238 17.5676ZM11.2601 17.5359C11.2759 17.5359 11.3077 17.52 11.3077 17.5041V17.4883C11.3077 17.4724 11.2918 17.4724 11.2759 17.4565L11.2124 17.4406C11.1965 17.4565 11.1966 17.4565 11.1966 17.4883C11.2124 17.52 11.2442 17.5359 11.2601 17.5359ZM12.689 17.6947C12.7049 17.6947 12.7366 17.6788 12.7684 17.647L12.7843 17.5994L12.7366 17.6311C12.7049 17.6629 12.6731 17.6788 12.6731 17.6947H12.689V17.6947ZM15.4675 17.7264L15.4833 17.7105C15.4992 17.7105 15.5151 17.6788 15.5151 17.647C15.5151 17.6153 15.5151 17.5994 15.4992 17.5994L15.4833 17.6311C15.4675 17.6629 15.4675 17.6947 15.4675 17.7105V17.7264V17.7264ZM12.3873 17.6947C12.4032 17.6947 12.4032 17.6788 12.4191 17.647V17.6153H12.4032C12.3873 17.6311 12.3714 17.647 12.3714 17.6629L12.3873 17.6947ZM11.0219 17.7582C11.0537 17.7582 11.0854 17.7423 11.1172 17.6947L11.1489 17.6311V17.6153C11.133 17.6153 11.1013 17.6311 11.0695 17.6788C11.0378 17.7105 11.0219 17.7423 11.0219 17.7582V17.7582ZM12.3079 17.7582L12.3397 17.7264V17.6947C12.3238 17.6947 12.3079 17.7105 12.3079 17.7264L12.2921 17.7423L12.3079 17.7582ZM14.3243 17.7582L14.3402 17.7264L14.3084 17.7105V17.7264C14.3084 17.7582 14.3243 17.7582 14.3243 17.7582V17.7582ZM12.4667 17.7582L12.4508 17.7264L12.4191 17.7423C12.4191 17.7582 12.4191 17.7582 12.4508 17.7582H12.4667V17.7582ZM15.3563 17.8217L15.3722 17.7899L15.3563 17.774C15.3404 17.774 15.3404 17.774 15.3404 17.7899C15.3404 17.8217 15.3563 17.8217 15.3563 17.8217ZM12.5937 17.9169C12.6096 17.9169 12.6255 17.9011 12.6414 17.8852L12.6731 17.8375C12.6731 17.8217 12.6731 17.8058 12.6572 17.8058L12.6096 17.8217C12.5778 17.8217 12.562 17.8534 12.562 17.8852C12.562 17.9011 12.5778 17.9169 12.5937 17.9169V17.9169ZM12.2762 17.9804L12.2603 17.9487L12.2762 17.9011C12.2921 17.9011 12.2921 17.8852 12.2921 17.8693V17.8375L12.2127 17.9646L12.2444 17.9804H12.2762V17.9804ZM12.1968 18.0757C12.2127 18.0757 12.2286 18.0598 12.2286 18.0439C12.2286 18.0281 12.2286 18.0281 12.2127 18.0281L12.1333 18.0122L12.1015 17.9963C12.0857 17.9963 12.0857 17.9963 12.0857 18.0122C12.1015 18.0439 12.1492 18.0757 12.1968 18.0757V18.0757ZM14.2926 18.2186L14.3402 18.1868C14.3402 18.1551 14.3243 18.1551 14.3084 18.1551C14.2767 18.1551 14.2608 18.1551 14.2608 18.1868C14.2608 18.2027 14.2767 18.2186 14.2926 18.2186ZM12.1015 18.2027V18.1551H12.0857C12.0857 18.1551 12.0698 18.1551 12.0698 18.1868L12.1015 18.2027ZM14.2767 18.5679C14.2926 18.5679 14.2926 18.5203 14.2926 18.4567C14.2767 18.3932 14.2608 18.3456 14.2449 18.3456C14.2291 18.3456 14.2291 18.3615 14.2291 18.4091C14.2291 18.4409 14.2291 18.4726 14.2449 18.5203L14.2767 18.5679ZM11.8634 18.4726L11.9428 18.4409L11.9745 18.4091H11.9586L11.8793 18.4409L11.8475 18.4726H11.8634ZM11.8158 18.552L11.8316 18.5203L11.7999 18.5044V18.552H11.8158V18.552ZM11.5617 18.6949C11.5776 18.6949 11.5935 18.6631 11.6094 18.6314L11.6411 18.5996C11.6411 18.5996 11.6252 18.5996 11.6094 18.6314C11.5617 18.6473 11.5458 18.679 11.5458 18.679L11.5617 18.6949ZM11.7999 18.7108L11.8158 18.6949L11.8316 18.6473L11.7999 18.6314C11.784 18.6314 11.7681 18.6473 11.7681 18.6631V18.6949L11.7999 18.7108ZM15.3087 18.806C15.3404 18.806 15.3722 18.7743 15.3881 18.7267V18.6631H15.3722C15.3404 18.679 15.2769 18.7425 15.2769 18.7902C15.2769 18.806 15.2928 18.806 15.3087 18.806V18.806ZM14.2132 18.7584C14.2449 18.7584 14.2449 18.7425 14.2449 18.7267C14.2449 18.7108 14.2449 18.6949 14.2291 18.6949L14.1973 18.7267C14.1973 18.7425 14.1973 18.7584 14.2132 18.7584ZM11.53 18.9013L11.5935 18.8854L11.7205 18.806L11.7522 18.7743L11.7205 18.7425H11.7046C11.6729 18.7584 11.6252 18.7743 11.5935 18.8219C11.5458 18.8696 11.53 18.8854 11.53 18.9013ZM14.9594 18.8219C14.9912 18.8219 14.9912 18.806 14.9912 18.806L14.9594 18.7902C14.9594 18.7902 14.9435 18.7902 14.9435 18.806L14.9594 18.8219ZM14.2132 18.9331L14.2449 18.9172L14.2608 18.8378L14.2291 18.8219C14.2132 18.8219 14.1973 18.8537 14.1973 18.9013L14.2132 18.9331ZM14.1814 19.0442C14.1973 19.0442 14.2132 19.0283 14.2132 19.0124L14.1973 18.9807L14.1655 19.0124C14.1655 19.0283 14.1655 19.0442 14.1814 19.0442ZM14.2291 19.203C14.2291 19.1871 14.2291 19.1712 14.2132 19.1553H14.1973V19.1712C14.1973 19.203 14.2132 19.203 14.2291 19.203V19.203ZM15.2611 19.2347C15.2611 19.2188 15.2611 19.203 15.2452 19.1871H15.2293V19.203C15.2293 19.2347 15.2452 19.2347 15.2611 19.2347V19.2347ZM11.1966 19.33C11.2283 19.33 11.2283 19.33 11.2283 19.3141L11.1966 19.2982L11.1807 19.33H11.1966V19.33ZM15.3087 19.8222L15.2928 19.8063L15.3087 19.7904C15.3087 19.7587 15.3246 19.7587 15.3404 19.7587V19.7904L15.3087 19.8222ZM15.3246 20.1873L15.2928 20.1715L15.3087 20.1397H15.3246V20.1873V20.1873ZM15.2769 20.4573C15.2769 20.4573 15.2611 20.4255 15.2611 20.3779V20.3461C15.2611 20.3144 15.2611 20.2985 15.2769 20.2985C15.2928 20.2985 15.2928 20.3302 15.2928 20.3779C15.2928 20.4255 15.2769 20.4573 15.2769 20.4573Z" fill="white"/>
</svg>
