<svg id="favicon" xmlns="http://www.w3.org/2000/svg" width="27" height="27" viewBox="0 0 27 27">
  <path id="Path_1" data-name="Path 1" d="M13.5,0a13.5,13.5,0,1,0,5.166,1.028A13.5,13.5,0,0,0,13.5,0Zm0,25.331a4.92,4.92,0,1,0,0-.005Z" fill="#03bb85"/>
  <path id="Path_2" data-name="Path 2" d="M13.5,1.971a11.518,11.518,0,1,0,8.128,3.374A11.5,11.5,0,0,0,13.5,1.971Z" fill="#03bb85"/>
  <path id="Path_3" data-name="Path 3" d="M15.023,21.124c-.032,0-.079-.016-.079-.063,0-.032-.016-.063-.032-.063s-.048-.032-.064-.079-.016-.063-.032-.063l-.032.016-.048.016a.456.456,0,0,1-.175-.064c-.159-.079-.191-.111-.333-.333a1,1,0,0,1-.159-.587v-.191a1.643,1.643,0,0,1,.016-.318c0-.032.016-.286.048-.556l.064-.667a3.787,3.787,0,0,1,.111-.81h.016l.016.032c0,.032,0,.048.016.048s.048-.048.063-.111l.016-.079-.016-.016-.032.032a.145.145,0,0,1-.079.048v-.032l.032-.3.1-.619a1.126,1.126,0,0,1,.079-.318l.016-.032-.016-.048a.2.2,0,0,1-.016-.1c0-.064.032-.127.079-.127a.07.07,0,0,0,.048-.016V15.71a.1.1,0,0,0-.064-.016h-.016l-.016-.032c0-.016,0-.032-.016-.032l-.064.079c-.032.048-.063.079-.1.079l-.032-.032.016-.016a.1.1,0,0,0-.032-.064c-.016-.032-.048-.063-.064-.063s-.016,0-.016.016v.048c0,.064-.079.191-.127.191l-.032.016V15.9c0,.016-.016.032-.048.032-.048,0-.064.016-.064.032s.016.032.048.048l.032.016-.032.032-.016.048.016.063c0,.016,0,.016-.016.016l-.1-.016-.016.016c.016.032.048.048.127.048h.016c.016,0,.032,0,.032.032l-.032.048-.032.016c-.016,0-.032,0-.048-.032l-.048-.032c-.048,0-.111.064-.175.159a1.439,1.439,0,0,1-.318.381l-.016.016.032.032.048.079c0,.016-.032.032-.079.032a.1.1,0,0,0-.1.079.016.016,0,0,0,.016.016l.032.032-.016.064q-.024.048-.048.048l-.079-.032c-.016,0-.032.016-.064.048a.105.105,0,0,1-.079.064c-.032,0-.048.032-.048.079a.1.1,0,0,0,.048.1l.032.016.048-.032.016.016a.548.548,0,0,1-.19.111l-.016-.016.016-.016V17.5l-.016.016a.121.121,0,0,0-.032.079c0,.048,0,.064-.032.064a.182.182,0,0,0-.111.127c0,.016,0,.032-.016.032s-.032.048-.063.1c-.016.048-.032.079-.064.079h-.032a.321.321,0,0,0-.175.238v.016a.119.119,0,0,1-.016.079c-.016,0-.016,0-.016-.016,0-.064-.016-.079-.032-.079s-.032,0-.048.032c-.032.048-.048.064-.079.064H12.2c-.032-.016-.064-.032-.064-.048s.048-.032.111-.048a.131.131,0,0,0,.1-.064l.016-.032c0-.016-.016-.016-.032-.016a.246.246,0,0,0-.175.111.8.8,0,0,1-.127.1l-.032-.016-.079.032c0,.016.032.032.063.048a.173.173,0,0,0,.079.016.1.1,0,0,0,.064-.016l.063-.032c.016,0,.016,0,.016.016,0,.032-.032.064-.079.079l-.064.016-.032-.016-.079.032c-.048.032-.1.079-.1.1h.064a.215.215,0,0,1,.143.143c-.016.016-.048.016-.1.016h-.016c-.048,0-.111.032-.206.143a.592.592,0,0,1-.175.159c-.032,0-.127.111-.127.143l.016.016-.127.016c-.063.032-.063.048-.063.111,0,.048-.286.191-.365.191-.032,0-.048.016-.064.048a.652.652,0,0,1-.27.032h-.079a1.976,1.976,0,0,1-.9-.238,4.507,4.507,0,0,1-1.35-1.222c-.079-.111-.143-.222-.175-.254a3.028,3.028,0,0,1-.333-.6,2.115,2.115,0,0,1-.079-.3L7.5,16.25l-.032-.206c0-.032.016-.048.048-.079a.1.1,0,0,0,.048-.1v-.048a.909.909,0,0,1,.016-.222c0-.063,0-.111-.016-.127l-.016-.048.064-.254a1.782,1.782,0,0,1,.048-.444l.032-.111-.016-.079a.121.121,0,0,1,.032-.079.152.152,0,0,0,.032-.111v-.063c0-.079-.016-.143-.032-.143a.034.034,0,0,1-.032-.032v-.016H7.7c.048,0,.1-.064.1-.127v-.016a.119.119,0,0,0-.048-.048H7.735L7.7,13.884a.137.137,0,0,1,.048-.1l.032-.032H7.8l-.016.079.032-.016a.625.625,0,0,0,.064-.206,1.684,1.684,0,0,1,.048-.222l.016-.048-.016-.032a.059.059,0,0,1-.048-.032c0-.016,0-.032.032-.032l.032.016h.064l-.032-.079a.085.085,0,0,1,.048-.064.108.108,0,0,0,.048-.079.974.974,0,0,1,.079-.238,1.359,1.359,0,0,0,.063-.286L8.2,12.455l-.048.016-.016-.016a.215.215,0,0,1,.143-.143c.032,0,.064-.032.079-.079l.032-.111a1.489,1.489,0,0,0,.159-.444A.051.051,0,0,1,8.5,11.63c0-.016.016-.016.032-.016h.016c.016,0,.032-.032.048-.064l.016-.048c0-.032,0-.032-.016-.048l-.016-.032.016-.032.032-.032.016.016c0,.016.016.016.032.016h.016c.032,0,.048-.016.048-.032s-.032-.032-.064-.048L8.624,11.3h.048c.032-.016.048-.032.048-.063L8.7,11.169a.034.034,0,0,1,.032-.032h.032c.032,0,.064-.016.064-.048L8.8,11.058c-.016,0-.032-.016-.032-.048a.65.65,0,0,1,.111-.238c.048-.1.1-.159.111-.159l-.016.064-.016.032.016.016h.032a.107.107,0,0,0,.064-.1.051.051,0,0,0-.048-.048c-.016,0-.016-.016-.016-.032v-.016h.048c.048,0,.064-.063.064-.159v-.048l.016.032.032.016c.016,0,.016,0,.016-.032L9.2,10.3l-.016-.048.064-.032a.19.19,0,0,0,.143-.127A.363.363,0,0,1,9.5,9.931l.032-.048c0-.016,0-.032-.032-.048L9.466,9.82H9.5c.032,0,.064,0,.064-.016a.145.145,0,0,1,.048-.079A1.844,1.844,0,0,0,9.752,9.5L9.895,9.3l-.016-.048c0-.016,0-.016.016-.016l.032-.016V9.185l.032-.064c.032-.016.032-.032.032-.048l-.016-.032c-.016-.016-.032-.032-.032-.048a.168.168,0,0,1,.143-.143.3.3,0,0,0,.159-.079c.048-.048.063-.063.063-.079l-.063-.016c-.032,0-.064-.016-.064-.032l.079-.079c.064-.064.1-.079.111-.079h.016l-.079.143a1.562,1.562,0,0,0,.333-.365l.127-.127c.032-.032.048-.048.048-.064l-.048-.032a.105.105,0,0,1-.064-.079c0-.032.016-.048.048-.064a.642.642,0,0,0,.143-.175c.063-.064.111-.127.143-.127.016,0,.016,0,.016-.016V7.565a.137.137,0,0,1,.048-.1l.048-.064c.016,0,.016.032.016.079v.048c0,.016,0,.032.016.032l.1-.048L11.244,7.5c-.032,0-.032-.016-.032-.032a.694.694,0,0,1,.206-.349A4.828,4.828,0,0,1,13.038,5.9c.048-.016.079-.032.079-.048L13.054,5.8l.079.016.048-.016c.016-.048.3-.079.508-.079l.159.016c.54.143.969.222,1.238.746l.206.413a2.491,2.491,0,0,1,.111.857.593.593,0,0,1-.032.27c-.016,0-.032.079-.048.191a.627.627,0,0,1-.064.238.294.294,0,0,0-.032.111c0,.032,0,.1-.016.111l-.048.159-.111.175a.552.552,0,0,0-.111.238c-.016.143-.016.143-.175.143-.143,0-.159,0-.206-.079a1.079,1.079,0,0,0-.191-.206c-.143-.127-.143-.127-.159-.365C14.2,8.55,14.2,8.407,14.2,8.3a1.636,1.636,0,0,1,.016-.3l.159-.572A.58.58,0,0,0,14.4,7.2a.489.489,0,0,0-.016-.159c-.032-.048-.048-.079-.127-.079l-.159.016a1.233,1.233,0,0,0-.333.064l-.222.1a2.918,2.918,0,0,0-.635.4,1.179,1.179,0,0,1-.206.191,1.441,1.441,0,0,0-.413.429v.016c0,.016-.032.032-.064.048s-.064.048-.064.064V8.3c0,.032-.016.032-.032.032h-.016a.034.034,0,0,0-.032.032c-.016.079-.191.3-.254.3a.753.753,0,0,0-.222.27,1.451,1.451,0,0,1-.206.318,1.792,1.792,0,0,0-.175.175.55.55,0,0,1-.143.1h-.079c-.016,0-.032.032-.048.079a.071.071,0,0,1-.048.064.262.262,0,0,0-.159.159c0,.016.016.016.032.016a.124.124,0,0,0,.111-.048.116.116,0,0,1,.111-.1h.016l-.032.016c-.016.016-.016.032-.016.064V9.82a.085.085,0,0,1-.079.079l-.048-.016.032.1c0,.016-.016.032-.032.048a.135.135,0,0,0-.048.079c-.016.032-.032.048-.048.048h-.016c-.016,0-.016,0-.016.016v.016c0,.079-.111.238-.175.238-.032,0-.064.016-.064.032v.079c0,.016-.016.032-.063.048h-.032l.016-.016a.121.121,0,0,0,.032-.079.211.211,0,0,1,.127-.159.058.058,0,0,0,.016-.048l.048-.127.032-.064-.064.016h-.032c-.016,0-.032,0-.032.016l.016.048a.17.17,0,0,1-.032.1l-.127.175c-.032.064-.079.111-.127.111a.034.034,0,0,0-.032.032v.048l-.016.032c-.016.016-.032.016-.032.032l.016.064c0,.048-.048.111-.079.111-.016,0-.016-.016-.016-.032v-.048l-.032.016c-.016.016-.032.032-.032.048l.016.016c.032,0,.032.016.032.048a.4.4,0,0,1-.064.143l-.064.127-.032.079a.108.108,0,0,0-.048.079l.016.032c.016,0,.032-.032.064-.063l.064-.079v.048a.17.17,0,0,1-.032.1.034.034,0,0,0-.032.032l.016.1-.016.079-.048.016a.186.186,0,0,0-.1.079l-.064.079.032-.1a.467.467,0,0,0,.048-.143q-.024,0-.048.048a.359.359,0,0,1-.064.143.226.226,0,0,0-.032.1c0,.032.016.048.064.048.016,0,.032,0,.032.032l-.016.063c-.032.079-.1.159-.143.159-.016,0-.032.032-.032.064a.537.537,0,0,1-.064.159.211.211,0,0,0-.048.111l.016.048c0,.079-.111.333-.159.333-.016,0-.016,0-.016.016v.048a.226.226,0,0,1-.032.1.725.725,0,0,0-.079.222c-.016.111-.048.143-.111.143H9.037q0,.024.048.048c.016.032.032.048.032.079a.6.6,0,0,1-.064.19,4.653,4.653,0,0,0-.206.683c-.032.1-.064.175-.079.175s-.016.048-.016.079c0,.048,0,.1-.016.1-.016.016-.016.063-.016.111a.246.246,0,0,1-.032.127c-.016.016-.016.032-.016.063v.048a.185.185,0,0,1-.032.111c-.016.016-.016.048-.016.1l-.032.27-.048.238.016.032c.016,0,.032,0,.048-.032l.032-.048v.079l-.032.191c0,.048-.016.079-.032.079s-.016-.016-.016-.032l.016-.1H8.561l-.032.048a.137.137,0,0,0-.048.1c0,.032.032.048.064.048s.048.032.048.1a.908.908,0,0,0-.016.222l-.032.222v.016c0,.016-.016.016-.032.032-.016,0-.016.016-.016.032a.1.1,0,0,0,.032.079l.032.063-.048.032.016.016a.937.937,0,0,1,.064.286,2.216,2.216,0,0,0,.159.54,1.7,1.7,0,0,0,.333.556c.1.063.127.079.46.1.349,0,.349,0,.556-.111a1.17,1.17,0,0,1,.254-.111.135.135,0,0,0,.079-.048c.016-.016.032-.032.048-.032H10.5c.016,0,.032,0,.032-.016a.034.034,0,0,1,.032-.032.071.071,0,0,0,.064-.048c0-.032.032-.048.064-.048a.034.034,0,0,0,.032-.032L10.7,17.9h.159a.469.469,0,0,1,.111-.159.471.471,0,0,0,.1-.175l.016-.063a.108.108,0,0,0,.048-.079v-.032h.032a.145.145,0,0,0,.079-.048l.1-.048h.016v-.016c0-.032.016-.048.032-.048H11.4a.07.07,0,0,0,.016-.048c0-.032,0-.048-.016-.048l-.127.111.048-.063c.048-.063.1-.1.127-.1.016,0,.032.016.032.048s0,.032.016.032l.063-.032.032.016c.016,0,.016,0,.016-.016v-.016a.625.625,0,0,1,.159-.27l.032-.079-.016-.032c0-.048.111-.191.159-.191h.016c.016,0,.016-.016.016-.032V16.5c0-.016,0-.016.016-.016a1.9,1.9,0,0,0,.349-.365.505.505,0,0,1,.175-.191c.016,0,.048-.048.079-.111a1.845,1.845,0,0,1,.175-.254.518.518,0,0,0,.1-.238.034.034,0,0,0-.032-.032c-.016,0-.016,0-.016-.016l.016-.032.032-.032c.016,0,.016,0,.032.032a.034.034,0,0,0,.032.032l.064-.048a.437.437,0,0,0,.111-.143l.016-.048-.048.048-.063.032h-.016l.032-.063a.2.2,0,0,0,.064-.111c0-.016.016-.032.048-.032a.034.034,0,0,1,.032.032v.016l.016.016c.016,0,.048-.032.064-.064a.2.2,0,0,1,.063-.111c.016-.032.032-.048.048-.048l.032.032.032.016-.016-.064c0-.079.1-.238.143-.238h.016c.016,0,.048-.032.079-.079l.048-.111-.016-.032c0-.032.016-.048.048-.1l.064-.079v.127l.016-.016c.016,0,.016-.032.016-.048v-.1c0-.032.016-.048.063-.079s.079-.048.079-.064a.885.885,0,0,1,.206-.365h.1c.032,0,.048-.032.048-.079v-.079a.121.121,0,0,1,.032-.079c.016-.016.032-.032.032-.048v-.016l.127-.238a.982.982,0,0,0,.1-.222v-.016l-.032.032a1.142,1.142,0,0,1-.254.381h-.016l-.016-.016a2.2,2.2,0,0,1,.333-.492,1.05,1.05,0,0,0,.159-.286l.048-.143v-.016l-.032.016a.4.4,0,0,1-.159.032c-.111.016-.572.111-.842.191a1.3,1.3,0,0,1-.222.063c-.048.016-.143.032-.222.064a1.206,1.206,0,0,1-.333.048.9.9,0,0,1-.381-.079.592.592,0,0,1-.175-.143.105.105,0,0,0-.079-.063.051.051,0,0,1-.048-.048c0-.032-.016-.048-.032-.048s-.064-.063-.1-.159a.767.767,0,0,0-.127-.191.137.137,0,0,1-.048-.1c-.016-.032-.016-.064-.032-.079a.518.518,0,0,1-.032-.191.37.37,0,0,1,.032-.175.6.6,0,0,1,.238-.048l1.413-.286.381-.063h.032c.016,0,.016,0,.016-.016s.048-.032.127-.032h.064c.127,0,.3-.032.318-.079a.3.3,0,0,1,.159-.032.471.471,0,0,0,.191-.048.185.185,0,0,1,.111-.032h.048a.313.313,0,0,0,.143-.016.421.421,0,0,1,.222-.048c.032,0,.048,0,.048.016s0,.032.032.032c.016,0,.016-.016.016-.032v-.016c0-.032.032-.048.127-.048H15.8c.1,0,.127,0,.127-.048,0-.032.016-.048.063-.048.032,0,.063.016.063.032s.016.016.048.016c.032-.016.032-.016.032-.032L16.1,10.55v-.016l.175.016a.034.034,0,0,0,.032-.032v-.032l.016.032c.016.016.032.016.063.016s.048-.016.048-.032v-.048q0-.024.143-.048l.254-.032a.65.65,0,0,1,.175-.016c.063,0,.111-.016.111-.032s.032-.032.063-.048l.064-.032v.032c0,.032.016.048.032.048s.032-.016.032-.048a.631.631,0,0,1,.349-.111h.048l-.032.032-.016.032.032-.016a1.283,1.283,0,0,1,.318-.032h.127a.369.369,0,0,1,.175.032l.048.032c.016,0,.016-.016.016-.048.016-.048.032-.048.1-.048.048.016.063.016.063.032l-.079.032c0,.016.016.016.064.016.032,0,.064-.016.064-.032v-.016c0-.032.048-.064.111-.064a.227.227,0,0,1,.175.079.778.778,0,0,0,.3.064c.048,0,.1.016.1.032l.143.159a.513.513,0,0,1,.143.159.407.407,0,0,0,.1.191v.032c0,.016-.016.032-.064.048-.063.016-.1.032-.1.064l.032.048.1-.016v.032a.016.016,0,0,0,.016.016l.032.016-.016.016a.975.975,0,0,1-.238.048.983.983,0,0,0-.254.048.4.4,0,0,1-.191.048,1.188,1.188,0,0,0-.254.079L18.6,11.3a.058.058,0,0,1-.048-.016l-.016-.032-.032.032a1.112,1.112,0,0,1-.3.079,1.232,1.232,0,0,0-.3.048h-.079c-.032,0-.032.016-.032.016,0,.016.064.048.127.048h.063v.016a1.116,1.116,0,0,1-.429.1l-.81.191a1.562,1.562,0,0,0-.524.159.226.226,0,0,1-.1.032h-.032c-.016,0-.032,0-.032.016v.016c0,.016,0,.032.016.032s.048.032.048.079.032.1.048.1a.716.716,0,0,1,.222.492.185.185,0,0,1-.032.111c-.016.016-.016.079-.016.127l-.016.127-.079.27a.539.539,0,0,1-.063.238c-.016,0-.016.016-.016.064v.048a.341.341,0,0,1-.032.159v.048l-.016.238-.016.238a.481.481,0,0,1-.048.175.463.463,0,0,0-.032.143l.016.1-.032.048c-.016.032-.048.064-.048.1-.016.032-.048.064-.064.064-.032,0-.048.016-.048.032s.016.016.032.016.032.048.032.111v.048c0,.048,0,.079-.016.1a.12.12,0,0,0-.016.079c0,.032.016.048.032.048l.032-.016v.032a.294.294,0,0,0-.032.111.071.071,0,0,1-.048.048h-.016l.016.032q.048.024.048.048l-.016.048a.381.381,0,0,0-.032.143V15.9c0,.016,0,.048-.016.048l-.016.032.048.079-.032.064-.032.1-.016.1a.621.621,0,0,0-.032.206c-.016.079-.032.159-.048.159s-.016.016-.016.032a.109.109,0,0,1-.048.079l-.032.032v.016l.064-.016c.016,0,.016.016.016.079a.639.639,0,0,1-.048.238l-.032.222-.016.175-.032.127a.542.542,0,0,0-.016.175v.048c0,.048,0,.079-.016.079a.569.569,0,0,0-.032.238c-.016.111-.032.206-.048.206s-.032-.032-.032-.079l.032-.4.016-.048h-.016l-.048.048-.032.079v.016c.016.016.016.048.016.1,0,.063-.016.143-.032.143a.075.075,0,0,0-.079.079v.032c.016.032.032.064.048.064a.034.034,0,0,1,.032.032v.016h-.016c-.016,0-.016,0-.016.032v.032c0,.048.016.063.032.063s.032-.016.032-.063.032-.079.048-.079.016.016.016.048a2.456,2.456,0,0,0-.032.286.75.75,0,0,1-.048.27l-.016-.064c-.016-.048-.032-.1-.048-.1s-.016.016-.016.048V19c0,.048-.016.079-.032.079l-.016.016.079.063.079-.048.016.032-.016.048c-.032.032-.032.079-.048.1v.048a1.541,1.541,0,0,0-.016.286v.032c0,.016,0,.048-.016.048-.032,0-.032-.048-.032-.127l.016-.349-.1.191-.032.032.048.032-.016.048-.016.079c0,.032,0,.048.032.064.016,0,.016.016.016.032l-.032.1a.483.483,0,0,0-.048.175c0,.032,0,.048.016.048l.048-.063v.016l.032-.016.016-.032c.016,0,.016.032.016.1v.064l-.048-.064c-.016,0-.032.032-.032.079v.032c0,.032,0,.063-.016.063H15.2c-.032,0-.032.032-.032.159.016.111.032.159.063.159h.016c.016,0,.032.032.032.063l-.032.064h-.016l-.048-.016c-.016,0-.016.064-.016.206v.127c0,.079,0,.127-.016.127l-.064.032c-.016.016-.032.016-.064.016ZM12.483,6.1a.69.69,0,0,1,.3-.159H12.8l-.175.111A.467.467,0,0,1,12.483,6.1Zm-.556.413h-.016l.032-.048a.3.3,0,0,1,.127-.079.385.385,0,0,1-.143.127Zm-.333.318V6.819l.048-.064.032-.016-.016.032c-.032.048-.048.064-.063.064Zm-.159.492.032-.032.032-.1h-.016l-.032.016a.17.17,0,0,0-.032.1c0,.016,0,.016.016.016Zm1.143.4a.284.284,0,0,0,.111-.079.145.145,0,0,0,.048-.079.284.284,0,0,0-.111.079c-.032.032-.063.064-.063.079Zm-1.619.064a.087.087,0,0,0,.079-.048l.032-.048c0-.016-.016-.032-.048-.032a.085.085,0,0,0-.064.048l-.048.064c0,.016.016.016.048.016Zm1.4.127.032-.016c.048-.016.079-.064.111-.1l.016-.048a.237.237,0,0,0-.111.1Zm-.842-.032a.034.034,0,0,0,.032-.032l.016-.016-.016-.016-.032.032v.032Zm-.7.127c.016,0,.032,0,.032-.032l-.032-.032c-.032,0-.032.016-.032.032C10.784,8.01,10.8,8.01,10.816,8.01Zm1.3.143a.445.445,0,0,0,.191-.159V7.962c-.016,0-.016,0-.048.032-.127.111-.143.143-.143.159Zm-1.556.064.016-.064c0-.032.048-.079.064-.111h.016l-.016.064Zm.762-.1.032-.032V8.041c-.016,0-.032.016-.032.048l-.016.016ZM11.4,8.6c.016,0,.048-.032.111-.1a.518.518,0,0,0,.127-.175c0-.032.048-.064.1-.1a.187.187,0,0,0,.079-.1c0-.016,0-.016-.016-.016a2.108,2.108,0,0,0-.365.429Zm-.127-.413c.032,0,.032-.016.032-.032H11.26v.016Zm.81.048a.058.058,0,0,0-.016-.048c-.016,0-.016,0-.016.032l.016.016Zm-1.731.206-.016-.016.079-.079v.032C10.4,8.407,10.387,8.438,10.355,8.438Zm.349.429a.57.57,0,0,0,.238-.27.034.034,0,0,1,.032-.032c.048,0,.111-.079.127-.159V8.343l-.016.032a.141.141,0,0,1-.079.064c-.032,0-.063.032-.079.079-.016.032-.032.064-.048.064h-.016c-.016,0-.032,0-.032.016v.016l.016.016h.016c0,.016-.032.048-.079.079-.079.048-.111.079-.111.111Zm1.207-.333a.085.085,0,0,0,.063-.048c.032-.032.032-.048.032-.064s0-.016-.032-.016c-.016,0-.016,0-.016.016v.032a.051.051,0,0,1-.048.048l-.016.016Zm-.667.3.048-.064c.048-.063.064-.1.064-.111l-.1.032c-.032.016-.048.032-.048.064v.032C11.212,8.819,11.228,8.835,11.244,8.835Zm.254.1.1-.1a.685.685,0,0,0,.1-.143.015.015,0,0,0-.016-.016h-.048q-.048.024-.048.048V8.74a.121.121,0,0,1-.032.079.242.242,0,0,0-.064.1Zm-1.365-.143L10.1,8.772l.016-.032a.083.083,0,0,1,.063-.032l.016.032C10.2,8.772,10.18,8.788,10.133,8.788Zm.9.286.032-.016a.191.191,0,0,0,.079-.079l.016-.048-.016-.016a.169.169,0,0,0-.1.1Zm-.667.3a.034.034,0,0,0,.032-.032V9.327c0-.032.048-.079.111-.127l.111-.1V9.089c0-.016.016-.016.032-.032a.063.063,0,0,0,.032-.064c0-.032,0-.048-.016-.048a1.6,1.6,0,0,0-.3.349.034.034,0,0,1-.032.032l-.016.016.016.016c0,.016.016.016.032.016Zm.953-.206c.016,0,.032-.016.064-.048a.172.172,0,0,0,.048-.111.034.034,0,0,0-.032-.032c-.016,0-.048.048-.064.1l-.032.079ZM10.4,9.105l.016-.032L10.4,9.058a.016.016,0,0,0-.016-.016v.032Zm.524.143.032-.032.032-.064-.032-.016a.135.135,0,0,0-.048.079c0,.016,0,.032.016.032Zm-.587.857c.016,0,.064-.048.111-.1a1.593,1.593,0,0,1,.127-.222l.143-.222a.261.261,0,0,0,.079-.143l-.016-.048-.064.048a.085.085,0,0,1-.063.048h-.016c-.016,0-.032.016-.064.048l-.016.048.064-.016a.016.016,0,0,1,.016.016.29.29,0,0,1-.1.159c-.048.048-.064.064-.079.064l-.016-.064-.032.048a.119.119,0,0,0,.016.079l.016.032-.032.048c-.079.079-.111.127-.111.159Zm.667-.46.016-.048c.016-.016.032-.032.048-.032a.058.058,0,0,1,.048.016V9.6l-.048.032Zm-1.3.1.032-.032c0-.016,0-.032-.032-.032l-.032.032C9.688,9.74,9.688,9.74,9.7,9.74Zm.381.191c.016-.016.016-.064.016-.1,0-.048,0-.064-.016-.064h-.016l-.032.016a.164.164,0,0,0-.079.111h.064c.016,0,.032,0,.032.016s.016.016.032.016Zm.127-.048c.016,0,.032-.032.032-.048l-.032-.048c-.016,0-.032.016-.032.048Zm.524.079a.071.071,0,0,0,.048-.048c0-.016,0-.032-.016-.032h-.016a.071.071,0,0,0-.048.048c0,.016,0,.032.016.032Zm-1.365,0-.016-.016V9.915l.032.016Zm8.939.159h-.016a.016.016,0,0,1-.016-.016c0-.016,0-.032.016-.032A.058.058,0,0,1,18.309,10.121Zm.651.064h-.016a.015.015,0,0,1-.016-.016c0-.016,0-.032.016-.032A.058.058,0,0,1,18.96,10.185Zm-9.129.079c.016,0,.032-.032.048-.048v-.079s-.016,0-.032.032c-.032.032-.048.048-.048.064A.034.034,0,0,0,9.831,10.264Zm-.143.953c.032,0,.048-.016.064-.048l.079-.127a.134.134,0,0,0,.032-.1l-.016-.032h.032c.016,0,.032-.032.064-.064l.064-.143a.5.5,0,0,0,.079-.159l.127-.238a.36.36,0,0,0,.079-.159c-.016,0-.048.048-.1.111a.371.371,0,0,1-.111.143c-.016,0-.032.016-.032.048v.016c0,.079-.143.3-.191.3l-.016-.016c-.032,0-.079.063-.079.111v.048c0,.063-.032.175-.064.175v-.048c0-.016,0-.048-.016-.048s-.032.032-.032.048a.122.122,0,0,1-.032.079l-.032.032c0,.016.016.032.032.048Zm7.7-.889c.016,0,.016-.016.032-.032V10.28c0-.016,0-.016-.016-.016a.034.034,0,0,0-.032.032Zm-.1.1.048-.016-.048-.016a.058.058,0,0,0-.048.016A.07.07,0,0,0,17.293,10.423Zm-.254.032.127-.032.016-.032h-.048l-.1.048v.016Zm-.588.175q.048-.024.048-.048c0-.016,0-.016-.016-.016a.058.058,0,0,0-.048.016l-.048.032v.016Zm-.317.048.016-.016v-.016c0-.016,0-.032-.016-.032l-.032.032c0,.016,0,.032.032.032Zm.143,0v-.016l-.032-.016-.048.016c0,.016.016.016.048.016Zm-6.621.032c.016,0,.032,0,.032-.016l-.032-.032H9.625v.016a.034.034,0,0,0,.032.032Zm.651.032.016-.032c.016-.016.032-.032.048-.032v.016c0,.016-.016.016-.032.032Zm-.762.032.016-.032-.016-.032c0-.016,0-.016-.016-.016v.032a.07.07,0,0,0,.016.048Zm-.079.032c.032,0,.032-.016.032-.032s0-.032-.016-.032l-.032.032c0,.016,0,.032.016.032Zm-.032.1.016-.032-.032-.016v.016c0,.032.016.032.016.032Zm9.907.064.032-.016.016-.064h-.016c-.016,0-.016.016-.032.048v.032Zm-9.209.064.016-.079.064-.064V10.9C10.212,10.931,10.165,11.026,10.133,11.026Zm-.746-.032.016-.032-.032-.016a.016.016,0,0,0-.016.016C9.371,10.995,9.371,10.995,9.387,10.995Zm9.288.063c.016,0,.032,0,.032-.016l-.048-.032-.032.016C18.643,11.042,18.659,11.058,18.675,11.058Zm-8.716,0c.032,0,.048,0,.048-.016H9.942l-.016.016Zm8.812.111c.032,0,.064-.016.064-.032v-.016c0-.016,0-.016-.016-.016l-.1.016v.032A.058.058,0,0,0,18.77,11.169Zm-.667.079v-.016h-.048v.016ZM9.529,11.5l.064-.048a.211.211,0,0,0,.048-.127v-.016c0-.032,0-.032-.016-.032s-.032.016-.048.048a.221.221,0,0,0-.064.143c0,.016,0,.032.016.032ZM9.18,11.36c.016,0,.032-.032.032-.048s-.016-.032-.048-.032c-.016,0-.016.032-.016.063l.016.016Zm8.351-.016v-.016h-.048c0,.016,0,.016.032.016Zm-8.717.064.016-.032-.016-.016c-.016,0-.016,0-.016.016Zm8.844.079c.032,0,.063-.016.063-.032h-.063c-.048,0-.064,0-.064.016s.016.016.032.016Zm-.365.079a.441.441,0,0,0,.143-.016.135.135,0,0,0,.079-.048c0-.032,0-.032-.016-.032l-.079.016-.159.079Zm-.206.048.063-.016c0-.016-.032-.016-.063-.032h-.048l-.016.016C17.023,11.6,17.055,11.614,17.087,11.614Zm-.127.032c.032,0,.032-.016.032-.032s0-.032-.016-.032l-.032.032C16.944,11.63,16.944,11.646,16.96,11.646Zm-7.748.572a.493.493,0,0,0,.111-.191.815.815,0,0,0,.111-.27L9.4,11.741c0-.016.016-.032.032-.048.064-.032.079-.048.079-.079,0-.016-.016-.032-.064-.032-.064.016-.1.032-.1.079l.016.111q0,.024-.048.048t-.048.048v.048l-.032.127-.048.143Zm-.063-.524c.016,0,.032-.016.032-.048s-.032-.032-.079-.032c-.032,0-.048,0-.048.016l.032.032Zm7.589.016.048-.016c0-.016-.016-.032-.048-.032h-.016a.016.016,0,0,0-.016.016v.016Zm-.127,0,.032-.016v-.016h-.064l-.016.016Zm-.492.143c.016-.016.063-.016.1-.016.048,0,.064-.016.064-.032l-.032-.016h-.079c-.064.016-.111.032-.111.048s.016.016.032.016Zm-6.541.079V11.82H9.545l-.016.032.016.048Zm-.206.365a.348.348,0,0,0,.159-.1l.016-.032-.016-.016c-.032,0-.159.111-.159.143Zm-.191.016a.034.034,0,0,0,.032-.032L9.2,12.249c-.016,0-.016.016-.032.032V12.3Zm4.255.381.016-.032c0-.016.032-.032.032-.032.016,0,.016,0,.016.016s-.016.016-.032.032Zm-4.477.079.032-.016a.085.085,0,0,0,.048-.063l-.016-.016c-.016,0-.032,0-.032.016-.032,0-.048.032-.048.063C8.942,12.773,8.942,12.773,8.958,12.773Zm4.144-.016c-.016,0-.016,0-.016-.016a.312.312,0,0,1,.159-.048.172.172,0,0,1,.079-.016l.016.016c0,.016-.064.032-.175.048Zm1.556,0a.034.034,0,0,0,.032-.032v-.016c0-.016,0-.016-.016-.016a.034.034,0,0,0-.032.032Zm-5.414.032a.034.034,0,0,0,.032-.032v-.016c0-.016,0-.016-.016-.016a.034.034,0,0,0-.032.032Zm-.365.191.032-.032a.085.085,0,0,0,.048-.064.016.016,0,0,0-.016-.016l-.032.016a.145.145,0,0,0-.048.079Zm-.889.1c-.016,0-.048,0-.048-.016A.085.085,0,0,1,7.989,13a.016.016,0,0,1,.016-.016c.016,0,.016.016.016.048v.016a.034.034,0,0,1-.032.032Zm.73.46c.016,0,.048-.079.079-.159l.064-.3-.032.016c-.016.016-.032.032-.032.048v.032l-.032.127A.427.427,0,0,0,8.7,13.5c0,.016,0,.032.016.032Zm5.525-.19c-.016,0-.016-.032-.016-.048v-.016c0-.016.016-.032.048-.032.016,0,.032,0,.032.016Zm.175.032a.032.032,0,1,0-.032-.032Zm-5.811.492c.016,0,.048-.079.064-.175l.016-.127c0,.016-.016.032-.048.064a.337.337,0,0,0-.048.111v.1l-.016.032Zm5.589-.191c0-.016,0-.032-.016-.032V13.63c-.016,0-.016.016-.016.032a.016.016,0,0,0,.016.016Zm-.27.063-.016-.016a.068.068,0,0,1,.064-.064h.016v.016c0,.016-.016.032-.032.048Zm-.317.444a.082.082,0,0,1,.032-.063.715.715,0,0,0,.1-.143c.032-.063.079-.127.1-.127l.016.016a1.194,1.194,0,0,1-.159.254c-.032.032-.064.063-.079.063Zm.524.842L14.165,15a.593.593,0,0,0,.111-.1c.016-.032.048-.064.048-.079l.079-.1c.048-.048.079-.079.079-.111V14.6a.051.051,0,0,1,.048-.048.085.085,0,0,0,.048-.063.221.221,0,0,1,.064-.143c.048-.048.064-.079.064-.1l-.016-.032h-.032c-.032.016-.048.032-.048.048l-.032.079a.543.543,0,0,0-.127.254c0,.032-.032.063-.079.079s-.1.048-.1.079v.016c0,.032-.016.048-.032.048a.2.2,0,0,0-.079.127Zm-.683-.572.016-.032a.069.069,0,0,1,.016-.048H13.5l-.016.064Zm.667.1.032-.032c0-.016,0-.032-.016-.032-.032,0-.032.016-.032.032S14.1,14.551,14.118,14.551Zm-.619.127c.016,0,.032-.016.032-.048l-.016-.032H13.5l-.032.063Zm-.286.46c.032,0,.048-.016.048-.032s-.032-.032-.048-.032c-.032,0-.048.016-.048.032S13.181,15.139,13.213,15.139Zm.873.032a.051.051,0,0,0,.048-.048q-.024-.048-.048-.048c-.016,0-.032.016-.032.048v.016A.034.034,0,0,0,14.086,15.17Zm.159.063c.016,0,.016-.032.016-.063l-.016-.064c-.016,0-.016.032-.032.064C14.213,15.2,14.229,15.234,14.245,15.234Zm.064.064c.016,0,.032-.032.048-.079l.016-.048-.016-.016H14.34a.124.124,0,0,0-.048.111C14.293,15.281,14.293,15.3,14.308,15.3Zm.064.413c.016,0,.064-.048.111-.111a.561.561,0,0,0,.1-.3l-.016-.079c-.016-.032-.032-.032-.032-.048-.016,0-.016.016-.032.032a.063.063,0,0,0,.032.064l.016.016c0,.048-.1.111-.191.111-.064,0-.111.032-.111.048s.016.016.048.016c.016,0,.032.016.032.048v.016a.034.034,0,0,0,.032.032c.032,0,.032,0,.032.016l-.016.016a.119.119,0,0,0-.016.079c0,.032,0,.048.016.048Zm-.333-.476.032-.016-.016-.016h-.032v.016Zm.175.064a.016.016,0,0,0,.016-.016v-.016h-.048c0,.016,0,.032.032.032Zm-.333.175c.048,0,.143-.143.143-.191,0-.016-.032-.016-.064-.016-.032.016-.048.032-.048.064a.122.122,0,0,1-.032.079l-.032.016Zm-1.111-.016v-.064c0-.032.016-.048.032-.048h.016l.016.032-.016.032Zm1.889-.032c.016,0,.016-.016.016-.032s-.016-.032-.048-.032l-.016.016.016.016c0,.016.032.032.032.032Zm-.016.064c.032,0,.032-.016.032-.016l-.032-.016a.016.016,0,0,0-.016.016Zm-.492.079a.058.058,0,0,0,.016-.048V15.5h-.032c-.016.016-.032.032-.032.048l.032.016Zm-.842.73c.016,0,.064-.048.111-.111a.686.686,0,0,1,.159-.159l.032-.016-.016-.048.064-.127a.3.3,0,0,0,.079-.127.034.034,0,0,1,.032-.032.034.034,0,0,0,.032-.032.087.087,0,0,1,.048-.079l.032-.032-.016-.016a.5.5,0,0,0-.222.222.247.247,0,0,1-.1.127.684.684,0,0,0-.1.143.445.445,0,0,1-.079.127.327.327,0,0,0-.079.143Zm-5.827-.651a.016.016,0,0,1-.016-.016v-.016a.034.034,0,0,1,.032-.032l.016.032a.034.034,0,0,1-.032.032Zm8.3.1.032-.048-.032-.016a.034.034,0,0,0-.032.032c.016.016.016.032.032.032ZM13.658,16l.032-.032c0-.016,0-.032-.016-.032a.034.034,0,0,0-.032.032C13.642,15.98,13.642,16,13.658,16Zm.143,0a.034.034,0,0,0,.032-.032l-.016-.032c-.016,0-.016.016-.032.032v.016Zm.286.191.032-.1a.344.344,0,0,1,.1-.111l-.032.1C14.134,16.155,14.1,16.186,14.086,16.186Zm-.27,0c.016,0,.032-.016.048-.063a.087.087,0,0,0-.048-.079h-.032c-.016.016-.032.032-.032.048l.016.048c.016.032.032.048.048.048Zm-.429.476.064-.032a.472.472,0,0,0,.175-.206.326.326,0,0,0,.079-.143l-.032-.064.032-.1v-.016h-.032c-.032,0-.079.063-.111.143,0,.032-.016.048-.032.048h-.016a.085.085,0,0,0-.063.048l-.016.079c0,.016,0,.016.016.016h.1l-.111.175Zm.127-.476a.034.034,0,0,0,.032-.032l.016-.016-.016-.016-.048.048Zm-5,.063a.059.059,0,0,0,.032-.048v-.016c0-.016,0-.032-.016-.032s-.032.032-.032.048v.016C8.5,16.234,8.5,16.25,8.513,16.25Zm5.986.191c.048,0,.079-.063.079-.127a.071.071,0,0,0-.048-.064c-.016,0-.016.016-.016.032V16.3l-.016.048-.032.048Zm-.857-.1h-.016l-.016-.032c0-.016,0-.016.016-.016A.058.058,0,0,1,13.642,16.345Zm1.572,0c.032,0,.032,0,.032-.016H15.2v.016Zm-6.7.143v-.127a.016.016,0,0,0-.016-.016v.079Zm4.684-.016v-.016l-.016-.048-.032-.016.016.032Zm.476.3h-.016c-.032-.016-.032-.032-.032-.048h.048a.473.473,0,0,0,.191-.27V16.44a.016.016,0,0,1-.016-.016h.032c.016.016.032.032.032.048,0,.032-.032.079-.1.175s-.111.127-.143.127Zm-.3-.159.048-.063.016-.048c0-.016-.016-.016-.048-.016s-.048.016-.048.063C13.356,16.583,13.356,16.615,13.372,16.615Zm1.127-.048a.058.058,0,0,0-.016-.048c-.016,0-.016,0-.016.032a.016.016,0,0,0,.016.016Zm-2.588.079a.034.034,0,0,0,.032-.032l-.016-.032c-.016,0-.016.016-.032.032v.016Zm1.794-.016h-.016l-.016-.016c0-.016,0-.032.016-.032A.058.058,0,0,1,13.705,16.631Zm1.953.032.016-.032-.032-.016-.016.032Zm-3.937.079-.016-.016.016-.016a.034.034,0,0,1,.032-.032v.032Zm1.858,0-.016-.016.016-.016a.034.034,0,0,1,.032-.032v.032Zm-1.731,0,.032-.032c0-.016,0-.032-.016-.032l-.032.016v.016c0,.016,0,.032.016.032Zm1.016.127c.016,0,.032-.016.048-.048l.032-.079v-.016c0-.016,0-.016-.016-.016-.032,0-.064.048-.064.1v.063Zm1.6-.016a.058.058,0,0,0-.016-.048c-.016,0-.016.016-.016.032a.016.016,0,0,0,.016.016Zm-1.127.032.016-.032-.032-.016v.048Zm-.079.016.032-.016c0-.016-.016-.032-.048-.032v-.016l-.016.016a.016.016,0,0,0-.016.016c.016.016.032.032.048.032Zm2.3.238c.016,0,.016-.016.032-.032L15.61,17l-.016-.016-.016.032a.27.27,0,0,0-.016.111v.016Zm-2.54-.016q.024,0,.048-.048V17l-.048.032-.032.063A.034.034,0,0,0,13.022,17.123Zm-.3-.032V17.06a.034.034,0,0,0-.032-.032c-.016,0-.016.016-.016.032C12.689,17.075,12.7,17.091,12.721,17.091Zm-1.048,0,.032-.016h-.016a.015.015,0,0,0-.016-.016c-.016,0-.016,0-.016.016Zm.9.286.016-.016-.016-.032c0-.032,0-.048.032-.048.048,0,.079-.064.079-.1a.058.058,0,0,0-.016-.048h-.016l-.063.032a.36.36,0,0,0-.064.143c0,.032.016.063.048.063Zm.27.048.079-.016.016-.016-.016-.032.016-.016c.032,0,.048-.032.048-.063a.121.121,0,0,0-.032-.079l-.032-.016h-.016c-.016,0-.048.032-.079.079a.253.253,0,0,0-.048.127.034.034,0,0,0,.032.032Zm2.7-.175.016-.016s0-.032-.016-.032v-.016c-.016,0-.016.016-.016.032Zm-2.731.159a.016.016,0,0,1-.016-.016.549.549,0,0,1,.127-.143C12.927,17.282,12.848,17.409,12.816,17.409Zm.318,0a.07.07,0,0,1-.016-.048V17.33a.016.016,0,0,1,.016.016l.016.032Zm-.667.111.032-.032c.032-.016.032-.064.032-.079a.1.1,0,0,0-.079-.032c-.016,0-.032.016-.032.048l.032.079c0,.016,0,.016.016.016Zm3.033-.079.016-.016v-.016c0-.016,0-.032-.016-.032l-.032.032c0,.016,0,.032.032.032Zm-.444,0,.016-.016-.016-.048c-.016,0-.016.016-.016.032Zm-2.731.127.048-.111-.016-.016c-.016,0-.032.032-.032.064l-.016.048Zm-1.064-.032c.016,0,.048-.016.048-.032v-.016c0-.016-.016-.016-.032-.032l-.063-.016c-.016.016-.016.016-.016.048A.085.085,0,0,0,11.26,17.536Zm1.429.159a.145.145,0,0,0,.079-.048l.016-.048-.048.032c-.032.032-.063.048-.063.064Zm2.778.032.016-.016c.016,0,.032-.032.032-.064s0-.048-.016-.048l-.016.032a.174.174,0,0,0-.016.079v.016Zm-3.08-.032c.016,0,.016-.016.032-.048v-.032H12.4c-.016.016-.032.032-.032.048Zm-1.365.063a.115.115,0,0,0,.1-.063l.032-.064v-.016c-.016,0-.048.016-.079.064a.145.145,0,0,0-.048.079Zm1.286,0,.032-.032v-.032a.034.034,0,0,0-.032.032l-.016.016Zm2.016,0,.016-.032-.032-.016v.016c0,.032.016.032.016.032Zm-1.858,0-.016-.032-.032.016c0,.016,0,.016.032.016Zm2.89.063.016-.032-.016-.016c-.016,0-.016,0-.016.016C15.34,17.822,15.356,17.822,15.356,17.822Zm-2.763.1c.016,0,.032-.016.048-.032l.032-.048c0-.016,0-.032-.016-.032l-.048.016c-.032,0-.048.032-.048.064a.034.034,0,0,0,.032.032Zm-.318.063-.016-.032.016-.048c.016,0,.016-.016.016-.032v-.032l-.079.127.032.016Zm-.079.1a.034.034,0,0,0,.032-.032c0-.016,0-.016-.016-.016l-.079-.016L12.1,18c-.016,0-.016,0-.016.016a.134.134,0,0,0,.111.064Zm2.1.143.048-.032c0-.032-.016-.032-.032-.032-.032,0-.048,0-.048.032A.034.034,0,0,0,14.293,18.219ZM12.1,18.2v-.048h-.016s-.016,0-.016.032Zm2.175.365c.016,0,.016-.048.016-.111-.016-.063-.032-.111-.048-.111s-.016.016-.016.063a.312.312,0,0,0,.016.111Zm-2.413-.1.079-.032.032-.032h-.016l-.079.032-.032.032Zm-.048.079.016-.032L11.8,18.5v.048Zm-.254.143c.016,0,.032-.032.048-.064l.032-.032s-.016,0-.032.032a.11.11,0,0,0-.064.048Zm.238.016.016-.016.016-.048-.032-.016a.034.034,0,0,0-.032.032v.032Zm3.509.1c.032,0,.064-.032.079-.079v-.064h-.016a.2.2,0,0,0-.1.127c0,.016.016.016.032.016Zm-1.1-.048c.032,0,.032-.016.032-.032s0-.032-.016-.032l-.032.032C14.2,18.743,14.2,18.758,14.213,18.758ZM11.53,18.9l.064-.016.127-.079.032-.032-.032-.032H11.7a.243.243,0,0,0-.111.079C11.546,18.87,11.53,18.885,11.53,18.9Zm3.429-.079c.032,0,.032-.016.032-.016l-.032-.016a.016.016,0,0,0-.016.016Zm-.746.111.032-.016.016-.079-.032-.016c-.016,0-.032.032-.032.079Zm-.032.111a.034.034,0,0,0,.032-.032l-.016-.032-.032.032C14.165,19.028,14.165,19.044,14.181,19.044Zm.048.159a.058.058,0,0,0-.016-.048H14.2v.016c0,.032.016.032.032.032Zm1.032.032a.058.058,0,0,0-.016-.048h-.016V19.2c0,.032.016.032.032.032Zm-4.064.1c.032,0,.032,0,.032-.016L11.2,19.3l-.016.032Zm4.112.492-.016-.016.016-.016c0-.032.016-.032.032-.032v.032Zm.016.365-.032-.016.016-.032h.016v.048Zm-.048.27a.194.194,0,0,1-.016-.079v-.032c0-.032,0-.048.016-.048s.016.032.016.079A.193.193,0,0,1,15.277,20.457Z" fill="#fff"/>
</svg>
