<svg xmlns="http://www.w3.org/2000/svg" width="25.522" height="82.955" viewBox="0 0 25.522 82.955">
  <g id="icon_bebidas" transform="translate(2.208 -0.546)">
    <g id="g4041" transform="translate(-0.208 2.545)">
      <path id="path3828" d="M6.082,38.393c-.9.308-.9,3.374-.344,3.825.262.211.2.332.122,1.046-.346,3.147-.8,7.933-1.018,12.3-.259,5.137.382,8.714-1.261,11.712C2.106,69.155-.187,70.78-.194,73.44c-.032,12.954,0,25.909,0,38.863,0,1.108,1.427,2.827,3.533,3.624a21.33,21.33,0,0,0,7.214,1.126,21.374,21.374,0,0,0,7.215-1.13c2.106-.8,3.531-2.516,3.531-3.624,0-12.953.032-25.906,0-38.859-.007-2.66-2.3-4.284-3.774-6.16-1.642-3-1-6.575-1.261-11.712-.22-4.369-.673-9.154-1.018-12.3-.078-.714-.139-.835.122-1.046.561-.451.56-3.518-.344-3.825a18.566,18.566,0,0,0-4.472-.3,18.363,18.363,0,0,0-4.472.292Z" transform="translate(0.208 -38.097)" fill="none" stroke="#fff" stroke-width="4"/>
    </g>
  </g>
</svg>
