<svg xmlns="http://www.w3.org/2000/svg" width="25.21" height="25.21" viewBox="0 0 25.21 25.21">
  <g id="icon-avatar" transform="translate(-2.94 -2.94)">
    <path id="Path_171" data-name="Path 171" d="M66.627,54.507v-.014a5.8,5.8,0,0,0-5.819-4.971h-.13a5.846,5.846,0,0,0-5.818,4.9v.016h0V54.7a.541.541,0,0,1-1.081,0v-.065h0a6.8,6.8,0,0,1,4.366-5.5l.186-.07-.165-.11a4.926,4.926,0,0,1-2.2-4.09,4.781,4.781,0,1,1,7.36,4.089l-.174.108.191.074A6.934,6.934,0,0,1,67.7,54.455v.182a.541.541,0,0,1-1.081,0v-.13Zm-2.055-9.828a3.829,3.829,0,1,0-3.829,3.829,3.829,3.829,0,0,0,3.829-3.829Z" transform="translate(-45.198 -32.732)" stroke="#000" stroke-width="1"/>
    <path id="Path_172" data-name="Path 172" d="M15.545,27.65a12.1,12.1,0,1,1,12.1-12.1A12.1,12.1,0,0,1,15.545,27.65Zm0-23.323A11.218,11.218,0,1,0,26.763,15.545,11.218,11.218,0,0,0,15.545,4.327Z" stroke="#000" stroke-width="1"/>
  </g>
</svg>
