<svg width="39" height="44" viewBox="0 0 39 44" fill="none" xmlns="http://www.w3.org/2000/svg">
<path d="M2.40213e-09 12.3742V9.36658C0.058032 8.27811 0.493272 7.36151 1.30572 6.61676C2.11817 5.87202 3.0757 5.49965 4.1783 5.49965H8.35661V4.12473C8.35661 2.97897 8.76283 2.00508 9.57528 1.20305C10.3877 0.401016 11.3743 0 12.5349 0H26.4626C27.6232 0 28.6098 0.401016 29.4222 1.20305C30.2347 2.00508 30.6409 2.97897 30.6409 4.12473V5.49965H34.8192C35.9218 5.49965 36.8793 5.87202 37.6918 6.61676C38.5042 7.36151 38.9395 8.27811 38.9975 9.36658V12.3742C38.9975 13.1189 38.7219 13.7634 38.1706 14.3077C37.6193 14.8519 36.9664 15.1241 36.212 15.124V38.4975C36.212 40.0443 35.6752 41.3476 34.6016 42.4074C33.528 43.4673 32.2078 43.9972 30.6409 43.9972H8.35661C6.78975 43.9972 5.46951 43.4673 4.3959 42.4074C3.3223 41.3476 2.78551 40.0443 2.78554 38.4975V15.124C2.03112 15.124 1.37825 14.8519 0.826934 14.3077C0.275615 13.7635 -2.97119e-05 13.119 2.40213e-09 12.3742H2.40213e-09ZM2.78554 12.3742H36.212V9.62438C36.212 9.22337 36.0814 8.89395 35.8202 8.63614C35.5591 8.37833 35.2254 8.24943 34.8192 8.24943H4.17826C3.77204 8.24943 3.43834 8.37833 3.17719 8.63614C2.91603 8.89395 2.78545 9.22337 2.78545 9.62438V12.3742H2.78554ZM5.57107 38.4975C5.57107 39.2423 5.84672 39.8868 6.39801 40.431C6.9493 40.9753 7.60216 41.2474 8.35661 41.2473H30.6409C31.3953 41.2473 32.0482 40.9752 32.5995 40.431C33.1508 39.8868 33.4265 39.2423 33.4264 38.4975V15.124H5.57107V38.4975V38.4975ZM8.35661 37.1226V19.2488C8.35661 18.8477 8.48719 18.5183 8.74835 18.2605C9.00951 18.0027 9.3432 17.8738 9.74942 17.8738H12.535C12.9412 17.8738 13.2749 18.0027 13.536 18.2605C13.7972 18.5183 13.9278 18.8477 13.9278 19.2488V37.1226C13.9278 37.5236 13.7972 37.853 13.536 38.1108C13.2749 38.3687 12.9412 38.4976 12.535 38.4976H9.74942C9.3432 38.4976 9.00951 38.3687 8.74835 38.1108C8.48719 37.853 8.35661 37.5236 8.35661 37.1226ZM9.74938 37.1226H12.5349V19.2488H9.74938V37.1226V37.1226ZM11.1421 5.49965H27.8554V4.12473C27.8554 3.72372 27.7248 3.39431 27.4636 3.13649C27.2025 2.87868 26.8688 2.74978 26.4626 2.74978H12.5349C12.1286 2.74978 11.795 2.87868 11.5338 3.13649C11.2726 3.39431 11.1421 3.72372 11.1421 4.12473V5.49965H11.1421ZM16.7132 37.1226V19.2488C16.7132 18.8477 16.8438 18.5183 17.105 18.2605C17.3661 18.0027 17.6998 17.8738 18.106 17.8738H20.8916C21.2978 17.8738 21.6315 18.0027 21.8926 18.2605C22.1538 18.5183 22.2844 18.8477 22.2844 19.2488V37.1226C22.2844 37.5236 22.1538 37.853 21.8926 38.1108C21.6315 38.3687 21.2978 38.4976 20.8916 38.4976H18.106C17.6998 38.4976 17.3661 38.3687 17.105 38.1108C16.8438 37.853 16.7132 37.5236 16.7132 37.1226ZM18.106 37.1226H20.8915V19.2488H18.106V37.1226ZM25.0698 37.1226V19.2488C25.0698 18.8477 25.2004 18.5183 25.4616 18.2605C25.7227 18.0027 26.0564 17.8738 26.4626 17.8738H29.2482C29.6544 17.8738 29.9881 18.0027 30.2493 18.2605C30.5104 18.5183 30.641 18.8477 30.641 19.2488V37.1226C30.641 37.5236 30.5104 37.853 30.2493 38.1108C29.9881 38.3687 29.6544 38.4976 29.2482 38.4976H26.4626C26.0564 38.4976 25.7227 38.3687 25.4616 38.1108C25.2004 37.853 25.0698 37.5236 25.0698 37.1226ZM26.4626 37.1226H29.2481V19.2488H26.4626V37.1226Z" fill="#808080"/>
</svg>
