<svg xmlns="http://www.w3.org/2000/svg" width="24.21" height="24.229" viewBox="0 0 24.21 24.229">
  <g id="icon-shopping-cart" transform="translate(-10 -9.989)">
    <path id="Path_170" data-name="Path 170" d="M29.02,30.721a1.721,1.721,0,1,0,1.224.5,1.718,1.718,0,0,0-1.224-.5Zm-9.257,0a1.674,1.674,0,0,0-1.71,1.712,1.72,1.72,0,0,0,1.71,1.766,1.763,1.763,0,0,0,1.761-1.766,1.716,1.716,0,0,0-1.761-1.712ZM32.271,14.646l-17.246.03-.215-2.562a2.615,2.615,0,0,0-2.028-2.06S10,9.278,10,13.107h1.658s2.567,15,2.567,15.457a1.021,1.021,0,0,0,1,1.038h15.8c.553,0,.875-.531.875-1.171,0-.934-.934-1.126-1.467-1.126H16.907V24.918l15.41.03A2.658,2.658,0,0,0,34.2,22.413l.01-6.213a1.752,1.752,0,0,0-1.939-1.554Zm-.368,7.1a.949.949,0,0,1-.981.914H18.229a1.571,1.571,0,0,1-1.317-1.151l-1.168-3.7a.95.95,0,0,1,.981-.914h14.2a.95.95,0,0,1,.981.914Z"/>
  </g>
</svg>
