<svg xmlns="http://www.w3.org/2000/svg" width="62.063" height="70.928" viewBox="0 0 62.063 70.928">
  <path id="icon_congelados" d="M64.954,50.168l-.273-.158a2.209,2.209,0,0,0-2.075-3.9l-2.518,1.246L57.61,45.927,62.7,44.135a2.217,2.217,0,0,0-1.474-4.183l-8.676,3.055-.615-.355,1.946-2.214a2.1,2.1,0,0,0,.255-.356,2.216,2.216,0,0,0-3.584-2.569l-2.53,2.879-3.02-1.74V32.274l3.02-1.74,2.53,2.88a2.216,2.216,0,0,0,3.584-2.569,2.16,2.16,0,0,0-.255-.356l-1.946-2.214.615-.355,8.676,3.055A2.217,2.217,0,0,0,62.7,26.794L57.61,25l2.478-1.431,2.518,1.246a2.208,2.208,0,0,0,2.075-3.9l.273-.158a2.216,2.216,0,0,0-2.216-3.839l-.266.154a2.211,2.211,0,0,0-4.419-.147l-.181,2.8-2.478,1.431.993-5.306a2.217,2.217,0,0,0-4.358-.816l-1.692,9.041-.615.356-.944-2.793a2.217,2.217,0,0,0-4.2,1.422L45.806,26.7l-3.058,1.761-5.5-3.146V21.765l3.76-.751a2.216,2.216,0,0,0-.871-4.347l-2.889.579v-.71l6.984-5.986a2.216,2.216,0,1,0-2.885-3.366l-4.1,3.512V7.835l2.337-1.558a2.211,2.211,0,0,0-2.337-3.753V2.216a2.216,2.216,0,1,0-4.433,0v.308a2.211,2.211,0,0,0-2.337,3.753l2.337,1.558V10.7l-4.1-3.513a2.216,2.216,0,0,0-2.885,3.366l6.983,5.987v.71l-2.89-.577a2.216,2.216,0,1,0-.869,4.347l3.759.75v3.546l-5.5,3.144-3.057-1.761,1.228-3.631a2.216,2.216,0,1,0-4.2-1.422l-.945,2.793-.615-.356-1.692-9.041a2.217,2.217,0,1,0-4.358.816l.993,5.306-2.477-1.431-.182-2.8a2.211,2.211,0,0,0-4.419.147l-.266-.152A2.216,2.216,0,1,0,5.108,20.76l.274.158a2.208,2.208,0,0,0,2.074,3.9L9.975,23.57,12.452,25,7.359,26.794a2.217,2.217,0,0,0,1.473,4.183l8.676-3.055.615.355L16.177,30.49a2.168,2.168,0,0,0-.256.356,2.216,2.216,0,0,0,3.585,2.569l2.531-2.88,3.019,1.74v6.379l-3.019,1.739-2.531-2.879a2.216,2.216,0,0,0-3.585,2.569,2.122,2.122,0,0,0,.256.356l1.946,2.214-.615.355L8.832,39.953a2.217,2.217,0,0,0-1.473,4.183l5.092,1.792L9.975,47.359,7.456,46.113a2.217,2.217,0,0,0-2.9,3.1,2.191,2.191,0,0,0,.827.8l-.274.157a2.216,2.216,0,0,0,2.216,3.839l.267-.155A2.211,2.211,0,0,0,12.01,54l.182-2.8,2.477-1.43-.993,5.305a2.217,2.217,0,1,0,4.358.816l1.692-9.041.615-.355.945,2.793a2.216,2.216,0,1,0,4.2-1.421l-1.228-3.631,3.057-1.761,5.5,3.143v3.548l-3.759.751a2.216,2.216,0,1,0,.869,4.347l2.89-.579v.71L25.83,60.378a2.216,2.216,0,1,0,2.885,3.366l4.1-3.512v2.86l-2.337,1.558A2.211,2.211,0,0,0,32.814,68.4v.308a2.216,2.216,0,0,0,4.433,0V68.4a2.208,2.208,0,0,0,2.337-3.745l-2.337-1.558v-2.86l4.1,3.513a2.217,2.217,0,1,0,2.886-3.366l-6.984-5.987v-.71l2.889.577a2.119,2.119,0,0,0,.438.044,2.216,2.216,0,0,0,.433-4.39l-3.76-.751V45.615l5.5-3.144,3.058,1.761L44.58,47.863a2.216,2.216,0,1,0,4.2,1.421l.944-2.793.615.355,1.692,9.041a2.217,2.217,0,1,0,4.358-.816l-.993-5.305,2.478,1.43.181,2.8a2.211,2.211,0,0,0,4.419-.149l.266.155a2.216,2.216,0,1,0,2.215-3.838ZM29.49,38.611V32.318l5.541-3.166,5.541,3.166v6.294l-5.541,3.165Z" transform="translate(-4)" fill="#fff"/>
</svg>
