<svg xmlns="http://www.w3.org/2000/svg" width="54.082" height="53.774" viewBox="0 0 54.082 53.774">
  <g id="icon_granos" transform="translate(0 -0.154)">
    <path id="Path_91" data-name="Path 91" d="M39.053,17.527a6.228,6.228,0,0,0,5.2-5.2l.994-3.6-3.6.994a6.23,6.23,0,0,0-5.2,5.2L36.014,16.5h0L.293,52.221a1,1,0,1,0,1.414,1.414L37.342,18Zm-.636-2.246a4.239,4.239,0,0,1,3.59-3.59l.374-.1-.1.373a4.239,4.239,0,0,1-3.59,3.59l-.374.1Z" fill="#fff"/>
    <path id="Path_92" data-name="Path 92" d="M32.529,19.183l1.841-3.245a6.229,6.229,0,0,0,0-7.356L32.529,5.335,30.688,8.582a6.227,6.227,0,0,0,0,7.356Zm-.2-9.462.2-.332.2.332a4.242,4.242,0,0,1,0,5.078l-.2.331-.2-.331A4.241,4.241,0,0,1,32.333,9.721Z" fill="#fff"/>
    <path id="Path_93" data-name="Path 93" d="M37.99,19.559,34.744,21.4l3.246,1.841a6.228,6.228,0,0,0,7.356,0L48.593,21.4l-3.247-1.841A6.224,6.224,0,0,0,37.99,19.559ZM44.207,21.6a4.241,4.241,0,0,1-5.077,0l-.332-.2.332-.2a4.235,4.235,0,0,1,5.077,0l.332.2Z" fill="#fff"/>
    <path id="Path_94" data-name="Path 94" d="M26.165,25.548,28.006,22.3a6.226,6.226,0,0,0,0-7.355L26.165,11.7l-1.841,3.247a6.229,6.229,0,0,0,0,7.355Zm-.2-9.463.2-.332.2.332a4.239,4.239,0,0,1,0,5.076l-.2.332-.2-.332A4.239,4.239,0,0,1,25.969,16.085Z" fill="#fff"/>
    <path id="Path_95" data-name="Path 95" d="M31.627,25.922l-3.246,1.841L31.627,29.6a6.231,6.231,0,0,0,7.358,0l3.245-1.841-3.245-1.841A6.233,6.233,0,0,0,31.627,25.922Zm6.217,2.037a4.239,4.239,0,0,1-5.078,0l-.332-.2.332-.2a4.244,4.244,0,0,1,5.078,0l.332.2Z" fill="#fff"/>
    <path id="Path_96" data-name="Path 96" d="M19.8,31.912l1.841-3.247a6.23,6.23,0,0,0,0-7.356L19.8,18.064,17.96,21.309a6.227,6.227,0,0,0,0,7.356Zm-.2-9.465.2-.331.2.331a4.242,4.242,0,0,1,0,5.078l-.2.332-.2-.332A4.241,4.241,0,0,1,19.6,22.447Z" fill="#fff"/>
    <path id="Path_97" data-name="Path 97" d="M25.263,32.286l-3.246,1.841,3.246,1.841a6.228,6.228,0,0,0,7.356,0l3.246-1.841-3.246-1.841A6.233,6.233,0,0,0,25.263,32.286Zm6.217,2.037a4.241,4.241,0,0,1-5.078,0l-.332-.2.332-.2a4.242,4.242,0,0,1,5.078,0l.332.2Z" fill="#fff"/>
    <path id="Path_98" data-name="Path 98" d="M13.437,38.274l1.841-3.245a6.227,6.227,0,0,0,0-7.356l-1.841-3.245L11.6,27.673a6.23,6.23,0,0,0,0,7.356Zm-.2-9.462.2-.331.2.331a4.244,4.244,0,0,1,0,5.079l-.2.331-.2-.331A4.244,4.244,0,0,1,13.241,28.812Z" fill="#fff"/>
    <path id="Path_99" data-name="Path 99" d="M18.9,38.65l-3.246,1.841L18.9,42.332a6.228,6.228,0,0,0,7.356,0L29.5,40.491,26.254,38.65A6.227,6.227,0,0,0,18.9,38.65Zm6.218,2.038a4.242,4.242,0,0,1-5.078,0l-.332-.2.332-.2a4.236,4.236,0,0,1,5.078,0l.332.2Z" fill="#fff"/>
    <path id="Path_100" data-name="Path 100" d="M7.073,44.64l1.841-3.247a6.226,6.226,0,0,0,0-7.355L7.073,30.79,5.232,34.037a6.226,6.226,0,0,0,0,7.355Zm-.2-9.463.2-.332.2.332a4.239,4.239,0,0,1,0,5.076l-.2.332-.2-.332A4.239,4.239,0,0,1,6.876,35.177Z" fill="#fff"/>
    <path id="Path_101" data-name="Path 101" d="M12.535,45.014,9.289,46.855,12.535,48.7a6.23,6.23,0,0,0,7.357,0l3.246-1.841-3.246-1.841A6.232,6.232,0,0,0,12.535,45.014Zm6.217,2.037a4.236,4.236,0,0,1-5.078,0l-.332-.2.332-.2a4.242,4.242,0,0,1,5.078,0l.332.2Z" fill="#fff"/>
    <path id="Path_102" data-name="Path 102" d="M36.11,7.811a1,1,0,0,0,.707-.293l5.657-5.657A1,1,0,0,0,41.06.447L35.4,6.1a1,1,0,0,0,.707,1.707Z" fill="#fff"/>
    <path id="Path_103" data-name="Path 103" d="M39.646,8.932a1,1,0,0,0,1.414,0l7.071-7.071A1,1,0,0,0,46.717.447L39.646,7.518A1,1,0,0,0,39.646,8.932Z" fill="#fff"/>
    <path id="Path_104" data-name="Path 104" d="M52.374,6.1,45.3,13.175a1,1,0,1,0,1.414,1.414l7.071-7.071A1,1,0,0,0,52.374,6.1Z" fill="#fff"/>
    <path id="Path_105" data-name="Path 105" d="M46.01,8.225a1,1,0,0,0,1.414,0l6.364-6.364A1,1,0,0,0,52.374.447L46.01,6.811A1,1,0,0,0,46.01,8.225Z" fill="#fff"/>
    <path id="Path_106" data-name="Path 106" d="M52.374,11.761l-5.657,5.656a1,1,0,1,0,1.414,1.414l5.657-5.656a1,1,0,0,0-1.414-1.414Z" fill="#fff"/>
  </g>
</svg>
