<svg xmlns="http://www.w3.org/2000/svg" width="34.801" height="74.366" viewBox="0 0 34.801 74.366">
  <g id="icon_cuidado" transform="translate(-171.36 -69.726)">
    <path id="rect5061" d="M175.87,117.49c2.087,19.693,3.514,38.215,4.4,55.752,6.089,2.3,8.375,2.579,11.156,2.581,2.115.009,4.708-.1,10.506-2.581.889-17.537,2.315-36.058,4.4-55.752H175.87Z" transform="translate(-2.318 -42.269)" fill="none" stroke="#fff" stroke-linejoin="round" stroke-width="4"/>
    <path id="path5053" d="M254.61,843.057c0,1.022-4.871,1.85-10.88,1.85s-10.88-.828-10.88-1.85v-10.4c0,1.022,4.871,1.85,10.88,1.85s10.88-.828,10.88-1.85Z" transform="translate(-54.946 -702.815)" fill="none" stroke="#fff" stroke-linejoin="round" stroke-width="4"/>
    <rect id="rect5059" width="30.801" height="3.503" transform="translate(173.36 71.726)" fill="none" stroke="#fff" stroke-linejoin="round" stroke-width="4"/>
  </g>
</svg>
