<svg xmlns="http://www.w3.org/2000/svg" width="66.793" height="63.757" viewBox="0 0 66.793 63.757">
  <g id="icon_cheese" transform="translate(-7.237 -6)">
    <path id="Path_63" data-name="Path 63" d="M72.512,34.843a1.435,1.435,0,0,0,1.518-1.518v-7.59C74.03,14.8,63.859,6,51.26,6a.923.923,0,0,0-.608.15L8.148,24.367a1.329,1.329,0,0,0-.911,1.368V47.29A1.878,1.878,0,0,0,7.844,48.5a1.474,1.474,0,0,0,1.366.151,3.065,3.065,0,1,1,0,5.77,1.472,1.472,0,0,0-1.366.151,1.381,1.381,0,0,0-.607,1.214V65.2a4.472,4.472,0,0,0,4.554,4.554H22.417a1.434,1.434,0,0,0,1.518-1.518,3.036,3.036,0,0,1,6.072,0,1.434,1.434,0,0,0,1.518,1.518h37.95A4.472,4.472,0,0,0,74.029,65.2V42.432a1.435,1.435,0,0,0-1.518-1.518,3.036,3.036,0,0,1,0-6.072M51.563,9.036c10.171.15,18.368,6.831,19.279,15.18H40.178a1.594,1.594,0,0,0-1.367.759,1.56,1.56,0,0,1-2.58,0,1.352,1.352,0,0,0-1.215-.759H16.193ZM70.994,43.8V65.2a1.435,1.435,0,0,1-1.518,1.518H32.891a6.056,6.056,0,0,0-5.92-4.554,6.191,6.191,0,0,0-5.92,4.554h-9.26A1.435,1.435,0,0,1,10.273,65.2v-7.59a6.072,6.072,0,1,0,0-12.144V27.252H34.257A4.882,4.882,0,0,0,37.6,28.77a4.6,4.6,0,0,0,3.34-1.518H70.993v4.7a6.058,6.058,0,0,0-4.554,5.921A6.192,6.192,0,0,0,70.994,43.8" transform="translate(0 0)" fill="#fff"/>
    <path id="Path_64" data-name="Path 64" d="M122.834,91.713a6.072,6.072,0,1,1-6.072,6.072,6.072,6.072,0,0,1,6.072-6.072" transform="translate(-74.611 -58.389)" fill="#fff"/>
    <path id="Path_66" data-name="Path 66" d="M53.131,101.237a3.036,3.036,0,1,1-3.036,3.036,3.037,3.037,0,0,1,3.036-3.036" transform="translate(-29.196 -64.877)" fill="#fff"/>
    <path id="Path_67" data-name="Path 67" d="M172.18,163.143a3.036,3.036,0,1,1-3.036,3.036,3.038,3.038,0,0,1,3.036-3.036" transform="translate(-110.294 -107.049)" fill="#fff"/>
    <path id="Path_68" data-name="Path 68" d="M100.75,148.856a3.036,3.036,0,1,1-3.036,3.036,3.038,3.038,0,0,1,3.036-3.036" transform="translate(-61.635 -97.316)" fill="#f19920"/>
    <path id="Path_69" data-name="Path 69" d="M100.75,148.856a3.036,3.036,0,1,1-3.036,3.036,3.038,3.038,0,0,1,3.036-3.036" transform="translate(-61.635 -97.316)" fill="#fff"/>
    <path id="Path_73" data-name="Path 73" d="M100.75,44.094c1.675,0,3.036.678,3.036,1.518s-1.361,1.518-3.036,1.518-3.036-.678-3.036-1.518,1.36-1.518,3.036-1.518" transform="translate(-61.635 -25.95)" fill="#fff"/>
    <path id="Path_75" data-name="Path 75" d="M145.126,34.57c2.516,0,4.554,1.02,4.554,2.277s-2.039,2.277-4.554,2.277-4.554-1.02-4.554-2.277,2.038-2.277,4.554-2.277" transform="translate(-90.83 -19.462)" fill="#fff"/>
  </g>
</svg>
