<svg xmlns="http://www.w3.org/2000/svg" width="26.218" height="23.613" viewBox="0 0 26.218 23.613">
  <g id="icon-favourites" transform="translate(-186.84 -1707.98)">
    <path id="path3925-8" d="M193.986,1708.98a6.329,6.329,0,0,0-6.1,5.351,8.713,8.713,0,0,0,2.656,7.115c3.049,3.081,6.784,5.517,9.246,9.147.487-.52,1.028-1.337,1.576-1.942,2.8-3.086,6.445-5.32,8.96-8.66a7.251,7.251,0,0,0-.06-8.909,6.39,6.39,0,0,0-8.241-1.025,7.043,7.043,0,0,0-2.209,2.472,6.589,6.589,0,0,0-5.828-3.549Z" fill="none" stroke="#000" stroke-linecap="round" stroke-linejoin="round" stroke-width="2" opacity="0.98"/>
  </g>
</svg>
