<svg xmlns="http://www.w3.org/2000/svg" width="41.096" height="82.379" viewBox="0 0 41.096 82.379">
  <g id="icon_aderezos" transform="translate(-4.503 -4.715)">
    <path id="Path_83" data-name="Path 83" d="M63.066,231.075H46.254a.934.934,0,1,1,0-1.868H63.066a.934.934,0,1,1,0,1.868" transform="translate(-29.609 -162.847)" fill="#fff"/>
    <path id="Path_84" data-name="Path 84" d="M69.2,244.681h-9.34a.934.934,0,0,1,0-1.868H69.2a.934.934,0,0,1,0,1.868" transform="translate(-39.478 -172.717)" fill="#fff"/>
    <path id="Path_90" data-name="Path 90" d="M40.743,44.13A49.9,49.9,0,0,1,36.259,23.4v-5.23l3.176-6.352A4.969,4.969,0,0,0,40,9.572a4.946,4.946,0,0,0-4.856-4.857H14.964a4.946,4.946,0,0,0-4.857,4.857,4.977,4.977,0,0,0,.56,2.241l3.176,6.352V23.4A49.293,49.293,0,0,1,9.36,44.13,54.369,54.369,0,0,0,4.5,66.546V81.49a5.5,5.5,0,0,0,5.6,5.6H40a5.5,5.5,0,0,0,5.6-5.6V66.546A54.4,54.4,0,0,0,40.743,44.13M14.964,8.451H35.14a1.2,1.2,0,0,1,1.12,1.121.688.688,0,0,1-.186.56l-2.8,5.791H16.832l-2.989-5.791v-.56a1.2,1.2,0,0,1,1.121-1.121M33.271,32.735H16.645a52.54,52.54,0,0,0,.747-9.34V19.659H32.337V23.4c.186,3.176.56,6.164.934,9.34M41.863,81.3A1.766,1.766,0,0,1,40,83.172H37.007a4.866,4.866,0,0,1-3.176-1.308,8.2,8.2,0,0,0-5.792-2.428H22.062a8.2,8.2,0,0,0-5.791,2.428A4.868,4.868,0,0,1,13.1,83.172H10.107A1.765,1.765,0,0,1,8.239,81.3V66.36a49.293,49.293,0,0,1,4.483-20.735A53.049,53.049,0,0,0,15.9,36.471H34.205a53.113,53.113,0,0,0,3.174,9.153A49.906,49.906,0,0,1,41.863,66.36Z" fill="#fff"/>
  </g>
</svg>
