<svg id="icon_milk" xmlns="http://www.w3.org/2000/svg" width="59.012" height="81.142" viewBox="0 0 59.012 81.142">
  <path id="Path_46" data-name="Path 46" d="M46.286,128.688H27.844a1.844,1.844,0,1,1,0-3.688H46.286a1.844,1.844,0,1,1,0,3.688" transform="translate(-18.623 -80.741)" fill="#fff"/>
  <path id="Path_47" data-name="Path 47" d="M48.909,148.688H37.844a1.844,1.844,0,0,1,0-3.688H48.909a1.844,1.844,0,1,1,0,3.688" transform="translate(-24.935 -93.364)" fill="#fff"/>
  <path id="Path_52" data-name="Path 52" d="M64.643,31.556l-10.7-14.2V10.532A5.433,5.433,0,0,0,48.415,5H22.6a5.433,5.433,0,0,0-5.532,5.532v6.824l-10.7,14.2A2.615,2.615,0,0,0,6,32.662V84.3a1.743,1.743,0,0,0,1.844,1.844H63.168A1.743,1.743,0,0,0,65.012,84.3V32.662a2.6,2.6,0,0,0-.369-1.106m-5.163-.738H44.727L52.1,21.044ZM20.753,10.532A1.742,1.742,0,0,1,22.6,8.688H48.415a1.743,1.743,0,0,1,1.844,1.844v5.532H20.753ZM39.194,82.454H9.688V34.506H39.194Zm.922-51.636H11.532l8.3-11.065H48.415ZM61.324,82.454H42.883V34.506H61.324Z" transform="translate(-6 -5)" fill="#fff"/>
</svg>
