<svg width="147" height="147" viewBox="0 0 147 147" fill="none" xmlns="http://www.w3.org/2000/svg">
<g filter="url(#filter0_d_102_18)">
<path d="M4 10C4 4.47715 8.47715 0 14 0H143V129C143 134.523 138.523 139 133 139H4V10Z" fill="#5EC738"/>
</g>
<path d="M82.21 43.382C95.71 31.151 115.821 30.014 115.821 30.014C115.821 30.014 56.851 27.994 70.584 72.424C70.767 57.254 75.283 49.656 82.21 43.382Z" fill="white"/>
<path d="M115.565 30.1221C115.565 30.1221 95.526 32.1221 82.565 44.9221C75.945 51.4591 71.771 59.2071 72.196 74.2361C71.277 85.9761 61.826 106.143 61.826 106.143C63.899 111.587 68.915 107.759 68.915 107.759C67.141 102.127 75.707 76.6881 76.528 74.2741C89.507 73.3741 126.566 67.5281 115.565 30.1221Z" fill="white"/>
<path d="M54.7451 60.0561C45.6801 51.8451 32.1811 51.0821 32.1811 51.0821C32.1811 51.0821 71.7701 49.7261 62.5501 79.5531C62.4241 69.3701 59.3951 64.2681 54.7451 60.0561Z" fill="white"/>
<path d="M32.3521 51.155C32.3521 51.155 45.8051 52.5 54.5081 61.094C58.9521 65.482 61.7541 70.684 61.4691 80.774C62.0861 88.655 68.4301 102.194 68.4301 102.194C67.0391 105.848 63.6711 103.279 63.6711 103.279C64.8621 99.498 59.1121 82.42 58.5601 80.799C49.8451 80.191 24.9661 76.267 32.3521 51.155Z" fill="white"/>
<defs>
<filter id="filter0_d_102_18" x="0" y="0" width="147" height="147" filterUnits="userSpaceOnUse" color-interpolation-filters="sRGB">
<feFlood flood-opacity="0" result="BackgroundImageFix"/>
<feColorMatrix in="SourceAlpha" type="matrix" values="0 0 0 0 0 0 0 0 0 0 0 0 0 0 0 0 0 0 127 0" result="hardAlpha"/>
<feOffset dy="4"/>
<feGaussianBlur stdDeviation="2"/>
<feComposite in2="hardAlpha" operator="out"/>
<feColorMatrix type="matrix" values="0 0 0 0 0 0 0 0 0 0 0 0 0 0 0 0 0 0 0.25 0"/>
<feBlend mode="normal" in2="BackgroundImageFix" result="effect1_dropShadow_102_18"/>
<feBlend mode="normal" in="SourceGraphic" in2="effect1_dropShadow_102_18" result="shape"/>
</filter>
</defs>
</svg>
